<?xml version="1.0" encoding="utf-8"?>
<!-- Generator: Adobe Illustrator 26.5.0, SVG Export Plug-In . SVG Version: 6.00 Build 0)  -->
<svg version="1.1" id="レイヤー_1" xmlns="http://www.w3.org/2000/svg" xmlns:xlink="http://www.w3.org/1999/xlink" x="0px"
	 y="0px" viewBox="0 0 406.8 495.6" style="enable-background:new 0 0 406.8 495.6;" xml:space="preserve">
<style type="text/css">
	.st0{fill:#0A262B;}
	.st1{fill:none;}
	.st2{fill:#AA0707;}
	.st3{fill:#CC0A0A;}
	.st4{fill-rule:evenodd;clip-rule:evenodd;fill:#FFD100;}
	.st5{fill-rule:evenodd;clip-rule:evenodd;fill:#FC568D;}
	.st6{fill:#FCBED0;}
	.st7{fill-rule:evenodd;clip-rule:evenodd;fill:#0A262B;}
	.st8{fill:#BDA57C;}
	.st9{fill:#E56D00;}
	.st10{fill:#FF8D00;}
	.st11{fill:#FFBF48;}
	.st12{fill:#CCA0AF;}
	.st13{opacity:0.45;fill:#B95F09;}
	.st14{fill:#CE7809;}
	.st15{fill-rule:evenodd;clip-rule:evenodd;fill:#FFBF48;}
	.st16{fill:#E09C24;}
	.st17{fill-rule:evenodd;clip-rule:evenodd;fill:#D1825C;}
	.st18{fill-rule:evenodd;clip-rule:evenodd;fill:#EFEFEF;}
	.st19{fill:#FFFFFF;}
	.st20{fill-rule:evenodd;clip-rule:evenodd;fill:#357A45;}
	.st21{fill-rule:evenodd;clip-rule:evenodd;fill:#FCBED0;}
	.st22{fill:#FC568D;}
	.st23{fill:#357A45;}
	.st24{fill:#BCA9FF;}
	.st25{fill:#7D40F4;}
	.st26{fill:#9677D8;}
</style>
<g>
	<g>
		<path class="st0" d="M142.5,495.6c-30.7,0-58.6-13.8-74.5-26.8c-14-11.4-21.8-24.3-21.5-35.2c0.4-13.3,7.5-23,19-25.9
			c2.2-0.6,4.6-0.9,7.1-0.9c11.9,0,28.8,7,40.5,26.5c8.6,14.5,24.3,17.6,36,17.6c0.5,0,1,0,1.5,0c25.7-0.5,54.7-13.7,77.6-35.4
			c0,0,5.7-5.5,10.8-11.7c-2.9,0.2-5.9,0.3-8.8,0.3c-7.7,0-14-0.7-18-1.3c-5.4,7.4-15.1,15.8-31,15.8c-7.9,0-14.3-2.4-18.8-7
			c-2.3-2.4-4-5.2-5.3-8.7c-0.1,0-0.7-0.1-0.7-0.1c-24.7-2.2-48.2-11-68.3-25.6c-0.5,1.9-1.3,3.7-2.3,5.2c-3,4.6-8.1,7.2-14.2,7.2
			c-2.1,0-4.4-0.3-6.9-0.9c-25.7-6.2-59.5-43.4-64-64.9c-2.1-10.1-0.1-19.5,5.6-26.5c5.1-6.3,12.8-9.9,21.1-9.9c1.5,0,3,0.1,4.5,0.3
			c-3.3-12.1-4.4-25.1-3.2-37.9c2.1-21.5,10.7-42.3,24.3-58.6c-0.8-6,1.4-12.3,6.1-18c2.2-2.7,4.9-5.1,7.8-7.1
			c-7.4-0.6-11.5-3.2-13.7-5.4c-3.1-3.1-4.2-7.3-3.1-11.2c1.1-3.9,4.3-6.7,8.5-7.6c5-1.1,22.2-10.7,31.5-19.7
			c6.4-9.9,14.2-18.9,23.2-26.7c-10.1-24.3-8.8-32.4-6.9-36.4c5.4-11.2,11.4-17.1,17.2-22.8c1.5-1.4,2.9-2.9,4.4-4.4
			c4.8-5,9.5-15.2,10.9-18.7c0.2-0.6,0.5-1.1,0.8-1.7c0.7-1.2,7.6-11.6,19.7-11.6c6.2,0,12.1,2.7,17.5,8
			c11,10.9,14.7,14.1,26.2,16.7c2.3,0.5,6.4,1.3,10.7,2.2c9.2,1.8,22.6,4.4,34.7,7.4c0.2-0.4,0.4-0.8,0.6-1.2
			c4.4-8.6,12.4-13.6,22-13.8c4-2.9,9-4.5,14.8-4.5c0.9,0,1.8,0,2.7,0.1c5.1-3.6,12.4-5.4,21.8-5.4c4.4,0,7.8,0.4,8.4,0.5
			c3.5,0.5,6.5,2.6,8.1,5.8c1.6,3.2,1.5,6.9-0.3,9.9c-4.4,7.8-24.4,43-34.2,58.5c3.6,0.1,7.4,0.2,11.1,0.3c8,0.3,15.5,0.5,19.5,0.5
			c7.6,0,15.3,0,22.5-0.1c6.3,0,12.3-0.1,17.5-0.1c15.7,0,19.7,0.3,21.8,0.8c4.4,1.1,7.2,5,7.4,10.1c0.1,5.1-2.8,12.1-7.7,18.6
			c-7.9,10.4-20,18.5-34.3,22.7c-4.7,1.4-9.6,2.1-14.7,2.1c-4.1,0-8.4-0.5-12.8-1.4c2.6,5.5,4.9,11.1,6.9,16.8
			c8.2,23,15,65,12.4,107.9c3.6,0.5,6.3,1.1,8.2,1.6l5.9,1.8l0,0.1l0.1,0l-0.5,3.7c-7.4,54-27.3,92.5-59.2,114.4
			c-1.7,1.2-3.6,2.4-5.7,3.6c-0.1,0.4-0.5,1.4-0.5,1.4c-20.2,49-71,90.8-126.6,104C157.1,494.7,149.9,495.6,142.5,495.6z"/>
		<path class="st0" d="M84.8,153.1c-15.9,4.3-21.8,1.5-23.3,0.5c-0.8-0.5-1-0.9-1-0.9c0,0,0.1-0.1,0.4-0.2
			c5.3-1.2,15.8-6.7,25.2-13.2C84.5,144.8,84.3,149.4,84.8,153.1z M207.6,381c-0.1,0.2-0.1,0.4-0.1,0.6c0,0.1-0.1,0.5-0.2,1.1
			c0,0.1-0.1,0.3-0.1,0.5c0,0,0,0.1,0,0.1c0,0.2-0.1,0.3-0.1,0.5c0,0,0,0.1,0,0.1c-0.1,0.2-0.1,0.4-0.2,0.6c0,0,0,0.1,0,0.1
			c-0.1,0.2-0.1,0.4-0.2,0.7c0,0,0,0.1,0,0.1c-0.1,0.3-0.2,0.5-0.3,0.8c0,0,0,0.1,0,0.1c-0.1,0.3-0.2,0.6-0.3,0.9c0,0,0,0,0,0
			c-0.1,0.3-0.3,0.6-0.4,1c0,0,0,0,0,0c-0.1,0.3-0.3,0.7-0.5,1c-3.2,6.9-9.9,16.1-23.7,16.1c-4.3,0-7.3-1-9.3-3
			c-4.4-4.6-4.1-15.3-3.7-25.6c0.2-6.6,0.5-13.5-0.5-19.6c-0.7-4.7-1.9-9.8-3.1-14.7c-4.7-19.8-7-33.3,4.2-40.8
			c1.8-1.2,3.6-1.8,5.6-1.8c12.8,0,29.6,25.2,33.1,37.9C213.1,356.7,211.9,367.6,207.6,381z M344,274
			c-7.5,47.6-25.5,81.6-53.5,100.9c-30.6,21.1-64.9,18.5-76.4,16.9l0-0.1c1-2.5,1.9-6,2.6-8.1c4.6-14.7,6.1-27.4,0-48.3
			c-0.3-1-0.6-2.1-1.1-3.3c0.2-0.3-3.4-8.5-3.6-8.1c-1.6-3.1-3.5-6.4-5.7-9.7c4.1-1.4,8-4.3,13.7-8.6c4.2-3.1,9.4-7.1,16.6-11.9
			c20.7-13.9,69.6-3.4,70-3.3c2,0.4,4-0.8,4.4-2.8c0.4-2-0.8-4-2.8-4.4c-0.6-0.1-4.7-1-10.8-1.9c0.1-0.2,0.1-0.4,0.2-0.7l1-10.4
			C310.2,270.7,333.8,272.1,344,274z M379.6,102.3c-0.8,1.6-1.8,3.2-3,4.9c-5.4,7.3-15.1,15.1-29.1,19.3c-3.7,1.1-7.6,1.7-11.6,1.7
			h0c-11.3,0-29.9-4.4-54.6-25.5l-0.9-0.8c-2.6-2.2-4.5-4.1-5.7-5.6c-0.2-0.2-0.3-0.4-0.4-0.6c-0.3-0.4-0.5-0.7-0.7-1
			c0.6,0,1.4,0,2.3,0c-0.1,0-0.3,0.1-0.4,0.1c0.2,0,0.5,0,0.7,0c0.1,0,0.2,0,0.3,0c12.6,1,32.7,1.1,46.8,1.1c7.7,0,15.3,0,22.5-0.1
			c6.3,0,12.3-0.1,17.5-0.1c9.8,0,16,0.1,18.3,0.4C381.4,97.1,381.1,99.2,379.6,102.3z"/>
	</g>
	<path class="st1" d="M347.8,271.1"/>
	<polyline class="st0" points="90.8,167.3 92,166.3 95.8,169.9 93.3,171.2 90.8,167.3 	"/>
	<path class="st0" d="M318.2,233.1c-13.9,0-26.5-6.1-33.7-11.9c-7.1-5.7-11-12.2-10.8-18.3c0.2-7.6,4.5-13.4,11.2-15.2
		c1.3-0.4,2.8-0.5,4.3-0.5c6.2,0,14.9,3.4,20.8,13.1c2,3.3,5.7,5,10.9,5c0.3,0,0.5,0,0.8,0c4.7-0.1,9.8-1.5,14.8-3.8
		c-0.4,0-0.9,0-1.3,0c-5.7,0-9.1-2.3-11-4.2c-4.8-4.9-4.5-11.9-4.3-18.1c0.1-2.4,0.2-4.9-0.1-6.7c-0.3-1.6-0.7-3.5-1.2-5.5
		c-1.4-5.9-3.2-13.5-0.6-20.1c-1.6-3.6-3.2-7.1-4.9-10.4c-5.8-10.5-9.6-21.5-12.1-30.3c-0.3,0.3-0.5,0.6-0.8,0.9
		c-3.5,3.6-8.2,5.7-12.7,5.8c-6.7,0-12-4.4-13.3-11c-0.8-4.3,0.5-8.8,3.7-12.8c2.4-2.9,5.6-5.3,8.9-6.7c0.1-1.3,0.4-2.7,0.8-4.1
		c0-0.1,0.1-0.3,0.1-0.4c0.6-2.1,2.2-5.5,3.5-7.4l0,0c10.9-17.5,31.2-28,54.3-28c0.5,0,1.1,0,1.6,0c3.4,0.1,6.8,0.5,10.2,1.2
		c0.4,0.1,0.8,0.2,1.2,0.3c0.5,0.1,0.9,0.2,1.4,0.4c3,0.8,5.9,1.9,8.8,3.2c2.8-1.4,5.6-2.6,7.7-3.4c4.6-1.7,8.9-2.6,12.6-2.6
		c1.2,0,2.4,0.1,3.7,0.3c0.1,0,0.4,0.1,0.5,0.1c0.8,0.2,1.4,0.3,2,0.5c2,0.6,3.8,1.5,5.4,2.8c1.4,1.1,2.6,2.6,3.6,4.5
		c2.4,4.5,3.2,10.9,1.9,16.6c-0.8,3.4-2.8,9-8.1,13.1c0.7,1.5,1.3,3.1,1.8,4.3c1.4,3.9,2.7,8.8,3.7,14.2c0.8,4.4,1.4,8.9,1.8,13.5
		c0.6,7.5,0.7,14.9,0.2,22c-1.1,15.3-5.5,35.6-19.6,47.1c-7.2,23.4-30.9,44.9-57.3,51.4c-3.2,0.8-6.6,1.2-10,1.2
		C318.7,233.1,318.3,233.1,318.2,233.1z"/>
	<path class="st2" d="M174.4,290.4c10.1,0,19.7,7.9,27.2,17.3c3.5-0.5,6.6-2.7,13.9-8.1c4.2-3.2,9.5-7.2,16.9-12.1
		c14.7-9.9,40.3-9.2,57.6-7.3c0.5-4.7,0.8-9.4,0.8-14.1c0-13.2-2.1-26.2-6.2-38.6c-19.1-17.1-32.2-27.6-51.1-31.5
		c-5.5-1.1-11.5-1.1-17.6-0.5l-28.3,5.8c0,0,0-0.2-0.1-0.5c-8.1,1.8-15.2,3-20.9,2.4c-10.5-1.1-18.8-6.6-21.1-14
		c-1.7-5.2-1.2-13.6,10.4-23.8c3.7-3.3,8-6.1,12.7-8.6c0,0-0.1-0.1-0.1-0.1c1.1-0.8,2.2-1.4,3.4-2.1c-8.8-0.1-17.6-1.9-26-6.3
		c-9.5,13.2-31.4,23.3-43.2,23.8c-2.6,0.6-5.1,1.3-7.6,2.1c0.2,0.6,0.4,1.2,0.5,1.9c1.5,7.2-1,14.9-6.7,20.6c-5,5-11.2,7.8-17.2,7.8
		c-4.7,0-8.6-1.8-11.3-4.9c-1.2,1.5-2.4,3.1-3.6,4.8c-0.4,0.5-0.7,1-1.1,1.6c-0.3,0.5-0.7,1-1,1.5c-5,7.7-8.9,16.4-11.6,25.6
		c-1.7,5.8-2.8,11.8-3.4,17.9c-1.7,17.5,1.4,34.3,8.2,48.2c-0.2-0.4-0.4-0.9-0.6-1.3c0,0,0,0.1,0.1,0.1c0.1,0.3,0.3,0.5,0.4,0.8
		c0.4,0.6,0.9,1.2,1.4,1.8c0,0-0.1,0-0.1,0.1c11.5,11.8,28.1,44.5,32.8,54.9c0.2-0.1,1.2,2.9,1.3,3.4c19.7,18.2,45.3,30.1,73.5,32.7
		c0.6,0.1,1.3,0.1,1.9,0.2c0,0,0,0,0.1,0c-0.4-4.9-0.2-10.1-0.1-15.3c0.2-6.2,0.4-12.6-0.4-17.9c-0.7-4.3-1.8-9-3-13.9
		c-4.4-18.4-9.4-39.2,8.2-50.9C166.9,291.6,170.6,290.4,174.4,290.4z"/>
	<g>
		<path class="st3" d="M213.7,195.9l-26.1,5.3c0,0,0-0.2-0.1-0.5c-8.1,1.8-15.2,3-20.9,2.4c-2.7-0.3-5.3-0.9-7.7-1.7
			c-0.5-0.2-0.9-0.3-1.4-0.5c-6.2-2.5-10.7-6.7-12.4-11.9c-1.7-5.2-1.2-13.6,10.4-23.8c0.2-0.1,0.4-0.3,0.5-0.4
			c-6.9-2.3-14.2-3.8-21.6-4.4c-0.6-0.1-1.2,0-1.8,0.1c-10.1,6.7-22.1,11.2-29.9,11.5c-2.6,0.6-5.1,1.3-7.6,2.1
			c0.2,0.6,0.4,1.2,0.5,1.9c1.5,7.2-1,14.9-6.7,20.6c-5,5-11.2,7.8-17.2,7.8c-1.8,0-3.4-0.3-5-0.8c0,0,0,0,0,0
			c-2.5-0.8-4.6-2.2-6.3-4.1c-1.2,1.5-2.4,3.1-3.6,4.7c-0.4,0.5-0.7,1-1.1,1.6c-0.3,0.5-0.7,1-1,1.5c-5,7.7-8.9,16.4-11.6,25.6
			c-1.7,5.8-2.8,11.8-3.4,17.9c-1.4,14.9,0.6,29.1,5.4,41.7c0.7,1.8,1.4,3.6,2.2,5.3c0,0,0,0,0,0.1c0.1,0.3,0.3,0.5,0.4,0.8
			c0.4,0.6,0.9,1.2,1.4,1.8c0,0-0.1,0-0.1,0.1c7.6,7.9,17.6,25,24.7,38.6c0.3,0.3,0.7,0.7,1.1,1c35.9,33.9,75.2,23.1,83.3,21
			c0,0-2.5-13.7-3.2-16.6l0-0.1c-4.4-18.4-9.4-39.2,8.2-50.9c3.4-2.2,7-3.4,10.9-3.4c2.6,0,5.2,0.5,7.7,1.5
			c7.3,2.6,14.1,8.8,19.8,15.9c0.1,0,0.1,0.1,0.2,0.1c0,0,0,0,0,0c3.5-0.5,6.6-2.7,13.8-8.1c2.7-2,5.7-4.3,9.5-7c0,0,0,0,0,0
			c5.2-10.7,8.6-22,8.6-35.1C233.6,235.3,226.2,212.4,213.7,195.9z"/>
		<path class="st3" d="M48,299.1c-0.2-0.4-0.4-0.9-0.6-1.3c0,0,0,0,0,0C47.6,298.2,47.8,298.7,48,299.1z"/>
	</g>
	<path class="st4" d="M208.8,342.5l-0.1-0.4c-0.3-1.4-0.7-2.7-1.1-4.2c-3.5-12.7-20.3-37.9-33.1-37.9c-2,0-3.8,0.6-5.6,1.8
		c-11.2,7.5-9,21-4.2,40.8c1.2,4.9,2.4,10,3.1,14.7c0.9,6.1,0.7,13,0.5,19.6c-0.3,10.3-0.7,21,3.7,25.6c1.9,2,5,3,9.3,3
		c1.2,0,2.4-0.1,3.5-0.2c0.3,0,0.7-0.1,1-0.2c0.8-0.1,1.6-0.3,2.3-0.5c0.3-0.1,0.7-0.2,1-0.3c0.8-0.2,1.5-0.5,2.2-0.8
		c0.2-0.1,0.4-0.2,0.6-0.3c0.9-0.4,1.8-0.9,2.6-1.4l0.2-0.2c0.7-0.5,1.4-0.9,2-1.5c0.2-0.1,0.4-0.3,0.5-0.5c0.5-0.4,1-0.9,1.5-1.4
		l0.5-0.5c0.5-0.6,1-1.1,1.5-1.7l0.2-0.2c0.5-0.7,1-1.3,1.5-2l0.3-0.5c0.3-0.5,0.6-1,0.9-1.5c0.1-0.2,0.3-0.5,0.4-0.7
		c0.2-0.4,0.4-0.8,0.6-1.2c0.1-0.3,0.2-0.5,0.4-0.8c0.2-0.4,0.3-0.7,0.4-1c0.3-0.7,0.6-1.4,0.8-2l0-0.1c0.2-0.5,0.3-0.9,0.4-1.3
		c0.5-1.8,0.8-3,0.8-3.2c0-0.2,0.1-0.4,0.1-0.6c3.6-11.3,5-20.7,2.1-34.7C209.4,345.1,209.2,343.8,208.8,342.5"/>
	<path class="st5" d="M60.9,152.5c-0.3,0.1-0.4,0.2-0.4,0.2c0,0,0.2,0.4,1,0.9c1.4,1,7.3,3.7,23.3-0.5c-0.5-3.7-0.3-8.3,1.3-13.8
		C76.8,145.8,66.3,151.3,60.9,152.5"/>
	<path class="st6" d="M92.5,155.1c0.2,0.7,0.4,1.3,0.7,1.9c1.8,4.1,4.9,6.7,7.2,7.8c4.5,2,33-7.9,41.3-23c0.5-0.9,1.3-1.5,2.2-1.7
		c0.9-0.2,1.9-0.1,2.8,0.4c4.6,2.8,9.3,4.7,14.1,5.8c0,0,0,0,0,0c14.3,3.3,29.2-0.1,42.8-4.3c-3.1-12-3.2-19.3-0.1-21.6
		c0.7-0.5,2.7-1.6,5.4,0.2c4.2,2.8,32.9,20.3,33.2,20.4l1.4,0.8l-0.1,1.6c0,0.2-0.1,3.2-1,6.8c0.2,0.1,0.3,0.1,0.5,0.2
		c0.6,0.2,1.1,0.4,1.6,0.6c0.9,0.3,1.9,0.6,2.8,1c0.9,0.4,1.6,1.1,2,1.9c0.4,0.8,0.4,1.8,0.1,2.8c-0.7,1.8-2.8,2.7-4.6,2
		c-3.4-1.3-6.9-2.4-10.4-3.2c-0.2,0-0.4-0.1-0.5-0.1c-1.6-0.4-3.2-0.7-4.8-0.9c-0.3,0-0.6-0.1-0.9-0.1c-1.5-0.2-3.1-0.4-4.6-0.6
		c-0.3,0-0.6-0.1-0.9-0.1c-1.7-0.2-3.4-0.3-5.2-0.3c-0.1,0-0.2,0-0.3,0c-1.9-0.1-3.8-0.1-5.7,0c-0.1,0-0.3,0-0.4,0
		c-1.4,0-2.8,0.1-4.2,0.2l-3,6.2l15.2,6.8l-6.9,13.5l6.2,8.3c3.7-0.2,7.5-0.2,11.1,0.1c0.1,0,0.1,0,0.2,0c0.8,0.1,1.7,0.2,2.5,0.3
		c0.2,0,0.5,0.1,0.7,0.1c0.7,0.1,1.4,0.2,2.2,0.4c23,4.8,38.3,18.6,61.4,39.4l2.8,2.5c0.4,0.3,0.6,0.7,0.8,1.2
		c0.6,1.3,0.4,2.8-0.6,3.9c-0.7,0.8-1.7,1.2-2.6,1.2c-0.8,0-1.6-0.3-2.3-0.8c0.1,0.3,0.1,0.6,0.2,0.9c0.3,1.5,0.6,2.9,0.9,4.2
		c0.2,1.1,0.4,2.3,0.6,3.4c0.1,0.9,0.3,1.7,0.4,2.5c0.7,5,1.2,10.1,1.3,15.3c4.9,0.2,20.2,1,33.2,2.2c2.9-40.4-2.7-81.8-11.6-106.8
		c-2-5.6-4.2-11-6.6-16.1c-2.4-5.1-5.1-10-7.9-14.5c-8.5-4.1-18.1-10.3-28.6-19.3l-0.9-0.7c-6.6-5.5-8.9-9.3-9.7-11.8
		c0,0,0-0.1,0-0.1c-2.6,0.1-6.8-0.7-13.9-2.1c-5.1-1-11.5-2.2-19.4-3.5c-18.3-3-52.8-4.5-63.2-3.2c-4,0.5-6.5,2.1-8.7,3.5
		c-2.2,1.4-4.4,2.8-7.3,2.4c-2-0.3-3.1-1.1-3.9-1.7c-0.7-0.6-1-0.8-2.4-0.7c-4.4,0.2-19,7.6-22.7,10.5c-0.2,0.2-0.4,0.3-0.7,0.3
		c-1.3,1-2.6,2.1-3.8,3.2c-0.3,0.2-0.5,0.5-0.8,0.7c-0.8,0.7-1.5,1.4-2.3,2.1c-0.2,0.2-0.4,0.3-0.5,0.5c-0.8,0.8-1.7,1.6-2.5,2.4
		c0,0-0.1,0.1-0.1,0.1c-5.6,5.7-10.6,12-14.9,18.8C92.5,138.8,90.3,147.9,92.5,155.1z"/>
	<path class="st7" d="M138.5,122.9c-5.7,4.2-4,9.5,2.4,10.3c6.3,0.8,6.8,1.2,12.7-3.2c6.3-4.7,7.1-12.7,0-11.9
		C146.4,119,141.7,120.5,138.5,122.9"/>
	<path class="st7" d="M121.9,126.1c0,3.9-3.2,7.1-7.1,7.1c-3.9,0-7.1-3.2-7.1-7.1c0-3.9,3.2-7.1,7.1-7.1
		C118.7,119,121.9,122.1,121.9,126.1"/>
	<path class="st7" d="M204.2,106.3c0,3.9-3.2,7.1-7.1,7.1c-3.9,0-7.1-3.2-7.1-7.1c0-3.9,3.2-7.1,7.1-7.1
		C201,99.2,204.2,102.4,204.2,106.3"/>
	<path class="st8" d="M177.5,288.2L177.5,288.2L177.5,288.2z"/>
	<path class="st4" d="M184.1,177.3c-6.5-3.3-13.2-6.4-19.7-9.7c-1.3,1-2.6,2-3.8,3c-6.8,6-9.8,11.8-8.3,16.3
		c1.5,4.7,7.5,8.3,15.1,9.1c5.7,0.6,14.3-1.3,23.4-3.3c4.2-0.9,8.6-1.9,13-2.7C198.1,185,191.2,180.9,184.1,177.3z"/>
	<path class="st9" d="M197.1,43.4c-14.9-3.3-21.7-8.5-31.9-18.2c3.2,8.7,7.2,20.7,7.9,25c1.6,11.1-8.1,18.9-14.2,21.8l-4.3,2.1
		l-4-2.7c-1.2-0.8-11.2-7.8-10-18.6c0.5-4,1.9-8.6,3.5-12.9c-1.4,1.9-2.8,3.7-4.3,5.3c-1.6,1.7-3.2,3.3-4.8,4.8
		c-5.1,5-9.1,9-13,16.7c0.1,3,2.7,11.1,6.1,19.8c9.1-5.5,15.6-8.4,19.5-8.5c1.2,0,2.2,0,3.2,0.1c2.1,0.3,3.6,0.9,4.6,1.3
		c2.2-1.4,5.7-3.5,11.9-4.2c13.7-1.6,35.2-0.6,63.8,3.1c3.1,0.4,6,0.8,8.7,1.2c2.9-6.5,7.1-15.9,11-24.4
		c-14.6-3.9-34.1-7.7-42.5-9.4C203.5,44.7,199.6,44,197.1,43.4z"/>
	<path class="st10" d="M317.6,20.9C317.6,20.9,317.6,20.9,317.6,20.9c-0.4,0-17.1-2.2-23.7,3.9c-0.6,0.5-1.1,1.2-1.5,1.8
		c0,0-2-0.6-4.8-0.8c-3.7-0.2-8.6,0.3-11.7,4c-0.2,0.2-0.4,0.5-0.6,0.7c0,0-2.5-0.6-5.6-0.2c-3.6,0.5-8.1,2.3-10.9,7.8
		c-1,2-2.5,5.1-4.2,8.8c-19.2-5.2-45-9.7-53.6-11.6c-1.2-0.3-2.3-0.6-3.4-0.8c0,0-0.1,0-0.1,0c-1-0.3-2-0.6-3-0.9c0,0-0.1,0-0.1,0
		c-1-0.3-1.9-0.6-2.8-1c0,0,0,0-0.1,0c-0.8-0.3-1.6-0.7-2.3-1c-0.2-0.1-0.3-0.2-0.5-0.2c-0.7-0.3-1.3-0.7-2-1
		c-0.1-0.1-0.2-0.1-0.3-0.2c-0.7-0.4-1.4-0.8-2.1-1.3c-0.2-0.1-0.4-0.3-0.6-0.4c-0.5-0.3-1-0.7-1.5-1c-0.3-0.2-0.5-0.4-0.8-0.6
		c-0.5-0.4-1-0.8-1.5-1.2c-0.2-0.1-0.3-0.3-0.5-0.4c-0.4-0.3-0.7-0.6-1.1-0.9c-0.3-0.2-0.5-0.5-0.8-0.7c-0.4-0.4-0.9-0.8-1.3-1.2
		c-0.2-0.2-0.4-0.4-0.7-0.6c-0.5-0.5-1-1-1.6-1.5c-0.1-0.1-0.2-0.2-0.3-0.3c-1.3-1.2-2.6-2.5-4.1-4c-0.4-0.4-0.8-0.7-1.2-1.1
		c-0.7-0.6-1.4-1.1-2-1.6c0,0-0.1-0.1-0.1-0.1c-0.2-0.1-0.3-0.2-0.5-0.3c-0.2-0.1-0.4-0.3-0.6-0.4c-0.1,0-0.1-0.1-0.2-0.1
		c-0.3-0.2-0.6-0.3-0.9-0.4c0,0,0,0,0,0c-9.3-4.2-15.3,5.5-15.3,5.5s-5.7,14.3-13.1,22.1c-7.4,7.7-13.8,12.4-19.7,24.5
		c-0.2,0.5-0.3,1.1-0.4,1.8c0,0.2,0,0.4,0,0.6c0,0.2,0,0.4,0,0.7c0,0.1,0,0.3,0,0.4c0.5,6.8,5.5,19.5,8.4,26.5
		c1.5-0.9,3.3-1.9,5.2-2.9c0.3-0.1,0.7-0.3,1-0.5c6-3,13-6,16.5-6.2c1.3-0.1,2.3,0.1,3.1,0.3c1.3,0.4,2.2,1,2.8,1.5
		c0.6,0.4,0.8,0.6,1.3,0.6c0.9,0.1,1.9-0.5,3.7-1.6c2.4-1.5,5.8-3.6,11.1-4.3c10.9-1.3,45.5,0.1,64.7,3.3c7.9,1.3,14.4,2.5,19.5,3.5
		c6.4,1.2,11.4,2.2,13,2c0.2,0,0.4,0,0.6,0c0,0,0.2,0,0.5,0c-0.1,0.1-0.2,0.3-0.3,0.4c0.2-0.2,0.3-0.4,0.5-0.6
		c1.6-1,4.6-1.7,8.5-1.9c0,0,0.1,0,0.1,0c0.3-0.2,0.6-0.4,0.9-0.6c0.1-0.1,0.2-0.1,0.2-0.2c0.3-0.2,0.5-0.4,0.8-0.6
		c0.1-0.1,0.3-0.2,0.4-0.4c0.2-0.2,0.4-0.4,0.6-0.5c0.2-0.2,0.4-0.4,0.6-0.7c0.1-0.1,0.2-0.2,0.3-0.3
		C285.3,78,317.6,20.9,317.6,20.9C317.6,20.9,317.6,20.9,317.6,20.9z M149,53.7c1-8.9,8.3-23,8.3-23s6.5,14.7,7.4,20.7
		c1.1,7.9-9.4,12.9-9.4,12.9S148.3,59.6,149,53.7z M239.9,79.4c-2.7-0.4-5.7-0.8-8.7-1.2c-28.6-3.7-50.1-4.7-63.8-3.1
		c-6.2,0.7-9.7,2.8-11.9,4.2c-1-0.5-2.5-1.1-4.6-1.3c-1-0.1-2.1-0.2-3.2-0.1c-3.9,0.2-10.5,3-19.5,8.5c-3.5-8.8-6-16.8-6.1-19.8
		c3.8-7.7,7.9-11.7,13-16.7c1.6-1.5,3.1-3.1,4.8-4.8c1.5-1.6,3-3.4,4.3-5.3c-1.6,4.3-3,8.9-3.5,12.9c-1.2,10.8,8.8,17.8,10,18.6
		l4,2.7l4.3-2.1c6-2.9,15.8-10.7,14.2-21.8c-0.6-4.3-4.7-16.3-7.9-25c10.1,9.8,17,14.9,31.9,18.2c2.6,0.6,6.4,1.3,11.3,2.3
		c8.5,1.7,28,5.5,42.5,9.4C247,63.5,242.8,72.9,239.9,79.4z"/>
	<path class="st11" d="M155.3,64.3c0,0,10.6-5,9.4-12.9c-0.9-5.9-7.4-20.7-7.4-20.7s-7.3,14.2-8.3,23
		C148.3,59.6,155.3,64.3,155.3,64.3z"/>
	<path class="st10" d="M269.7,30.5c-3.6,0.5-8.1,2.3-10.9,7.8c-1.7,3.4-4.7,9.7-7.9,16.7c2.9,0.8,5.6,1.5,8,2.3L269.7,30.5z"/>
	<path class="st9" d="M263.5,60.9l12.4-31c-0.2,0.2-0.4,0.5-0.6,0.7c0,0-2.5-0.6-5.6-0.2l-10.5,26.1c-0.5,1.2,0.1,2.6,1.3,3.1
		L263.5,60.9z"/>
	<path class="st9" d="M277.9,61.6l16-36.8c-0.6,0.5-1.1,1.2-1.5,1.8c0,0-2-0.6-4.8-0.8l-13.8,31.7c-0.5,1.1,0,2.3,1.1,2.8
		L277.9,61.6z"/>
	<path class="st12" d="M229.1,86.4C229.1,86.4,229.1,86.4,229.1,86.4c2.5,0.3,5,0.6,7.3,0.9c0,0,0,0,0,0
		C234.1,87.1,231.6,86.7,229.1,86.4"/>
	<path class="st13" d="M247.2,45.2c-0.3,0.7-1.7,3.8-3.6,8c-3.3,7.3-8,18-11.2,25.2c-2,4.6-3.4,7.8-3.4,8c2.5,0.3,5,0.6,7.3,0.9
		c0,0,0,0,0,0c0.3-0.6,1.6-3.6,3.5-7.9c2.9-6.5,7.1-15.9,11-24.4c1.3-2.8,2.5-5.5,3.7-7.9C252.2,46.5,249.7,45.8,247.2,45.2z"/>
	<path class="st14" d="M254.5,47.1c-1.1,2.4-2.4,5.1-3.7,7.9c-3.8,8.4-8.1,17.9-11,24.4c-1.9,4.3-3.2,7.3-3.5,7.9
		C237,86,253.4,49.5,254.5,47.1C254.5,47.1,254.5,47.1,254.5,47.1"/>
	<circle class="st15" cx="184.8" cy="57.5" r="6.5"/>
	<path class="st15" d="M140.8,64.6c0.3,2.8-1.3,5.4-3.6,5.7c-2.3,0.3-4.5-1.7-4.8-4.5c-0.3-2.8,1.3-5.4,3.6-5.7
		C138.3,59.8,140.4,61.8,140.8,64.6z"/>
	<circle class="st15" cx="204.3" cy="60.3" r="5.6"/>
	<circle class="st15" cx="220.1" cy="63.1" r="4.6"/>
	<circle class="st15" cx="234" cy="65.9" r="3.7"/>
	<path class="st1" d="M60.9,152.5c-0.3,0.1-0.4,0.2-0.4,0.2c0,0,0.2,0.4,1,0.9c1.4,1,7.3,3.7,23.3-0.5c-0.5-3.7-0.3-8.3,1.3-13.8
		C76.8,145.8,66.3,151.3,60.9,152.5z"/>
	<path class="st0" d="M296.2,282.7c0.2,0,0.5,0.1,0.7,0.1c0-0.3,0.1-0.6,0.1-0.8C296.8,282.3,296.5,282.5,296.2,282.7z"/>
	<g>
		<path class="st16" d="M165.1,281.3c-1.6,4.1,0.1,8.8,3.9,10.5c0.1,0,0.2,0,0.2,0.1c2.4-4.7,4.4-9.7,6-14.9c-0.1,0-0.1-0.1-0.2-0.1
			C171.2,275.1,166.8,277.2,165.1,281.3z"/>
		<path class="st16" d="M178.6,260.6c-4.1-0.8-8.2,2.1-9.1,6.4c-0.9,4.3,1.5,8.5,5.7,9.4c0.1,0,0.2,0,0.3,0c1.5-5,2.7-10.3,3.4-15.7
			C178.8,260.7,178.7,260.6,178.6,260.6z"/>
		<path class="st16" d="M171.5,252.2c-0.2,4.4,2.9,8,7.2,8c0.1,0,0.2,0,0.3,0c0.3-2.3,0.6-4.7,0.7-7c0.2-3,0.2-6,0.2-8.9
			c-0.1,0-0.2,0-0.4,0C175.2,244.3,171.7,247.9,171.5,252.2z"/>
		<path class="st16" d="M171,237.6c0.5,4.3,4.2,7.1,8.4,6.3c0.1,0,0.2-0.1,0.4-0.1c-0.2-5.4-0.8-10.5-1.7-15.5c-0.2,0-0.3,0-0.4,0
			C173.5,229.3,170.5,233.4,171,237.6z"/>
		<path class="st16" d="M168.2,223.7c1.2,4,5.3,6,9.3,4.5c0.1-0.1,0.3-0.1,0.4-0.2c-1-5.1-2.5-9.9-4.3-14.5
			c-0.2,0.1-0.3,0.1-0.5,0.1C169.2,215.1,167,219.6,168.2,223.7z"/>
		<path class="st16" d="M163.1,210.8c1.8,3.6,6.3,4.7,9.9,2.5c0.1-0.1,0.3-0.2,0.4-0.3c-1.9-4.6-4.1-9-6.7-13
			c-0.1,0.1-0.2,0.1-0.4,0.2C162.7,202.4,161.3,207.2,163.1,210.8z"/>
		<g>
			<path class="st1" d="M169.5,267c0.9-4.3,5-7.2,9.1-6.4c0.1,0,0.2,0.1,0.3,0.1c0-0.2,0-0.3,0.1-0.5c-0.1,0-0.2,0-0.3,0
				c-4.2,0-7.4-3.6-7.2-8c0.2-4.4,3.8-7.9,8-8c0.1,0,0.2,0,0.4,0c0-0.2,0-0.3,0-0.4c-0.1,0-0.2,0.1-0.4,0.1
				c-4.2,0.8-7.9-2.1-8.4-6.3c-0.5-4.3,2.4-8.4,6.6-9.2c0.2,0,0.3,0,0.4,0c0-0.2-0.1-0.3-0.1-0.5c-0.1,0.1-0.3,0.2-0.4,0.2
				c-4,1.6-8.2-0.5-9.3-4.5c-1.2-4,1-8.5,5-10.1c0.2-0.1,0.3-0.1,0.5-0.1c-0.1-0.2-0.1-0.3-0.2-0.5c-0.1,0.1-0.2,0.2-0.4,0.3
				c-3.7,2.3-8.1,1.1-9.9-2.5c-1.8-3.6-0.4-8.3,3.2-10.6c0.1-0.1,0.2-0.1,0.4-0.2c-0.1-0.1-0.2-0.3-0.2-0.4
				c-0.1,0.1-0.2,0.2-0.3,0.3c-3.2,2.9-7.8,2.7-10.2-0.3c-2.4-3.1-1.8-7.8,1.4-10.7c0.1-0.1,0.2-0.1,0.3-0.2
				c-0.1-0.1-0.2-0.2-0.3-0.3c-0.1,0.1-0.1,0.2-0.2,0.3c-2.7,3.4-7.2,4.2-10.1,1.7c-2.9-2.4-3.1-7.1-0.5-10.4c0,0,0.1-0.1,0.1-0.1
				c-0.1-0.1-0.2-0.1-0.3-0.2c0,0,0,0.1-0.1,0.1c-2,3.8-6.3,5.4-9.6,3.8c-3.3-1.7-4.3-6-2.4-9.7c-0.1,0-0.2-0.1-0.3-0.1
				c-1.3,4-5.2,6.5-8.7,5.6c-3.5-0.8-5.3-4.6-4.1-8.5c-0.1,0-0.2,0-0.3,0c-0.6,4-3.9,7.1-7.5,7.1c-3.6,0-6-3.1-5.6-7
				c-0.6,0.1-1.2,0.2-1.9,0.3c0.2,3.8-2.5,7.4-5.9,8.3c-3.4,0.8-6.4-1.4-6.9-5c-0.1,0-0.2,0.1-0.3,0.1c0.8,3.5-1.1,7.5-4.4,9
				c-3.2,1.6-6.6,0.1-7.7-3.1c-0.1,0.1-0.2,0.1-0.3,0.2c1.4,3.1,0.2,7.3-2.8,9.4c-2.9,2.2-6.5,1.6-8.2-1.3c-0.1,0.1-0.1,0.1-0.2,0.2
				c1.9,2.7,1.4,6.9-1.1,9.6c-2.6,2.7-6.2,2.9-8.4,0.5c-0.1,0.1-0.1,0.2-0.2,0.3c2.4,2.2,2.6,6.3,0.5,9.4c-2.1,3.2-5.8,4.1-8.4,2.1
				c0,0.1-0.1,0.1-0.1,0.2c2.8,1.6,3.7,5.6,2,9c-1.7,3.6-5.3,5.2-8.2,3.7c0,0.1-0.1,0.2-0.1,0.3c3.1,0.9,4.7,4.7,3.5,8.4
				c-1.1,3.8-4.6,6.1-7.7,5.2c0,0-0.1,0-0.1,0c0,0.1-0.1,0.2-0.1,0.4c0,0,0.1,0,0.1,0c3.3,0.3,5.4,3.6,4.8,7.5
				c-0.6,3.9-3.7,6.8-6.9,6.5c-0.1,0-0.2,0-0.3-0.1c0,0.1,0,0.3,0,0.4c0.1,0,0.2-0.1,0.3-0.1c3.3-0.4,6,2.5,5.9,6.4
				c0,3.9-2.7,7.4-6,7.7c-0.1,0-0.2,0-0.3,0c0,0.2,0,0.3,0,0.5c0.1,0,0.2-0.1,0.3-0.1c3.3-1,6.4,1.3,6.9,5.1
				c0.6,3.8-1.6,7.7-4.9,8.7c-0.1,0-0.3,0-0.4,0.1c0,0.1,0.1,0.3,0.1,0.4c0.1-0.1,0.2-0.2,0.3-0.2c3.2-1.6,6.6,0,7.8,3.6
				c1.2,3.7-0.5,7.9-3.6,9.5c-0.1,0.1-0.3,0.1-0.4,0.1c0.1,0.2,0.1,0.3,0.2,0.4c0.1-0.1,0.2-0.2,0.3-0.3c2.9-2.3,6.7-1.4,8.4,2
				c1.7,3.4,0.8,7.9-2.2,10.2c-0.1,0.1-0.3,0.2-0.4,0.2c0.1,0.1,0.2,0.3,0.2,0.4c0.1-0.1,0.2-0.3,0.3-0.4c2.6-2.9,6.5-2.8,8.8,0.1
				c2.3,2.9,2.1,7.7-0.6,10.5c-0.1,0.1-0.2,0.2-0.4,0.3c0.1,0.1,0.2,0.2,0.4,0.4c0.1-0.1,0.1-0.3,0.2-0.4c2.2-3.4,6.1-4.2,8.9-1.8
				c2.8,2.4,3.4,7.1,1.2,10.5c-0.1,0.1-0.2,0.2-0.3,0.3c0.1,0.1,0.3,0.2,0.4,0.3c0-0.1,0.1-0.3,0.1-0.4c1.6-3.8,5.5-5.5,8.7-3.8
				c3.3,1.7,4.7,6.2,3.1,10.1c0,0.1-0.1,0.2-0.1,0.3c0.1,0.1,0.3,0.1,0.4,0.2c0-0.1,0-0.2,0-0.3c0.9-4.2,4.5-6.7,8-5.8
				c3.6,0.9,5.8,5.1,4.9,9.3c0,0.1,0,0.1-0.1,0.2c0.1,0,0.2,0,0.3,0c0,0,0-0.1,0-0.1c0.1-4.3,3.2-7.8,6.9-7.8c3.8,0,6.8,3.5,6.8,7.8
				c0,0.1,0,0.2,0,0.3c0.1,0,0.3,0,0.4-0.1c0,0,0-0.1,0-0.1c-0.7-4.3,1.8-8.4,5.6-9.2c3.8-0.8,7.5,1.9,8.2,6.3c0,0,0,0.1,0,0.1
				c0.1,0,0.2-0.1,0.3-0.1c0,0,0-0.1,0-0.1c-1.5-4.1,0.3-8.7,3.9-10.4c3.7-1.7,7.9,0.1,9.4,4.2c0,0,0,0.1,0,0.1
				c0.1-0.1,0.2-0.1,0.4-0.2c0,0,0-0.1-0.1-0.1c-2.3-3.7-1.3-8.6,1.9-11.1c3.3-2.5,7.9-1.7,10.2,2c0,0,0,0.1,0.1,0.1
				c0.1-0.1,0.2-0.2,0.3-0.3c0,0-0.1-0.1-0.1-0.1c-2.9-3.1-2.9-8.2,0-11.4c2.9-3.2,7.6-3.3,10.5-0.2c0,0,0.1,0.1,0.1,0.2
				c0.1-0.1,0.2-0.2,0.3-0.3c-0.1,0-0.1-0.1-0.2-0.1c-3.5-2.5-4.3-7.4-2-11.2c2.3-3.8,7-4.9,10.4-2.5c0.1,0,0.1,0.1,0.2,0.2
				c0.1-0.1,0.1-0.3,0.2-0.4c-0.1,0-0.2,0-0.2-0.1c-3.9-1.7-5.6-6.4-3.9-10.5c1.7-4.1,6.1-6.2,9.9-4.5c0.1,0,0.1,0.1,0.2,0.1
				c0-0.1,0.1-0.3,0.1-0.4c-0.1,0-0.2,0-0.3,0C171,275.6,168.5,271.3,169.5,267z"/>
			<path class="st16" d="M99.9,179.4c3.5-0.8,6.1-4.5,5.9-8.3c-4.4,0.6-8.7,1.8-12.8,3.3C93.5,178.1,96.5,180.3,99.9,179.4z"/>
			<path class="st16" d="M88.3,183.6c3.3-1.6,5.2-5.5,4.4-9c-4.2,1.6-8.2,3.6-12.1,5.9C81.8,183.8,85.1,185.2,88.3,183.6z"/>
			<path class="st16" d="M77.6,190.1c2.9-2.2,4.1-6.3,2.8-9.4c-3.8,2.4-7.5,5.1-10.9,8.2C71.1,191.7,74.7,192.3,77.6,190.1z"/>
			<path class="st16" d="M68.1,198.6c2.5-2.7,3-6.9,1.1-9.6c-3.4,3-6.6,6.4-9.5,10C61.9,201.5,65.5,201.3,68.1,198.6z"/>
			<path class="st16" d="M60,208.8c2.1-3.1,1.9-7.3-0.5-9.4c-2.9,3.6-5.5,7.5-7.9,11.5C54.1,212.9,57.8,212,60,208.8z"/>
			<path class="st16" d="M53.5,220.2c1.6-3.5,0.7-7.5-2-9c-2.3,4-4.4,8.3-6.2,12.7C48.2,225.4,51.8,223.7,53.5,220.2z"/>
			<path class="st16" d="M48.7,232.5c1.1-3.7-0.4-7.5-3.5-8.4c-1.7,4.3-3.1,8.9-4.2,13.5c0,0,0.1,0,0.1,0
				C44.2,238.6,47.6,236.3,48.7,232.5z"/>
			<path class="st16" d="M45.8,245.5c0.6-3.9-1.6-7.2-4.8-7.5c0,0-0.1,0-0.1,0c-1,4.2-1.7,8.5-2.1,12.9c0,0.3,0,0.7-0.1,1
				c0.1,0,0.2,0,0.3,0.1C42.2,252.3,45.3,249.4,45.8,245.5z"/>
			<path class="st16" d="M44.8,258.6c0-3.9-2.6-6.8-5.9-6.4c-0.1,0-0.2,0-0.3,0.1c-0.4,4.7-0.4,9.4-0.2,14c0.1,0,0.2,0,0.3,0
				C42.1,266,44.8,262.5,44.8,258.6z"/>
			<path class="st16" d="M45.8,271.7c-0.6-3.8-3.6-6.1-6.9-5.1c-0.1,0-0.2,0.1-0.3,0.1c0.3,4.7,1,9.3,2,13.7c0.1,0,0.2,0,0.4-0.1
				C44.1,279.4,46.3,275.5,45.8,271.7z"/>
			<path class="st16" d="M48.7,284.3c-1.1-3.6-4.6-5.3-7.8-3.6c-0.1,0.1-0.2,0.2-0.3,0.2c1,4.5,2.4,8.9,4.1,13.1
				c0.1-0.1,0.3-0.1,0.4-0.1C48.2,292.2,49.8,288,48.7,284.3z"/>
			<path class="st16" d="M53.6,296.1c-1.7-3.3-5.5-4.2-8.4-2c-0.1,0.1-0.2,0.2-0.3,0.3c1.7,4.3,3.8,8.3,6.2,12.1
				c0.1-0.1,0.3-0.1,0.4-0.2C54.3,304,55.3,299.5,53.6,296.1z"/>
			<path class="st16" d="M60.3,306.6c-2.3-2.9-6.2-3-8.8-0.1c-0.1,0.1-0.2,0.3-0.3,0.4c2.4,3.8,5.2,7.4,8.2,10.6
				c0.1-0.1,0.2-0.2,0.4-0.3C62.4,314.3,62.7,309.6,60.3,306.6z"/>
			<path class="st16" d="M68.9,315.6c-2.8-2.4-6.8-1.6-8.9,1.8c-0.1,0.1-0.1,0.3-0.2,0.4c3.1,3.2,6.5,6.1,10.1,8.6
				c0.1-0.1,0.2-0.2,0.3-0.3C72.3,322.7,71.7,318,68.9,315.6z"/>
			<path class="st16" d="M79.1,322.5c-3.2-1.7-7.1,0-8.7,3.8c-0.1,0.1-0.1,0.3-0.1,0.4c3.7,2.5,7.6,4.6,11.7,6.2
				c0-0.1,0.1-0.2,0.1-0.3C83.7,328.7,82.3,324.2,79.1,322.5z"/>
			<path class="st16" d="M90.4,326.9c-3.6-0.9-7.1,1.7-8,5.8c0,0.1,0,0.2,0,0.3c4.1,1.6,8.4,2.7,13,3.3c0-0.1,0-0.1,0.1-0.2
				C96.3,332,94,327.8,90.4,326.9z"/>
			<path class="st16" d="M102.6,328.5c-3.7,0-6.8,3.4-6.9,7.8c0,0,0,0.1,0,0.1c0.7,0.1,1.4,0.2,2.1,0.3c3.9,0.4,7.7,0.3,11.5,0
				c0-0.1,0-0.2,0-0.3C109.4,332,106.3,328.5,102.6,328.5z"/>
			<path class="st16" d="M115.3,327.2c-3.8,0.8-6.3,4.9-5.6,9.2c0,0,0,0.1,0,0.1c4.7-0.5,9.3-1.5,13.8-3c0,0,0-0.1,0-0.1
				C122.8,329.2,119.1,326.4,115.3,327.2z"/>
			<path class="st16" d="M127.7,322.9c-3.6,1.7-5.4,6.3-3.9,10.4c0,0,0,0.1,0,0.1c4.6-1.6,9-3.7,13.3-6.2c0,0,0-0.1,0-0.1
				C135.6,323.1,131.4,321.2,127.7,322.9z"/>
			<path class="st16" d="M139.4,315.8c-3.3,2.5-4.2,7.5-1.9,11.1c0,0,0,0.1,0.1,0.1c4.3-2.6,8.3-5.6,12.1-9.1c0,0,0-0.1-0.1-0.1
				C147.3,314.2,142.7,313.3,139.4,315.8z"/>
			<path class="st16" d="M149.8,306.2c-2.8,3.2-2.9,8.2,0,11.4c0,0,0.1,0.1,0.1,0.1c3.8-3.5,7.3-7.4,10.5-11.6c0,0-0.1-0.1-0.1-0.2
				C157.3,302.9,152.6,303,149.8,306.2z"/>
			<path class="st16" d="M158.4,294.5c-2.3,3.7-1.4,8.7,2,11.2c0.1,0,0.1,0.1,0.2,0.1c3.1-4.2,5.9-8.7,8.4-13.6
				c-0.1-0.1-0.1-0.1-0.2-0.2C165.4,289.7,160.7,290.8,158.4,294.5z"/>
			<path class="st16" d="M156,199.6c2.4,3.1,7,3.3,10.2,0.3c0.1-0.1,0.2-0.2,0.3-0.3c-2.6-4-5.6-7.7-8.9-11
				c-0.1,0.1-0.2,0.1-0.3,0.2C154.1,191.7,153.5,196.5,156,199.6z"/>
			<path class="st16" d="M147,190.3c2.9,2.4,7.4,1.7,10.1-1.7c0.1-0.1,0.1-0.2,0.2-0.3c-3.3-3.3-6.9-6.1-10.7-8.5
				c0,0-0.1,0.1-0.1,0.1C143.9,183.3,144.1,187.9,147,190.3z"/>
			<path class="st16" d="M136.7,183.5c3.3,1.7,7.6,0,9.6-3.8c0,0,0-0.1,0.1-0.1c-3.8-2.4-7.8-4.3-12-5.8
				C132.3,177.5,133.4,181.9,136.7,183.5z"/>
			<path class="st16" d="M125.3,179.3c3.5,0.9,7.4-1.6,8.7-5.6c-4.1-1.4-8.4-2.4-12.8-2.9C120,174.7,121.8,178.5,125.3,179.3z"/>
			<path class="st16" d="M113.3,177.9c3.6,0,6.9-3.1,7.5-7.1c-3.1-0.3-6.3-0.4-9.6-0.2c-1.2,0.1-2.4,0.2-3.6,0.3
				C107.3,174.8,109.8,177.9,113.3,177.9z"/>
		</g>
	</g>
	<path class="st17" d="M103.6,328.8c-5.5-0.1-10.5-3.4-13.7-9c-1.7-3-3.6-8.1-3.7-15.8c-6.4,6.6-12.1,7.7-15.1,7.7
		c-7.5,0-13.6-6-14.8-14.7c-0.9-6.5,0.8-14.5,6.9-22.3c-5.5-0.1-10-2-13.3-5.4c-3.3-3.5-5.1-8.5-4.8-13.7
		c0.4-9.5,7.2-19.5,19.8-21.1c-5.3-7-6.4-14.6-5.1-20.8c1.8-8.3,8.1-14.7,15.3-15.5c2.9-0.3,8.5,0.1,14.4,5.8
		c0.6-7.1,2.7-12.1,4.5-15c3.3-5.5,8.3-9.1,13.6-9.7c5.4-0.7,10.3,1.8,13.5,6.7c1.8,2.7,3.8,7.3,4,14.7c6.6-7.1,12.7-8.7,15.9-9.1
		c8.3-0.9,15.4,4.5,17.1,13.3c1.3,6.6-0.5,15.2-7.3,23.7c6.4-0.1,11.9,1.7,16,5.3c4.2,3.7,6.6,9.2,6.6,15c0,10.7-8.1,21.9-23.3,23.1
		c6.6,8,8.2,16.8,6.8,23.8c-1.9,9.4-9.3,16.1-17.9,16.1c-3.4,0-9.8-1.1-16.3-8c-0.5,7.8-2.8,13-4.8,16.1
		C114.4,325.6,109.2,328.8,103.6,328.8z"/>
	<path class="st18" d="M115.8,225.2c22.1-59-36.3-51.7-18.7,1.4c-17.6-53.1-57.5-3.4-13.4,16.1C39.6,223.2,36.5,289,83,264.3
		c-46.5,24.6-9.4,73.7,12.5,15.1c-21.9,58.6,39.1,60.2,19-0.5c20.1,60.7,67.9,7.2,14.1-16.5c53.7,23.7,54.2-50.9,0.5-22.5
		C182.8,211.5,137.9,166.2,115.8,225.2z"/>
	<path class="st16" d="M105.8,246.9c-4.4,0.3-9.6-8.8-9.4-16.5c0.1-4.3,5.2-18.1,10.4-30.5c4.7,11.5,9.3,24.6,9.3,28.9
		C115.9,236.6,110.2,246.6,105.8,246.9z"/>
	<path class="st16" d="M97.5,250.6c-4.4,0.3-9.9-2-12.8-5.2c-2.6-2.8-7.1-15.6-10.8-27.3c10.5,3.6,22.1,8.2,24.7,11.1
		c2.2,2.4,4.1,6.6,4.8,10.7c0.6,3.9,0.1,7.2-1.3,8.8C100.9,250.1,98.9,250.5,97.5,250.6z"/>
	<path class="st16" d="M85.2,264.4c-3.8,0.2-15.3-4.6-25.4-9.4c10.4-6,22.2-12,26-12.3c6.8-0.5,15,5,14.9,9.9
		C100.6,257.6,92,264.1,85.2,264.4z"/>
	<path class="st16" d="M71.7,291.2c4.4-12.6,9.9-26.2,12.6-29.4c3.1-3.6,8.8-6.5,13.2-6.7c1.5-0.1,3.4,0.1,4.6,1.3
		c1.4,1.5,1.7,4.8,0.9,8.8c-0.9,4.3-3,8.8-5.4,11.5C94.8,280,82.7,286.2,71.7,291.2z"/>
	<path class="st16" d="M104.4,306.4c-4.7-12.5-9.3-26.3-9.2-30.7c0.2-7.8,5.8-17.6,10.3-17.9c4.5-0.2,9.8,9.2,9.7,17.1
		C115.1,279.5,109.8,293.7,104.4,306.4z"/>
	<path class="st16" d="M140,289.6c-11.9-4.7-24.5-10.3-27.3-13.3c-2.3-2.6-4.3-7-4.9-11.2c-0.6-4-0.2-7.3,1.3-8.9
		c1.2-1.4,3.3-1.8,4.8-1.9c4.6-0.3,10.4,2.1,13.6,5.5C130.3,262.7,135.6,276.5,140,289.6z"/>
	<path class="st16" d="M126.4,262.4c-7.2,0.3-15.9-5.4-15.8-10.3c0.1-5,8.9-11.6,16.1-12.1c4.1-0.3,17,4.5,28.8,9.5
		C143.6,255.9,130.5,262.2,126.4,262.4z"/>
	<path class="st16" d="M113.9,249.6c-1.5,0.1-3.5-0.1-4.7-1.3c-1.4-1.5-1.7-4.7-0.9-8.7c0.9-4.3,3-8.8,5.4-11.6
		c2.9-3.3,15.4-10.2,27.2-16c-4.6,13.1-10.3,27.2-13.2,30.6C124.4,246.3,118.5,249.3,113.9,249.6z"/>
	<path class="st16" d="M119.1,265.2c1.3,3.7-0.5,10.6-4.9,12.7c-4.4,2-9.6-1.5-10.8-5.2c-1.2-3.7,2.2-20.3,2.2-20.3
		S117.9,261.5,119.1,265.2z"/>
	<path class="st16" d="M124.1,250.1c3.4,1.4,6.5,7.4,4.5,12.3c-2,4.9-8.3,6.7-11.6,5.2c-3.3-1.5-11.3-15.2-11.3-15.2
		S120.8,248.7,124.1,250.1z"/>
	<path class="st16" d="M118.1,236.4c3.4-1.7,9.5-0.3,11.2,4.4c1.7,4.7-1.9,10.9-5.3,12.5c-3.5,1.7-18.3-1-18.3-1
		S114.7,238.1,118.1,236.4z"/>
	<path class="st16" d="M105,232.3c1.5-3.7,7-7.5,11.1-5.9c4.2,1.7,5.5,8.3,4,12.1c-1.5,3.8-14.5,13.8-14.5,13.8
		S103.5,236.1,105,232.3z"/>
	<path class="st16" d="M92.6,239.9c-1.2-3.6,0.6-10.2,4.8-12.3c4.2-2.1,9.3,1,10.5,4.6c1.2,3.6-2.2,20.2-2.2,20.2
		S93.8,243.5,92.6,239.9z"/>
	<path class="st16" d="M87.8,254.6c-3.1-1.4-5.9-7.1-4-11.7c1.9-4.7,7.7-6.6,10.9-5.2c3.2,1.3,11,14.8,11,14.8S90.9,256,87.8,254.6z
		"/>
	<path class="st16" d="M93.3,268.1c-3.3,1.6-9.1,0-10.5-4.6c-1.5-4.6,1.9-10.5,5.1-12.1c3.3-1.6,17.7,0.9,17.7,0.9
		S96.6,266.5,93.3,268.1z"/>
	<path class="st16" d="M106.3,272.7c-1.5,3.8-7,7.4-11.1,5.5c-4.1-1.9-5.2-8.6-3.7-12.3c1.5-3.7,14.2-13.5,14.2-13.5
		S107.8,268.9,106.3,272.7z"/>
	<path class="st19" d="M107.4,257.6c4.4,3.6,8.5,7.4,9.1,8.9c0.8,2.3-0.4,7.2-3.2,8.5c-2.8,1.3-6.5-1.3-7.3-3.6
		C105.6,270,106.3,263.8,107.4,257.6z"/>
	<path class="st19" d="M110.3,254.4c5.6-1.1,11.2-1.9,12.6-1.4c0.9,0.4,2.1,1.5,2.8,3.4c0.7,1.7,0.8,3.5,0.3,4.8
		c-0.7,1.7-2.2,2.6-3.1,3c-1.9,0.9-3.8,0.9-4.8,0.5C116.9,264,113.5,259.4,110.3,254.4z"/>
	<path class="st19" d="M119.1,239.2c2.1-1,6.5-0.1,7.5,2.9c1.1,3-1.5,7.4-3.7,8.4c-1.4,0.6-6.9,0.2-12.5-0.5
		C114,244.8,117.8,239.9,119.1,239.2z"/>
	<path class="st19" d="M111.1,229.8c0.8-0.4,2.4-1,3.9-0.4c1.2,0.5,2.1,1.8,2.6,3.5c0.5,1.9,0.4,3.7,0,4.7c-0.7,1.4-5.1,5.6-9.7,9.4
		c-0.6-6.1-0.9-12.1-0.3-13.6C107.9,232.3,109.3,230.8,111.1,229.8z"/>
	<path class="st19" d="M98.3,230.3c2.7-1.4,6.3,1,7.1,3.2c0.4,1.4-0.3,7.5-1.4,13.6c-4.3-3.5-8.3-7.2-8.8-8.5
		C94.4,236.4,95.6,231.7,98.3,230.3z"/>
	<path class="st19" d="M89,241c1.8-0.9,3.6-0.9,4.5-0.5c1.2,0.6,4.5,5.1,7.5,9.9c-5.5,1.1-10.8,1.9-12.1,1.4
		c-0.8-0.4-1.9-1.5-2.6-3.2c-0.6-1.6-0.7-3.3-0.2-4.6C86.8,242.3,88.2,241.4,89,241z"/>
	<path class="st19" d="M88.8,254.2c1.3-0.6,6.6-0.2,12,0.5c-3.5,5.1-7.1,9.9-8.4,10.6c-2,1-6.2,0-7.1-3
		C84.3,259.4,86.8,255.2,88.8,254.2z"/>
	<path class="st19" d="M103.5,257.7c0.6,6.2,0.8,12.3,0.3,13.8c-0.4,1-1.7,2.6-3.6,3.5c-0.8,0.4-2.4,0.9-3.8,0.3
		c-1.1-0.5-2.1-1.9-2.5-3.6c-0.5-1.9-0.3-3.7,0.1-4.6C94.5,265.6,98.8,261.6,103.5,257.7z"/>
	<path class="st16" d="M98.6,255.8c-1.4-4.2,0.6-9.2,4.5-11.1c3.9-1.9,8.3-0.1,9.7,4.2c1.5,4.3-0.6,9.3-4.6,11.2
		C104.3,262,100,260.1,98.6,255.8z"/>
	<path class="st3" d="M100.7,255.5c-1.3-2.9-0.2-6.6,2.5-8.3c2.7-1.7,6-0.8,7.3,2.1c1.4,2.9,0.2,6.7-2.5,8.4
		C105.3,259.4,102.1,258.4,100.7,255.5z"/>
	<path class="st20" d="M92.7,231.9c-0.1,2.6-2,4.8-4.3,5c-2.3,0.2-4.1-1.8-4-4.4c0.1-2.6,2-4.8,4.3-5
		C90.9,227.4,92.7,229.3,92.7,231.9z"/>
	<path class="st20" d="M110.6,222.6c-0.1,2.6-2,4.9-4.4,5.1c-2.4,0.2-4.2-1.8-4.2-4.4c0.1-2.6,2-4.9,4.4-5.1
		C108.8,218,110.7,220,110.6,222.6z"/>
	<path class="st20" d="M83.6,252.9c-0.1,2.6-2,4.8-4.3,5c-2.3,0.1-4-1.9-4-4.5c0.1-2.6,2-4.8,4.2-4.9
		C81.9,248.3,83.7,250.3,83.6,252.9z"/>
	<path class="st20" d="M91.5,273.1c-0.1,2.7-2,4.9-4.4,5c-2.3,0.1-4.1-2-4.1-4.6c0.1-2.6,2-4.9,4.3-5
		C89.7,268.4,91.5,270.5,91.5,273.1z"/>
	<path class="st20" d="M121.2,229.7c0,2.7,1.9,4.7,4.4,4.5c2.5-0.2,4.5-2.5,4.5-5.2c0-2.7-1.9-4.7-4.4-4.5
		C123.3,224.7,121.3,227,121.2,229.7z"/>
	<path class="st20" d="M129.9,250.2c0,2.7,2,4.8,4.5,4.7c2.5-0.1,4.6-2.5,4.6-5.2c0-2.7-2-4.8-4.5-4.7
		C132,245.2,130,247.5,129.9,250.2z"/>
	<path class="st20" d="M120.6,272c0,2.7,1.9,4.9,4.4,4.8c2.5-0.1,4.6-2.4,4.6-5.1c0-2.7-1.9-4.9-4.4-4.8
		C122.7,267,120.7,269.3,120.6,272z"/>
	<path class="st20" d="M109.4,282.2c-0.1,2.7-2.1,5-4.5,5c-2.4,0.1-4.3-2.1-4.2-4.8c0.1-2.7,2.1-4.9,4.5-5
		C107.5,277.4,109.4,279.5,109.4,282.2z"/>
	<path class="st21" d="M63.8,190.3c1.1,5.8,4.9,7,8,7c4,0,8.5-2.1,12.1-5.7c4-4,5.8-9.3,4.8-14.1c-0.6-3-2.3-5.3-4.4-6.2
		c-0.3-0.1-0.8-0.2-1.4-0.2c-3.8,0-10.8,3.5-15.5,9C65.8,182.2,63.1,186.2,63.8,190.3"/>
	<path class="st21" d="M208.8,342.5l-0.1-0.4c-0.3-1.4-0.7-2.7-1.1-4.2c-3.5-12.7-20.3-37.9-33.1-37.9c-2,0-3.8,0.6-5.6,1.8
		c-11.2,7.5-9,21-4.2,40.8c1.2,4.9,2.4,10,3.1,14.7c0.9,6.1,0.7,13,0.5,19.6c-0.3,10.3-0.7,21,3.7,25.6c1.9,2,5,3,9.3,3
		c1.2,0,2.4-0.1,3.5-0.2c0.3,0,0.7-0.1,1-0.2c0.8-0.1,1.6-0.3,2.3-0.5c0.3-0.1,0.7-0.2,1-0.3c0.8-0.2,1.5-0.5,2.2-0.8
		c0.2-0.1,0.4-0.2,0.6-0.3c0.9-0.4,1.8-0.9,2.6-1.4l0.2-0.2c0.7-0.5,1.4-0.9,2-1.5c0.2-0.1,0.4-0.3,0.5-0.5c0.5-0.4,1-0.9,1.5-1.4
		l0.5-0.5c0.5-0.6,1-1.1,1.5-1.7l0.2-0.2c0.5-0.7,1-1.3,1.5-2l0.3-0.5c0.3-0.5,0.6-1,0.9-1.5c0.1-0.2,0.3-0.5,0.4-0.7
		c0.2-0.4,0.4-0.8,0.6-1.2c0.1-0.3,0.2-0.5,0.4-0.8c0.2-0.4,0.3-0.7,0.4-1c0.3-0.7,0.6-1.4,0.8-2l0-0.1c0.2-0.5,0.3-0.9,0.4-1.3
		c0.5-1.8,0.8-3,0.8-3.2c0-0.2,0.1-0.4,0.1-0.6c3.6-11.3,5-20.7,2.1-34.7C209.4,345.1,209.2,343.8,208.8,342.5"/>
	<path class="st21" d="M14.8,304.1c-3.6,4.4-4.8,10.6-3.4,17.5c3.6,17.5,34.8,51.5,55.9,56.6c1.6,0.4,3.1,0.6,4.3,0.6
		c3.3,0,4.5-1.3,5.2-2.3c2.6-3.9,1.1-12.5-0.9-17.2C70,346,51.5,311,42.2,303.8c-4.7-3.6-9.8-5.5-14.7-5.5
		C22.4,298.2,17.8,300.3,14.8,304.1"/>
	<path class="st16" d="M187.3,173.2c2.2,5.6,3.8,13.4,4.8,19.3c6.4-1.4,13.1-2.9,19.9-3.7l-4.2-5.6l-2.1-2.8l1.6-3.1l4.3-8.3
		l-9.9-4.4l-5.2-2.3l2.5-5.2l1.5-3.1c-7.5,1-14.9,3-21.6,5.7C181.9,163.5,185.3,168.3,187.3,173.2z"/>
	<path class="st0" d="M167.4,196.1c-7.5-0.8-13.6-4.5-15.1-9.1c-1.4-4.5,1.5-10.3,8.3-16.3c3.8-3.3,8.1-6.2,12.9-8.6
		c-2.5-3-4.6-5.1-5-5.4c-4.7,2.5-9,5.3-12.7,8.6c-11.6,10.2-12.1,18.6-10.4,23.8c2.4,7.4,10.7,12.9,21.1,14
		c5.7,0.6,12.8-0.7,20.9-2.4c-0.1-1-0.5-3.7-1-7.1C179,195.3,172.2,196.6,167.4,196.1z"/>
	<path class="st6" d="M173.6,162.1c-4.8,2.4-9.2,5.3-12.9,8.6c-6.8,6-9.8,11.8-8.3,16.3c1.5,4.7,7.5,8.3,15.1,9.1
		c4.8,0.5,11.7-0.8,19.2-2.4c-0.9-5.6-2.4-13.2-4.5-18.4C180.1,170.4,176.6,165.6,173.6,162.1z"/>
	<path class="st5" d="M323.2,95.8c-14.2,0-34.5-0.1-47.1-1.1c-1.1-0.1-2.1-0.1-2.7,0c0.9,1.5,3.2,4.2,6.8,7.2l0.9,0.8
		c24.7,21.1,43.4,25.5,54.6,25.5h0c4,0,7.9-0.6,11.6-1.7c17.4-5.2,28.1-16,32.3-24.3c1.6-3.1,1.9-5.2,1.9-6.1
		c-2.4-0.2-8.5-0.4-18.3-0.4c-5.2,0-11.2,0-17.5,0.1C338.5,95.8,330.8,95.8,323.2,95.8"/>
	<path class="st1" d="M174.5,299.9c-2,0-3.8,0.6-5.6,1.8c-11.2,7.5-9,21-4.2,40.8c1.2,4.9,2.4,10,3.1,14.7c0.9,6.1,0.7,13,0.5,19.6
		c-0.3,10.3-0.7,21,3.7,25.6c1.9,2,5,3,9.3,3c13.7,0,20.5-9.1,23.7-16.1c0.2-0.4,0.3-0.7,0.5-1c0,0,0,0,0,0c0.1-0.3,0.3-0.7,0.4-1
		c0,0,0,0,0,0c0.1-0.3,0.2-0.6,0.3-0.9c0,0,0-0.1,0-0.1c0.1-0.3,0.2-0.5,0.3-0.8c0,0,0-0.1,0-0.1c0.1-0.2,0.1-0.5,0.2-0.7
		c0,0,0-0.1,0-0.1c0.1-0.2,0.1-0.4,0.2-0.6c0-0.1,0-0.1,0-0.1c0-0.2,0.1-0.4,0.1-0.5c0,0,0-0.1,0-0.1c0-0.2,0.1-0.3,0.1-0.5
		c0.1-0.6,0.2-1,0.2-1.1c0-0.2,0.1-0.4,0.1-0.6c4.2-13.4,5.5-24.2,0-43.1C204.1,325.2,187.3,299.9,174.5,299.9z"/>
	<path class="st1" d="M60.9,152.5c-0.3,0.1-0.4,0.2-0.4,0.2c0,0,0.2,0.4,1,0.9c1.4,1,7.3,3.7,23.3-0.5c-0.5-3.7-0.3-8.3,1.3-13.8
		C76.8,145.8,66.3,151.3,60.9,152.5z"/>
	<path class="st1" d="M210.6,146.1c0.1,0,0.2,0,0.3,0c0.3,0,0.6,0,0.8-0.1c8.6-0.2,17.3,0.7,25.4,2.7c0.4-1.5,0.6-3,0.7-4
		c-5.6-3.4-25.4-15.5-31-19.1C206.6,128.2,207,134.3,210.6,146.1C210.6,146.1,210.6,146.1,210.6,146.1z"/>
	<path class="st1" d="M60.9,152.5c-0.3,0.1-0.4,0.2-0.4,0.2c0,0,0.2,0.4,1,0.9c1.4,1,7.3,3.7,23.3-0.5c-0.5-3.7-0.3-8.3,1.3-13.8
		C76.8,145.8,66.3,151.3,60.9,152.5z"/>
	<path class="st1" d="M174.5,299.9c-2,0-3.8,0.6-5.6,1.8c-11.2,7.5-9,21-4.2,40.8c1.2,4.9,2.4,10,3.1,14.7c0.9,6.1,0.7,13,0.5,19.6
		c-0.3,10.3-0.7,21,3.7,25.6c1.9,2,5,3,9.3,3c13.7,0,20.5-9.1,23.7-16.1c0.2-0.4,0.3-0.7,0.5-1c0,0,0,0,0,0c0.1-0.3,0.3-0.7,0.4-1
		c0,0,0,0,0,0c0.1-0.3,0.2-0.6,0.3-0.9c0,0,0-0.1,0-0.1c0.1-0.3,0.2-0.5,0.3-0.8c0,0,0-0.1,0-0.1c0.1-0.2,0.1-0.5,0.2-0.7
		c0,0,0-0.1,0-0.1c0.1-0.2,0.1-0.4,0.2-0.6c0-0.1,0-0.1,0-0.1c0-0.2,0.1-0.4,0.1-0.5c0,0,0-0.1,0-0.1c0-0.2,0.1-0.3,0.1-0.5
		c0.1-0.6,0.2-1,0.2-1.1c0-0.2,0.1-0.4,0.1-0.6c4.2-13.4,5.5-24.2,0-43.1C204.1,325.2,187.3,299.9,174.5,299.9z"/>
	<path class="st1" d="M150,84.9c1.3,0.4,2.2,1,2.8,1.5c0.6,0.4,0.8,0.6,1.3,0.6c0.9,0.1,1.9-0.5,3.7-1.6c2.4-1.5,5.8-3.6,11.1-4.3
		c10.9-1.3,45.5,0.1,64.7,3.3c7.9,1.3,14.4,2.5,19.5,3.5c6.4,1.2,11.4,2.2,13,2c0.2,0,0.4,0,0.6,0c0,0,0.2,0,0.5,0
		c-0.1,0.1-0.2,0.3-0.3,0.4c0.2-0.2,0.3-0.4,0.5-0.6c1.6-1,4.6-1.7,8.5-1.9c1.5-0.9,2.9-1.9,4-3.3c5.3-6.6,37.7-63.7,37.7-63.7
		s-17.1-2.2-23.8,3.9c-0.6,0.5-1.1,1.2-1.5,1.8c0,0-2-0.6-4.8-0.8c-3.7-0.2-8.6,0.3-11.7,4c-0.2,0.2-0.4,0.5-0.6,0.7
		c0,0-2.5-0.6-5.6-0.2c-3.6,0.5-8.1,2.3-10.9,7.8c-1,2-2.5,5.1-4.2,8.8c-19.2-5.2-45-9.7-53.6-11.6c-14-3.1-19.1-7.4-31.3-19.5
		c-12.3-12.1-20.8,1.6-20.8,1.6s-5.7,14.3-13.1,22.1c-7.4,7.7-13.8,12.4-19.7,24.5c-2.1,4.4,4.4,21.1,8,29.7
		c0.1,0.1,0.1,0.2,0.1,0.2c0,0,0,0,0,0c0,0,0,0,0,0c6.2-3.7,17.7-9.4,22.7-9.6C148.2,84.5,149.2,84.7,150,84.9z"/>
	<path class="st1" d="M266.6,90.7c0,0.1-0.1,0.1-0.1,0.2c0,0,0,0,0,0C266.6,90.8,266.6,90.7,266.6,90.7z"/>
	<path class="st1" d="M210.6,146.1c0.1,0,0.2,0,0.3,0c0.3,0,0.6,0,0.8-0.1c8.6-0.2,17.3,0.7,25.4,2.7c0.4-1.5,0.6-3,0.7-4
		c-5.6-3.4-25.4-15.5-31-19.1C206.6,128.2,207,134.3,210.6,146.1C210.6,146.1,210.6,146.1,210.6,146.1z"/>
	<path class="st0" d="M123.2,94.7c0.3-0.2,0.6-0.4,1-0.6c0,0,0,0,0,0C123.8,94.3,123.5,94.5,123.2,94.7z"/>
	<path class="st0" d="M124.1,93.9c0,0.1,0.1,0.2,0.1,0.3c0,0,0,0,0,0C124.2,94,124.1,94,124.1,93.9z"/>
	<polygon class="st0" points="335.2,146.1 335.2,146.1 335.2,146.1 	"/>
	<path class="st1" d="M84.3,171.3c-0.3-0.1-0.8-0.2-1.4-0.2c-3.8,0-10.8,3.5-15.5,9c-1.7,2-4.4,6.1-3.6,10.2c1.1,5.8,4.9,7,8,7
		c4,0,8.5-2.1,12.1-5.7c4-4,5.8-9.3,4.8-14.1C88.1,174.5,86.5,172.2,84.3,171.3z"/>
	<path class="st1" d="M210.6,146.1c0.1,0,0.2,0,0.3,0c0.3,0,0.6,0,0.8-0.1c8.6-0.2,17.3,0.7,25.4,2.7c0.4-1.5,0.6-3,0.7-4
		c-5.6-3.4-25.4-15.5-31-19.1C206.6,128.2,207,134.3,210.6,146.1C210.6,146.1,210.6,146.1,210.6,146.1z"/>
	<path class="st1" d="M60.9,152.5c-0.3,0.1-0.4,0.2-0.4,0.2c0,0,0.2,0.4,1,0.9c1.4,1,7.3,3.7,23.3-0.5c-0.5-3.7-0.3-8.3,1.3-13.8
		C76.8,145.8,66.3,151.3,60.9,152.5z"/>
	<path class="st1" d="M14.8,304.1c-3.6,4.4-4.8,10.6-3.4,17.5c3.6,17.5,34.8,51.5,55.9,56.6c1.6,0.4,3.1,0.6,4.3,0.6
		c3.3,0,4.5-1.3,5.2-2.3c2.6-3.9,1.1-12.5-0.9-17.2C70,346,51.5,311,42.2,303.8c-4.7-3.6-9.8-5.5-14.7-5.5
		C22.4,298.2,17.8,300.3,14.8,304.1z"/>
	<path class="st1" d="M274.5,96.2c1.2,1.5,3.1,3.5,5.7,5.6l0.9,0.8c24.7,21.1,43.4,25.5,54.6,25.5h0c4,0,7.9-0.6,11.6-1.7
		c14.1-4.2,23.7-12.1,29.1-19.3c1.2-1.7,2.2-3.3,3-4.9c1.6-3.1,1.9-5.2,1.9-6.1c-2.4-0.2-8.5-0.4-18.3-0.4c-5.2,0-11.2,0-17.5,0.1
		c-7.2,0-14.9,0.1-22.5,0.1c-14.1,0-34.2-0.1-46.8-1.1c-0.7,0.3-1.4,0.6-2.1,0.8C274.2,95.8,274.4,96,274.5,96.2z"/>
	<path class="st1" d="M266.5,90.9c0-0.1,0.1-0.1,0.1-0.2C266.6,90.7,266.6,90.8,266.5,90.9C266.5,90.9,266.5,90.9,266.5,90.9
		C266.5,90.9,266.5,90.9,266.5,90.9C266.5,90.9,266.5,90.9,266.5,90.9z"/>
	<path class="st1" d="M130.3,90.7c6-3,13-6,16.5-6.2c1.3-0.1,2.3,0.1,3.1,0.3c1.3,0.4,2.2,1,2.8,1.5c0.6,0.4,0.8,0.6,1.3,0.6
		c0.9,0.1,1.9-0.5,3.7-1.6c2.4-1.5,5.8-3.6,11.1-4.3c10.9-1.3,45.5,0.1,64.7,3.3c7.9,1.3,14.4,2.5,19.5,3.5c6.4,1.2,11.4,2.2,13,2
		c0.2,0,0.4,0,0.6,0c0,0,0.2,0,0.5,0c-0.1,0.1-0.2,0.3-0.3,0.4c0.2-0.2,0.3-0.4,0.5-0.6c1.6-1,4.6-1.7,8.5-1.9c0,0,0.1,0,0.1,0
		c1.5-0.9,2.9-1.9,3.9-3.2c5.3-6.6,37.7-63.7,37.7-63.7s0,0,0,0c0,0,0,0,0,0s-17.1-2.2-23.8,3.9c-0.6,0.5-1.1,1.2-1.5,1.8
		c0,0-2-0.6-4.8-0.8c-3.7-0.2-8.6,0.3-11.7,4c-0.2,0.2-0.4,0.5-0.6,0.7c0,0-2.5-0.6-5.6-0.2c-3.6,0.5-8.1,2.3-10.9,7.8
		c-1,2-2.5,5.1-4.2,8.8c-19.2-5.2-45-9.7-53.6-11.6c-9.6-2.2-15-4.8-21.4-10.2c-2.9-2.5-6-5.5-9.9-9.2c-0.4-0.4-0.8-0.7-1.2-1.1
		c-11.7-10.2-19.7,2.7-19.7,2.7s-5.7,14.3-13.1,22.1c-7.4,7.7-13.8,12.4-19.7,24.5c-0.1,0.2-0.1,0.4-0.2,0.6c0,0,0,0.1,0,0.1
		c-0.1,0.2-0.1,0.5-0.1,0.7c0,0,0,0,0,0c-0.6,5.8,5,20.4,8.3,28.3c0,0,0,0,0,0c0,0,0,0,0,0c0.1,0,0.1,0.1,0.1,0.2c0,0,0,0,0,0
		c0,0,0,0,0,0c0,0,0,0,0,0c0,0,0,0,0,0c0,0,0,0,0,0c1.5-0.9,3.3-1.9,5.2-2.9C129.7,91.1,130,90.9,130.3,90.7z"/>
	<path class="st1" d="M173.6,162.1c-4.8,2.4-9.2,5.3-12.9,8.6c-6.8,6-9.8,11.8-8.3,16.3c1.5,4.7,7.5,8.3,15.1,9.1
		c4.8,0.5,11.7-0.8,19.2-2.4c-0.9-5.6-2.4-13.2-4.5-18.4C180.2,170.4,176.6,165.6,173.6,162.1z"/>
	<path class="st1" d="M205.7,180.4l1.6-3.1l4.3-8.3l-9.9-4.4l-5.2-2.3l2.5-5.2l1.5-3.1c-7.6,1-14.9,3-21.6,5.7
		c3,3.7,6.4,8.5,8.4,13.5c2.2,5.6,3.8,13.4,4.8,19.3c6.4-1.4,13.1-2.9,19.9-3.7l-4.2-5.6L205.7,180.4z"/>
	<path class="st1" d="M174.5,299.9c-2,0-3.8,0.6-5.6,1.8c-11.2,7.5-9,21-4.2,40.8c1.2,4.9,2.4,10,3.1,14.7c0.9,6.1,0.7,13,0.5,19.6
		c-0.3,10.3-0.7,21,3.7,25.6c1.9,2,5,3,9.3,3c13.7,0,20.5-9.1,23.7-16.1c0.2-0.4,0.3-0.7,0.5-1c0,0,0,0,0,0c0.1-0.3,0.3-0.7,0.4-1
		c0,0,0,0,0,0c0.1-0.3,0.2-0.6,0.3-0.9c0,0,0-0.1,0-0.1c0.1-0.3,0.2-0.5,0.3-0.8c0,0,0-0.1,0-0.1c0.1-0.2,0.1-0.5,0.2-0.7
		c0,0,0-0.1,0-0.1c0.1-0.2,0.1-0.4,0.2-0.6c0-0.1,0-0.1,0-0.1c0-0.2,0.1-0.4,0.1-0.5c0,0,0-0.1,0-0.1c0-0.2,0.1-0.3,0.1-0.5
		c0.1-0.6,0.2-1,0.2-1.1c0-0.2,0.1-0.4,0.1-0.6c4.2-13.4,5.5-24.2,0-43.1C204.1,325.2,187.3,299.9,174.5,299.9z"/>
	<path class="st0" d="M124.2,94.1C124.2,94.1,124.2,94.1,124.2,94.1C124.2,94.1,124.2,94.1,124.2,94.1
		C124.2,94.1,124.2,94.1,124.2,94.1z"/>
	<path class="st0" d="M124.2,94.1C124.2,94.1,124.2,94.1,124.2,94.1c-0.3,0.2-0.7,0.4-1,0.6C123.5,94.5,123.8,94.3,124.2,94.1
		C124.2,94.1,124.2,94.1,124.2,94.1C124.2,94.1,124.2,94.1,124.2,94.1C124.2,94.1,124.2,94.1,124.2,94.1z"/>
	<path class="st0" d="M266.1,91.7c0.1-0.3,0.2-0.6,0.4-0.8c0,0,0,0,0,0c-0.2,0.3-0.4,0.6-0.5,1c-0.2,0.6-0.7,1.8-0.1,3.7
		c0.1,0,0.1,0,0.2,0C265.5,93.6,265.9,92.3,266.1,91.7z"/>
	<path class="st0" d="M275.3,94.8c0.1,0,0.3-0.1,0.4-0.1c-1-0.1-1.8-0.1-2.3,0c0.2,0.3,0.4,0.6,0.7,1c0.7-0.2,1.4-0.5,2.1-0.8
		c-0.1,0-0.2,0-0.3,0C275.7,94.8,275.5,94.8,275.3,94.8z"/>
	<polygon class="st0" points="124.2,94.1 124.2,94.1 124.2,94.1 124.2,94.1 	"/>
	<path class="st0" d="M124.1,93.9C124.1,93.9,124.1,93.9,124.1,93.9c0.1,0.1,0.1,0.2,0.1,0.2C124.1,94,124.2,93.8,124.1,93.9
		C124.1,93.9,124.1,93.9,124.1,93.9z"/>
	<path class="st22" d="M254.3,401.8c-24.2,34.2-66.4,59.1-103.6,59.8c-21.4,0.4-38-7.7-47-22.8c-10.1-17-25.5-23.2-35.6-20.7
		c-6.7,1.7-10.6,7.3-10.9,15.8c-0.2,7.4,6.3,17.3,17.5,26.5c20.2,16.5,54.7,29.7,86.5,22.2c50.7-12,96.7-49.1,116.7-92.1l0.1-0.2
		c-6.9,3.1-13.7,5.3-20.3,6.9L254.3,401.8z"/>
	<path class="st0" d="M384.1,89.3c-1.7-0.4-5.8-0.7-20.9-0.7c-5.2,0-11.2,0-17.5,0.1c-7.2,0-14.8,0.1-22.5,0.1
		c-7.3,0-25.8-0.8-37.4-1c6.8-9.3,34.5-58.2,37.7-63.9c1.1-2,1.2-4.4,0.2-6.4c-1-2-3-3.4-5.2-3.7c-0.4,0-3.6-0.5-7.9-0.5
		c-9.3,0-16.3,1.9-20.7,5.6c-1.3-0.2-2.5-0.2-3.7-0.2c-5.4,0-10.1,1.5-13.5,4.5c-0.2,0-0.4,0-0.7,0c-8.5,0-15.5,4.3-19.3,11.8
		c-0.2,0.5-0.5,1-0.8,1.6l-1.1,2.2c-12.8-3.2-27.5-6.1-37.4-8c-4.4-0.9-8.5-1.7-10.9-2.2c-12.4-2.8-16.6-6.5-28-17.7
		c-4.7-4.6-9.7-7-14.9-7c-10.1,0-15.9,8.8-16.5,9.8c-0.2,0.3-0.4,0.7-0.5,1.1c-0.1,0.1-5.4,13.3-11.7,19.9c-1.5,1.6-3,3-4.4,4.5
		c-5.8,5.7-11.3,11.2-16.4,21.8c-2.6,5.4,0.1,17.5,8,35.9c0,0-0.1,0-0.1,0.1c-9.6,8-17.9,17.3-24.7,27.9c-9.4,9.3-27.6,19.6-33.6,21
		c-2.8,0.6-4.9,2.5-5.7,5.1c-0.8,2.6,0.1,5.4,2.2,7.5c1.9,2,6,4.4,14,4.4c4.3,0,9.9-0.7,16.8-2.6c1.7,3.9,4.3,6.9,6.9,8.9
		c-0.3,0.1-0.6,0.2-0.9,0.3c-1.5-2-3.5-3.6-5.7-4.5c-1.2-0.5-2.6-0.7-4-0.7c-6.6,0-15.4,4.9-21,11.6c-4.3,5.2-6.1,10.9-5.2,16
		c0.1,0.3,0.1,0.5,0.2,0.8c-0.3,0.3-0.6,0.5-0.7,0.7c-13.3,15.8-21.8,36.1-23.8,57.1c-1.4,14.7,0.3,29.5,5,42.8
		c-3.3-1.3-6.7-1.9-10-1.9c-7.2,0-13.8,3.1-18.2,8.5c-5,6.1-6.7,14.4-4.8,23.4c4.2,20.1,37.1,56.3,61.2,62.1c2.2,0.5,4.2,0.8,6,0.8
		c6.2,0,9.5-3,11.1-5.5c1.9-2.9,2.6-6.5,2.5-10.1c20.5,16.3,45.5,26.4,71.6,28.7c0.4,0,0.9,0.1,1.3,0.1c0.2,0,0.4,0,0.6,0
		c0.4,0,0.8-0.1,1.2-0.1c1,3.8,2.6,7.2,5.2,9.9c3.8,3.9,9.2,5.9,16.1,5.9c13.9,0,23-7,28.5-15c0.4-0.7,0.6-1,0.7-1.1
		c3.3,0.6,10.4,1.7,19.7,1.7c5,0,10.7-0.3,16.9-1.2c-0.2,0.2-0.3,0.5-0.5,0.7c-5.9,8.5-15.9,18.2-15.9,18.2
		c-22.8,21.6-52.9,35.9-80.1,36.4c-13.1,0.3-30.9-2.9-40.7-19.4c-11.9-20-30.9-27.2-43.5-23.9c-9.9,2.6-15.8,10.7-16.2,22.5
		c-0.3,9.8,7,21.5,20.1,32.2c17.2,14.1,44.4,25.9,72.1,25.9c6.9,0,13.8-0.7,20.6-2.3c55-13,104.6-54.5,124-101.8
		c0.3-0.9,0.6-1.8,0.9-2.5c2.2-1.3,4.4-2.7,6.6-4.2c31-21.4,50.4-59,57.6-111.9l-0.2,0l0.2-0.1l0.1-0.5l-3-0.9
		c-2.4-0.7-6.3-1.4-11-2c3.2-43.6-3.6-86.4-11.9-109.9c-3-8.5-6.6-16.5-10.5-23.9c7.9,2.7,14.6,3.5,19.9,3.5h0c4.7,0,9.3-0.7,13.6-2
		c15.7-4.7,26.2-13.3,32.4-21.4c4.8-6.3,7-12.4,7-16.2C388.6,92.4,386.9,89.9,384.1,89.3z M84.8,153.1c-15.9,4.3-21.8,1.5-23.3,0.5
		c-0.8-0.5-1-0.9-1-0.9c0,0,0.1-0.1,0.4-0.2c5.3-1.2,15.8-6.7,25.2-13.2C84.5,144.8,84.3,149.4,84.8,153.1z M115.7,65.6
		C115.7,65.6,115.7,65.5,115.7,65.6c0-0.3,0.1-0.5,0.1-0.8c0,0,0-0.1,0-0.1c0.1-0.2,0.1-0.4,0.2-0.6c5.8-12.1,12.3-16.8,19.7-24.5
		c7.4-7.7,13.1-22.1,13.1-22.1s8-12.9,19.7-2.7c0.4,0.3,0.8,0.7,1.2,1.1c3.8,3.8,7,6.8,9.9,9.2c6.4,5.4,11.8,8.1,21.4,10.2
		c8.5,1.9,34.4,6.4,53.6,11.6c1.7-3.7,3.2-6.8,4.2-8.8c2.8-5.6,7.3-7.4,10.9-7.8c3.2-0.4,5.6,0.2,5.6,0.2c0.2-0.3,0.4-0.5,0.6-0.7
		c3.1-3.7,8.1-4.3,11.7-4c2.7,0.2,4.8,0.8,4.8,0.8c0.4-0.7,0.9-1.3,1.5-1.8c6.7-6.2,23.8-3.9,23.8-3.9s0,0,0,0c0,0,0,0,0,0
		S285.3,78,279.9,84.6c-1.1,1.3-2.4,2.4-3.9,3.2c0,0-0.1,0-0.1,0c-4,0.2-7,0.9-8.5,1.9c-0.2,0.2-0.3,0.4-0.5,0.6
		c0.1-0.1,0.2-0.3,0.3-0.4c-0.3,0-0.4,0-0.5,0c-0.2,0-0.4,0-0.6,0c-1.7,0.2-6.7-0.8-13-2c-5.2-1-11.6-2.3-19.5-3.5
		c-19.2-3.1-53.9-4.6-64.7-3.3c-5.3,0.6-8.6,2.7-11.1,4.3c-1.8,1.1-2.8,1.7-3.7,1.6c-0.5-0.1-0.7-0.2-1.3-0.6
		c-0.6-0.5-1.5-1.1-2.8-1.5c-0.8-0.2-1.9-0.4-3.1-0.3c-3.6,0.1-10.6,3.1-16.5,6.2c-0.3,0.2-0.6,0.4-1,0.5c-1.9,1-3.7,2-5.2,2.9
		c0,0,0,0,0,0c-0.3,0.2-0.7,0.4-1,0.6c0.3-0.2,0.6-0.4,1-0.6c0,0,0,0,0,0c0,0,0,0,0,0l0,0c0,0,0,0,0,0c0,0,0,0,0,0
		c0-0.1,0-0.1-0.1-0.2c0,0,0,0,0-0.1c0,0,0,0,0,0C120.8,86,115.1,71.4,115.7,65.6z M67.5,180.1c4.6-5.6,11.6-9,15.5-9
		c0.6,0,1,0.1,1.4,0.2c2.1,0.9,3.8,3.2,4.4,6.2c1,4.8-0.8,10.1-4.8,14.1c-3.6,3.6-8.1,5.7-12.1,5.7c-3,0-6.9-1.2-8-7
		C63.1,186.2,65.8,182.2,67.5,180.1z M76.8,376.5c-0.6,1-1.9,2.3-5.2,2.3c-1.3,0-2.7-0.2-4.3-0.6c-21.1-5.1-52.3-39.1-55.9-56.6
		c-1.4-6.9-0.2-13.1,3.4-17.5c3.1-3.8,7.6-5.9,12.7-5.9c4.9,0,10,1.9,14.7,5.5C51.5,311,70,346,75.9,359.3c0.1,0.2,1.2,3.6,1.3,3.7
		C78.4,367.7,78.8,373.5,76.8,376.5z M155.4,344.7c1.2,4.9,2.3,9.6,3,13.9c0.8,5.3,0.6,11.7,0.4,17.9c-0.2,5.2-0.3,10.4,0.1,15.3
		c0,0,0,0-0.1,0c-0.6,0-1.3-0.1-1.9-0.2c-28.3-2.6-53.8-14.6-73.5-32.7c-0.2-0.5-1.2-3.5-1.3-3.4c-4.7-10.4-21.3-43.1-32.8-54.9
		c0,0,0.1,0,0.1-0.1c-0.5-0.6-1-1.2-1.4-1.8c-0.2-0.3-0.3-0.5-0.4-0.8c0,0,0-0.1-0.1-0.1c0.2,0.4,0.4,0.9,0.6,1.3
		c-6.8-14-9.9-30.7-8.2-48.2c0.6-6.2,1.8-12.2,3.4-17.9c2.7-9.2,6.6-17.8,11.6-25.6c0.3-0.5,0.7-1,1-1.5c0.4-0.5,0.7-1,1.1-1.6
		c1.1-1.6,2.3-3.2,3.6-4.8c2.7,3.1,6.6,4.9,11.3,4.9c5.9,0,12.2-2.8,17.2-7.8c5.7-5.7,8.2-13.4,6.7-20.6c-0.1-0.6-0.3-1.3-0.5-1.9
		c2.5-0.9,5-1.6,7.6-2.1c11.8-0.5,33.7-10.6,43.2-23.8c8.4,4.5,17.1,6.2,26,6.3c-1.2,0.6-2.4,1.3-3.4,2.1c0,0,0,0,0.1,0.1
		c-4.7,2.5-9,5.3-12.7,8.6c-11.6,10.2-12.1,18.6-10.4,23.8c2.4,7.4,10.7,12.9,21.1,14c5.7,0.6,12.8-0.7,20.9-2.4
		c0,0.3,0.1,0.5,0.1,0.5l28.3-5.8c6.1-0.6,12.1-0.6,17.6,0.5c18.9,3.9,32,14.4,51.1,31.5c4.1,12.4,6.2,25.4,6.2,38.6
		c0,4.7-0.3,9.5-0.8,14.1c-17.3-2-42.9-2.7-57.6,7.3c-7.4,5-12.7,8.9-16.9,12.1c-7.2,5.4-10.3,7.6-13.9,8.1
		c-7.5-9.5-17-17.3-27.2-17.3c-3.8,0-7.5,1.1-10.9,3.4C146,305.5,151,326.3,155.4,344.7z M201.7,164.6l9.9,4.4l-4.3,8.3l-1.6,3.1
		l2.1,2.8l4.2,5.6c-6.8,0.9-13.5,2.3-19.9,3.7c-1-5.9-2.5-13.7-4.8-19.3c-2-4.9-5.3-9.7-8.4-13.5c6.7-2.7,14-4.7,21.6-5.7l-1.5,3.1
		l-2.5,5.2L201.7,164.6z M182.1,175.3c2.1,5.2,3.6,12.8,4.5,18.4c-7.5,1.6-14.4,2.9-19.2,2.4c-7.5-0.8-13.6-4.5-15.1-9.1
		c-1.4-4.5,1.5-10.3,8.3-16.3c3.8-3.3,8.1-6.2,12.9-8.6C176.6,165.6,180.2,170.4,182.1,175.3z M207.5,381.6c0,0.1-0.1,0.5-0.2,1.1
		c0,0.1-0.1,0.3-0.1,0.5c0,0,0,0.1,0,0.1c0,0.2-0.1,0.3-0.1,0.5c0,0,0,0.1,0,0.1c-0.1,0.2-0.1,0.4-0.2,0.6c0,0,0,0.1,0,0.1
		c-0.1,0.2-0.1,0.4-0.2,0.7c0,0,0,0.1,0,0.1c-0.1,0.3-0.2,0.5-0.3,0.8c0,0,0,0.1,0,0.1c-0.1,0.3-0.2,0.6-0.3,0.9c0,0,0,0,0,0
		c-0.1,0.3-0.3,0.6-0.4,1c0,0,0,0,0,0c-0.1,0.3-0.3,0.7-0.5,1c-3.2,6.9-9.9,16.1-23.7,16.1c-4.3,0-7.3-1-9.3-3
		c-4.4-4.6-4.1-15.3-3.7-25.6c0.2-6.6,0.5-13.5-0.5-19.6c-0.7-4.7-1.9-9.8-3.1-14.7c-4.7-19.8-7-33.3,4.2-40.8
		c1.8-1.2,3.6-1.8,5.6-1.8c12.8,0,29.6,25.2,33.1,37.9c5.5,18.9,4.3,29.7,0,43.1C207.5,381.2,207.5,381.4,207.5,381.6z M278.2,390.5
		c-20,43-66,80.1-116.7,92.1c-31.8,7.5-66.4-5.7-86.5-22.2c-11.2-9.2-17.8-19-17.5-26.5c0.3-8.5,4.1-14.1,10.9-15.8
		c10-2.6,25.5,3.7,35.6,20.7c9,15.1,25.6,23.2,47,22.8c37.2-0.7,79.4-25.7,103.6-59.8l3.6-4.6c6.5-1.5,13.4-3.8,20.3-6.9
		L278.2,390.5z M344,274c-7.5,47.6-25.5,81.6-53.5,100.9c-30.6,21.1-64.9,18.5-76.4,16.9l0-0.1c1-2.5,1.9-6,2.6-8.1
		c4.6-14.7,6.1-27.4,0-48.3c-0.3-1-0.6-2.1-1.1-3.3c0.2-0.3-3.4-8.5-3.6-8.1c-1.6-3.1-3.5-6.4-5.7-9.7c4.1-1.4,8-4.3,13.7-8.6
		c4.2-3.1,9.4-7.1,16.6-11.9c20.7-13.9,69.6-3.4,70-3.3c2,0.4,4-0.8,4.4-2.8c0.4-2-0.8-4-2.8-4.4c-0.6-0.1-4.7-1-10.8-1.9
		c0.1-0.2,0.1-0.4,0.2-0.7l1-10.4C310.2,270.7,333.8,272.1,344,274z M319.6,158.1c8.8,25,14.5,66.4,11.6,106.8
		c-13.1-1.2-28.4-2-33.3-2.2c0-0.1,0-0.3,0-0.5c-0.2-5.9-0.7-10.5-1-12.8c-0.5-3.8-1.2-8.2-2.4-13c0.7,0.5,1.5,0.8,2.3,0.8
		c1,0,1.9-0.4,2.6-1.2c1.3-1.5,1.2-3.7-0.3-5l-2.8-2.5c-23.1-20.9-38.4-34.7-61.4-39.4c-5.4-1.1-11-1.3-16.6-0.9l-6.2-8.3l6.9-13.5
		l-15.2-6.8l3-6.2c13-0.9,26.3,0.7,37.9,5.3c1.8,0.7,3.9-0.2,4.6-2c0.7-1.8-0.2-3.9-2-4.6c-1.6-0.6-3.3-1.2-5-1.7
		c0.9-3.6,1-6.7,1-6.8l0.1-1.6l-1.4-0.8c-0.3-0.2-29-17.7-33.2-20.4c-2.7-1.8-4.7-0.7-5.4-0.2c-3.1,2.3-3.1,9.6,0.1,21.6
		c-18.2,5.6-38.6,9.8-56.9-1.5c-0.8-0.5-1.8-0.7-2.8-0.4c-0.9,0.2-1.7,0.9-2.2,1.7c-8.3,15.1-36.9,25-41.3,23
		c-2.7-1.2-6.3-4.4-7.9-9.7c-2.2-7.2,0-16.3,6.3-26.3c6-9.5,13.4-18,21.9-25.3c0.1-0.1,0.2-0.2,0.4-0.3c0.8-0.7,1.7-1.4,2.5-2.1
		c0.3-0.1,0.6-0.2,0.8-0.4c3.7-2.8,18.3-10.3,22.7-10.5c1.3,0,1.6,0.2,2.4,0.7c0.8,0.6,1.9,1.5,3.9,1.7c2.9,0.4,5.1-1,7.3-2.4
		c2.2-1.4,4.7-3,8.7-3.5c10.4-1.2,44.8,0.2,63.2,3.2c7.8,1.3,14.2,2.5,19.4,3.5c7.1,1.4,11.3,2.2,13.9,2.1c-0.5-1.9-0.1-3.1,0.1-3.7
		c0.1-0.3,0.3-0.7,0.5-1c0,0,0,0,0,0c0-0.1,0.1-0.1,0.1-0.2c0,0.1-0.1,0.1-0.1,0.2c0,0,0,0,0,0c-0.1,0.3-0.3,0.5-0.4,0.8
		c-0.2,0.6-0.7,1.9-0.1,3.9c-0.1,0-0.1,0-0.2,0c0.1,0.5,0.4,1.1,0.7,1.8c1.2,2.4,3.7,5.7,9,10.1l0.9,0.7c10.6,9,20.1,15.1,28.6,19.3
		C310.7,136.6,315.6,146.9,319.6,158.1z M206.9,125.8c5.6,3.6,25.4,15.6,31,19.1c-0.1,1-0.3,2.4-0.7,4c-8.2-2-16.8-2.9-25.4-2.7
		c-0.3,0-0.5,0.1-0.8,0.1c-0.1,0-0.2,0-0.3,0c0,0,0-0.1,0-0.1C207,134.3,206.6,128.2,206.9,125.8z M379.5,102.3
		c-0.8,1.6-1.8,3.2-3,4.9c-5.4,7.3-15.1,15.1-29.1,19.3c-3.7,1.1-7.6,1.7-11.6,1.7h0c-11.3,0-29.9-4.4-54.6-25.5l-0.9-0.8
		c-2.6-2.2-4.5-4.1-5.7-5.6c-0.2-0.2-0.3-0.4-0.4-0.6c-0.3-0.4-0.5-0.7-0.7-1c0.6,0,1.4,0,2.3,0c-0.1,0-0.3,0.1-0.4,0.1
		c0.2,0,0.5,0,0.7,0c0.1,0,0.2,0,0.3,0c12.6,1,32.7,1.1,46.8,1.1c7.7,0,15.3,0,22.5-0.1c6.3,0,12.3-0.1,17.5-0.1
		c9.8,0,16,0.1,18.3,0.4C381.4,97.1,381.1,99.2,379.5,102.3z"/>
	<path class="st16" d="M215.7,332c0.4,1.2,0.8,2.3,1.1,3.3c6.1,20.9,4.7,33.6,0,48.3c-0.7,2.1-1.6,5.6-2.6,8.1l0,0.1
		c11.5,1.7,45.7,4.3,76.4-16.9c28-19.4,46-53.3,53.5-100.9c-10.2-1.9-33.8-3.3-45.4-3.8l-1,10.4c0,0.2-0.1,0.5-0.2,0.7
		c6.1,0.9,10.2,1.8,10.8,1.9c2,0.4,3.3,2.4,2.8,4.4c-0.4,2-2.4,3.3-4.4,2.8c-0.5-0.1-49.4-10.6-70,3.3c-7.2,4.9-12.4,8.8-16.6,11.9
		c-5.7,4.3-9.6,7.2-13.7,8.6c2.2,3.3,4.1,6.6,5.7,9.7C212.3,323.5,215.8,331.7,215.7,332z"/>
	<path class="st9" d="M231.9,384.1C231.9,384.1,231.9,384.1,231.9,384.1c0.1-0.4,0.3-0.7,0.4-1c0,0,0,0,0,0c0.1-0.3,0.2-0.6,0.3-0.9
		c0,0,0-0.1,0-0.1c0.1-0.3,0.2-0.5,0.3-0.8c0,0,0-0.1,0-0.1c0.1-0.2,0.1-0.5,0.2-0.7c0,0,0-0.1,0-0.1c0.1-0.2,0.1-0.4,0.2-0.6
		c0-0.1,0-0.1,0-0.1c0-0.2,0.1-0.4,0.1-0.5c0,0,0-0.1,0-0.1c0-0.2,0.1-0.3,0.1-0.5c0.1-0.6,0.2-1,0.2-1.1c0-0.2,0.1-0.4,0.1-0.6
		c4.2-13.4,5.5-24.2,0-43.1c-2-7.2-8.3-18.5-15.7-26.9c-4.8,3.6-8.4,6.1-12,7.4c2.2,3.3,4.1,6.6,5.7,9.7c0.2-0.4,3.8,7.8,3.6,8.1
		c0.4,1.2,0.8,2.3,1.1,3.3c6.1,20.9,4.7,33.6,0,48.3c-0.7,2.1-1.6,5.6-2.6,8.1l0,0.1c2.9,0.4,7.1,0.9,12.4,1
		c2.2-2.5,3.8-5.2,4.9-7.7C231.6,384.8,231.8,384.4,231.9,384.1z"/>
	<path class="st9" d="M273.6,286.5c-9.9-0.3-20.3,0.5-28.7,3.3c6.7,9.5,35.1,53.6,19.5,97.9c8.6-2.7,17.6-6.8,26.3-12.8
		c1.3-0.9,2.5-1.8,3.7-2.8C298.2,336.3,283.9,304.3,273.6,286.5z"/>
	<path class="st9" d="M184.3,157.8c-1.9,0.6-3.7,1.3-5.4,2c3,3.7,6.4,8.5,8.4,13.5c2.2,5.6,3.8,13.4,4.8,19.3
		c1.8-0.4,3.5-0.8,5.3-1.2c-1-6.2-2.6-14.8-5-20.7C190.5,166,187.3,161.4,184.3,157.8z"/>
	<path class="st19" d="M210.6,146.1c0.1,0,0.2,0,0.3,0c0.3,0,0.6,0,0.8-0.1c8.6-0.2,17.3,0.7,25.4,2.7c0.4-1.5,0.6-3,0.7-4
		c-5.6-3.4-25.4-15.5-31-19.1C206.6,128.2,207,134.3,210.6,146.1C210.6,146.1,210.6,146.1,210.6,146.1z"/>
	<path class="st19" d="M316.9,90.3l8.5-1.7c0.2,0,0.3-0.2,0.3-0.4l0.1-2.3c-2.3-0.4-4.8-1-7-2c-1,1.4-2.4,2.7-3.9,3.8l1.5,2.3
		C316.5,90.2,316.8,90.3,316.9,90.3z"/>
	<g>
		<path class="st23" d="M178.6,202.5c-3.5,0.6-6.7,0.9-9.6,0.8c7.9,13.7,12,30.8,10.8,49.7c-0.9,13.8-4.5,26.7-10,38
			c1.6-0.4,3.2-0.6,4.8-0.6c2.5,0,4.9,0.5,7.2,1.3c5-11.3,8.1-23.8,8.8-36.9C191.5,235.8,187.2,217.5,178.6,202.5z"/>
		<path class="st23" d="M151.3,316.3c-14.8,14.2-33.8,22-53.5,20.2c-12.8-1.2-24.2-6.4-33.4-14.4c1,1.6,1.9,3.3,2.9,4.9
			c11.8,10.5,26.3,16.3,41.8,16.6c1.8,0,3.6,0,5.4-0.1c13.7-0.8,26.6-6,37.8-14.2C151.5,324.9,151.1,320.5,151.3,316.3z"/>
		<path class="st23" d="M145.8,179.1c0.6-1.8,1.5-3.7,2.9-5.6c-8.3-4.2-17.4-6.6-26.8-6.9c-3.6,1.6-7.1,3-10.4,3.9
			C124,169.8,135.7,172.9,145.8,179.1z"/>
	</g>
	<g>
		<path class="st24" d="M332.2,142c6.2,0,11.9,6.8,15.3,12.7c4.1-5.9,10.6-9.7,18.7-11c0.8-0.1,1.6-0.2,2.5-0.2c2.7,0,5.5,0.6,7.3,1
			c0.1,0,0.3,0.1,0.5,0.1c2.7,0.7,4.7,1.5,4.7,1.6c1.5,0.9,2.8,1.9,3.8,3.1c0,0,0,0.1,0.1,0.1c0,0,0,0,0,0c0.3,0.4,0.5,1,0.4,1.5
			c0,0,0,0,0,0c0,0,0,0,0,0c-0.1,0.5-0.3,1-0.8,1.4c-0.4,0.3-0.8,0.4-1.3,0.4c-0.6,0-1.2-0.3-1.6-0.8c-1.6-2-5-3.6-9.2-4.2
			c-1.1-0.2-2.3-0.2-3.4-0.2c-0.9,0-1.7,0-2.5,0.1c-4.2,0.5-12.1,2.5-16.9,10.9c-0.1,0.1-0.1,0.2-0.2,0.3c0.2,0.5,0.4,1,0.4,1
			c0.2,0.5,0.4,1,0.5,1.4c1.7,5.7,2,9.9,1.6,13.9c-0.3,2.4-0.8,4.6-1.6,7c-0.1,0.6-0.3,1.3-0.5,2c6.3-0.3,17-2.2,28.2-10
			c11.9-8.3,16.1-25.1,17.5-38.7c0.6-6.2,0.7-11.8,0.6-15.6c-0.2-8.8-1.4-17.9-3.2-25.5c-0.7-2.8-1.4-5.4-2.2-7.6
			c-1.1-3-2.4-5.9-4.1-8.9c-0.6-0.2-1.1-0.7-1.2-1.4c-0.1-0.3-0.1-0.5,0-0.8c0.1-0.8,0.7-1.4,1.5-1.6c7.1-1.7,9.3-7.1,10-10.1
			c0.1-0.6,0.2-1.2,0.3-1.9c0.5-4.3-0.8-8.4-2.4-9.7c-1.4-1.1-3.4-1.7-5.8-1.7c-9.5,0-23.3,9.1-23.4,9.2c-0.3,0.2-0.7,0.4-1.2,0.4
			c-0.1,0-0.3,0-0.4,0c-1.1-0.2-1.7-1.2-1.5-2.3c0,0,0,0,0,0c0,0,0,0,0,0c0.1-0.4,0.4-0.9,2-2c-5.5-2.6-11.4-3.9-17.6-4.1
			c-0.5,0-0.9,0-1.4,0c-19.8,0-37.1,8.9-46.3,23.7c-0.3,0.5-0.6,1-0.8,1.5c0,0.1-0.1,0.1-0.1,0.2c-0.2,0.4-0.4,0.8-0.6,1.2
			c-0.1,0.1-0.1,0.3-0.2,0.4c-0.1,0.3-0.2,0.6-0.3,0.9c-0.1,0.2-0.1,0.4-0.2,0.5c-0.1,0.2-0.1,0.5-0.2,0.7c-0.1,0.2-0.1,0.4-0.2,0.6
			c0,0.2-0.1,0.4-0.1,0.5c0,0.2-0.1,0.5-0.1,0.7c0,0.1,0,0.1,0,0.2c-0.1,0.7-0.1,1.3,0,1.9c0,0.2,0.1,0.4,0.1,0.6c0,0,0,0,0,0.1
			c0,0.2,0.1,0.4,0.2,0.7c0.1,0.5,0.3,0.9,0.6,1.2c0.8,1.3,1.8,2.1,2.6,2.5h0c0.1,0,0.2,0,0.3,0c1.4,0,4.1-0.8,7-2.2c0,0,0,0,0,0
			c1.5-0.7,3-1.6,4.4-2.6c1-0.7,1.9-1.4,2.7-2.2c0,0,0,0,0.1-0.1c0.4-0.4,0.7-0.7,1-1.1c0-0.1,0.1-0.1,0.1-0.2
			c0.3-0.4,0.6-0.8,0.8-1.3c0.3-0.5,0.7-0.9,1.3-1c0.2,0,0.4-0.1,0.5-0.1c0.1,0,0.1,0,0.2,0c0.1,0,0.3,0,0.4,0.1c0,0,0,0,0.1,0
			c0.2,0,0.3,0.1,0.5,0.2c0.4,0.3,0.9,0.5,1.3,0.7c0.1,0.1,0.2,0.1,0.3,0.2c0.4,0.2,0.8,0.4,1.3,0.5c0.6,0.2,1.2,0.5,1.9,0.6
			c0.1,0,0.2,0,0.3,0.1c1.7,0.4,3.5,0.7,5.4,0.7c4.8,0,9.7-1.4,14.3-2.9c0.2-0.1,0.4-0.1,0.6-0.1c0.1,0,0.2,0,0.2,0
			c0.2,0,0.3,0,0.5,0.1c0,0,0,0,0,0c0,0,0,0,0.1,0c0.1,0,0.3,0.1,0.4,0.2c0,0,0.1,0,0.1,0.1c0.1,0.1,0.2,0.2,0.3,0.3c0,0,0,0,0,0
			c0,0,0,0,0,0c0.1,0.1,0.1,0.2,0.2,0.3c0,0.1,0.1,0.1,0.1,0.2c0.1,0.2,0.1,0.4,0.1,0.7c0,0.1,0,0.3,0,0.4c4.7,0.5,9.3,2,12.6,3.3
			c2.6,1,4.4,2,4.6,2.1l2.9,1.5c12.1,0,15.7,0.3,17.3,0.7c2.8,0.7,4.5,3.1,4.5,6.5c0.1,3.8-2.1,9.9-7,16.2
			c-6.2,8.1-16.7,16.7-32.4,21.4c-4.3,1.3-8.9,2-13.6,2h0c-4.9,0-11.1-0.8-18.3-3c0.2,0.4,0.4,0.8,0.5,1.1c0,0,0,0,0,0
			c2.2,4.2,4.2,8.7,6.1,13.2c0.6-0.8,1.3-1.6,2.1-2.4c0.3-0.3,0.7-0.5,1-0.8c1.2-0.8,2.4-1.2,3.7-1.4c0,0,0.1,0,0.1,0
			c0.3-0.1,0.6-0.1,1-0.1C331.9,142,332.1,142,332.2,142z M305.9,76.6c-1.6,0-3-1.3-3-2.9c0-0.2,0-0.4,0.1-0.6
			c0.3-1.4,1.5-2.4,2.9-2.4c1.6,0,3,1.3,3,2.9c0,0.2,0,0.4-0.1,0.6C308.6,75.5,307.4,76.6,305.9,76.6z M319.2,75.7
			c-1.5,1.2-1.6,1.1-3.3,0.9c-1.7-0.2-2.1-1.6-0.6-2.7c0.8-0.6,2.1-1.1,3.9-1.3C321.1,72.4,320.9,74.4,319.2,75.7z M340.3,68
			c-1.6,0-3-1.3-3-2.9c0-1.6,1.3-3,2.9-3c1.6,0,3,1.3,3,2.9C343.2,66.6,341.9,67.9,340.3,68z M374.3,66.4c-0.5-0.2-0.9-0.6-1-1.1
			c0-0.1,0-0.2,0-0.4c0,0,0-0.1,0-0.1c0,0,0,0,0,0c0,0,0,0,0,0c0.1-0.4,2.2-9.8,17-10.6c0.7,0,1.4,0.5,1.5,1.3c0,0,0,0,0,0
			c0,0,0,0,0,0c0,0,0,0,0,0.1c0.3,0.1,0.6,0.3,0.9,0.4c3.1,1.7,1.4,14-5.9,14.5C380.2,71,375.7,68.8,374.3,66.4z"/>
		<path class="st25" d="M321.9,214.8c-0.3,0-0.6,0-0.9,0c-8.7,0-15.5-3.4-19.3-9.6c-3.8-6.3-9.1-8.5-12.5-8.5
			c-0.7,0-1.3,0.1-1.9,0.2c-2.5,0.7-4,2.9-4.1,6.1c-0.1,2.9,2.6,6.9,7.2,10.5c5.9,4.7,16.3,9.8,27.6,9.8c2.8,0,5.6-0.3,8.2-1
			c22-5.4,42.1-22.5,49.3-41.8c-2.4,1.4-4.8,2.6-7.2,3.6C359.3,201.2,339.4,214.3,321.9,214.8z"/>
		<path class="st26" d="M373.9,64.1c1.3-5,11.2-12.5,18.8-8.1c3.1,1.7,1.4,14-5.9,14.5C378.2,71.1,373,67.3,373.9,64.1z"/>
		<path class="st1" d="M321.9,214.8c-0.3,0-0.6,0-0.9,0c-8.7,0-15.5-3.4-19.3-9.6c-3.8-6.3-9.1-8.5-12.5-8.5c-0.7,0-1.3,0.1-1.9,0.2
			c-2.5,0.7-4,2.9-4.1,6.1c-0.1,2.9,2.6,6.9,7.2,10.5c5.9,4.7,16.3,9.8,27.6,9.8c2.8,0,5.6-0.3,8.2-1c22-5.4,42.1-22.5,49.3-41.8
			c-2.4,1.4-4.8,2.6-7.2,3.6C359.3,201.2,339.4,214.3,321.9,214.8z"/>
		<path class="st1" d="M316.9,90.3l8.5-1.7c0.2,0,0.3-0.2,0.3-0.4l0.1-2.3c-2.3-0.4-4.8-1-7-2c-1,1.4-2.4,2.7-3.9,3.8l1.5,2.3
			C316.5,90.2,316.8,90.3,316.9,90.3z"/>
		<path class="st0" d="M390.2,54.2c-14.8,0.8-16.9,10.2-17,10.6c0,0,0,0,0,0c0,0,0,0,0,0c0,0,0,0.1,0,0.1c0,0.1,0,0.3,0,0.4
			c0.1,0.5,0.5,0.9,1,1.1c0,0,0.1,0,0.1,0c0.1,0,0.2,0,0.3,0c0.6,0,1.2-0.4,1.4-1.1c0.1-0.3,1.9-7.7,14.4-8.4c0.7,0,1.3-0.7,1.3-1.4
			c0,0,0,0,0-0.1c0,0,0,0,0,0c0,0,0,0,0,0C391.7,54.7,391,54.1,390.2,54.2z"/>
		<path class="st0" d="M315.2,73.9c-0.6,0.4-0.8,0.9-0.9,1.3c-0.1,0.7,0.5,1.3,1.5,1.4c1.7,0.2,1.8,0.3,3.3-0.9
			c0.8-0.6,1.3-1.5,1.3-2.1c0-0.7-0.4-1.1-1.3-1C317.3,72.8,316.1,73.2,315.2,73.9z"/>
		<path class="st0" d="M337.3,64.4c0,0.2-0.1,0.4-0.1,0.6c0,1.6,1.4,3,3,2.9c1.4,0,2.6-1.1,2.9-2.4c0-0.2,0.1-0.4,0.1-0.6
			c0-1.6-1.4-3-3-2.9C338.7,62,337.5,63,337.3,64.4z"/>
		<path class="st0" d="M302.9,73c0,0.2-0.1,0.4-0.1,0.6c0,1.6,1.4,3,3,2.9c1.4,0,2.6-1.1,2.9-2.4c0-0.2,0.1-0.4,0.1-0.6
			c0-1.6-1.4-3-3-2.9C304.4,70.6,303.2,71.7,302.9,73z"/>
		<path class="st0" d="M400.7,64.9c1-4.6,0.4-9.6-1.4-12.9c-0.6-1.1-1.3-2-2.1-2.7c-1-0.8-2.2-1.4-3.6-1.8c-0.5-0.2-1-0.2-1.5-0.3
			c-0.1,0-0.2-0.1-0.3-0.1c-0.9-0.2-1.8-0.3-2.8-0.3c-3.1,0-6.7,0.7-10.7,2.2c-2.5,0.9-6.3,2.7-9.6,4.4c-3.2-1.7-6.6-3.1-10.2-4
			c-0.4-0.1-0.9-0.2-1.3-0.3c-0.4-0.1-0.7-0.2-1.1-0.3c-3-0.6-6-1-9.2-1.1c-0.5,0-1,0-1.5,0c-21.1,0-39.7,9.5-49.5,25.4
			c-0.4,0.4-2.7,5-3,6.4l0,0c-0.6,2.1-0.8,4.1-0.5,6c0,0.2,0.1,0.5,0.2,0.8c-3.3,0.2-7.6,2.6-10.4,6c-2.2,2.7-3.1,5.6-2.6,8.2
			c0.8,4,3.8,6.5,7.7,6.5c3,0,6.2-1.5,8.7-4.1c2.5-2.6,3.8-5.9,3.5-9.2c0.2,0,0.3,0,0.5,0c3.1,0,7.6-1.6,11.6-4l1.7,2.5
			c0.2,0.3,0.5,0.7,0.7,1l0.3,0.4c0.3,0.3,0.7,0.5,1.1,0.5l0.2,0l0.5-0.1c0.3,0,0.9-0.1,1.2-0.2l4.9-1c-1.3,1.7-2.1,3.3-2.3,4.8
			c-0.3,2,0.5,3.7,2.2,4.7c1.4,0.8,3.1,1.2,4.9,1.2c6.5,0,15.5-4.3,23.6-8.2c5-2.4,10.1-4.9,12-4.8l8.3,0.3l-7.4-3.8
			c-0.5-0.2-8.8-4.5-17.3-5.4c0,0,0,0,0,0c0-0.1,0-0.3,0-0.4c0-0.2,0-0.4-0.1-0.7c0-0.1-0.1-0.2-0.1-0.2c-0.1-0.1-0.1-0.2-0.2-0.3
			c0,0,0,0,0,0c0,0,0,0,0,0c-0.1-0.1-0.2-0.2-0.3-0.3c0,0-0.1,0-0.1-0.1c-0.1-0.1-0.2-0.1-0.4-0.2c0,0,0,0-0.1,0c0,0,0,0,0,0
			c0,0-0.1,0-0.1,0c0,0-0.1,0-0.1,0c-0.1,0-0.2,0-0.2,0c-0.1,0-0.2,0-0.2,0c-0.2,0-0.4,0-0.6,0.1c-4.6,1.5-9.5,2.9-14.3,2.9
			c-1.9,0-3.7-0.2-5.4-0.7c-0.1,0-0.2,0-0.3-0.1c-0.6-0.2-1.2-0.4-1.9-0.6c-0.4-0.2-0.8-0.3-1.3-0.5c-0.1-0.1-0.2-0.1-0.3-0.2
			c-0.4-0.2-0.9-0.5-1.3-0.7c-0.1-0.1-0.3-0.1-0.5-0.2c0,0,0,0-0.1,0c0,0,0,0,0,0c0,0,0,0,0,0c-0.1,0-0.2-0.1-0.4-0.1
			c-0.1,0-0.1,0-0.2,0c-0.2,0-0.4,0-0.5,0.1c-0.5,0.1-1,0.5-1.3,1c-0.2,0.4-0.5,0.8-0.8,1.3c0,0.1-0.1,0.1-0.1,0.2
			c-0.3,0.4-0.6,0.7-1,1.1c0,0,0,0-0.1,0.1c-0.4,0.4-0.9,0.9-1.4,1.3c-0.2,0.2-0.5,0.4-0.8,0.6c-0.2,0.2-0.5,0.3-0.7,0.5
			c-1.3,0.9-2.8,1.8-4.2,2.5c0,0,0,0,0,0c-2.8,1.4-5.6,2.2-7,2.2c-0.1,0-0.2,0-0.3,0c0,0,0,0,0,0c-0.8-0.4-1.9-1.2-2.6-2.5
			c-0.2-0.4-0.4-0.8-0.6-1.2c-0.1-0.2-0.1-0.4-0.2-0.7c0,0,0,0,0-0.1c0-0.1,0-0.1,0-0.2c-0.1-0.3-0.1-0.6-0.1-0.9c0-0.1,0-0.1,0-0.2
			c0-0.4,0-0.8,0-1.2c0-0.1,0-0.1,0-0.2c0-0.2,0.1-0.5,0.1-0.7c0-0.2,0.1-0.3,0.1-0.5c0-0.2,0.1-0.4,0.2-0.6
			c0.1-0.2,0.1-0.5,0.2-0.7c0.1-0.2,0.1-0.4,0.2-0.5c0.1-0.3,0.2-0.6,0.3-0.9c0.1-0.1,0.1-0.3,0.2-0.4c0.2-0.4,0.4-0.8,0.6-1.2
			c0-0.1,0.1-0.1,0.1-0.2c0.3-0.5,0.5-1,0.8-1.5c9.2-14.8,26.4-23.7,46.3-23.7c0.5,0,0.9,0,1.4,0c6.2,0.1,12.1,1.5,17.6,4.1
			c-1.6,1.1-1.9,1.6-2,2c0,0,0,0,0,0c0,0,0,0,0,0c-0.2,1.1,0.5,2.1,1.5,2.3c0.1,0,0.3,0,0.4,0c0.4,0,0.8-0.1,1.2-0.4
			c0.1-0.1,13.8-9.2,23.4-9.2c2.4,0,4.3,0.6,5.8,1.7c1.6,1.3,2.9,5.4,2.4,9.7c-0.1,0.6-0.2,1.2-0.3,1.9c-0.7,3.1-2.9,8.5-10,10.1
			c-0.8,0.2-1.3,0.8-1.5,1.6c0,0.3,0,0.5,0,0.8c0.2,0.6,0.6,1.2,1.2,1.4c1.6,3,3,5.9,4.1,8.9c0.8,2.2,1.6,4.7,2.2,7.6
			c1.8,7.6,3,16.7,3.2,25.5c0.1,3.8,0.1,9.4-0.6,15.6c-1.4,13.6-5.6,30.4-17.5,38.7c-11.2,7.9-21.9,9.7-28.2,10
			c0.2-0.7,0.4-1.4,0.5-2c0.7-2.4,1.3-4.7,1.6-7c0.4-4,0.1-8.2-1.6-13.9c-0.1-0.4-0.3-0.9-0.5-1.4c0,0-0.1-0.5-0.4-1
			c0.1-0.1,0.1-0.2,0.2-0.3c4.8-8.4,12.6-10.4,16.9-10.9c0.8-0.1,1.7-0.1,2.5-0.1c1.1,0,2.3,0.1,3.4,0.2c4.1,0.6,7.6,2.1,9.2,4.2
			c0.4,0.5,1,0.8,1.6,0.8c0.5,0,0.9-0.2,1.3-0.4c0.4-0.3,0.7-0.8,0.8-1.4c0,0,0,0,0,0c0,0,0,0,0,0c0.1-0.5-0.1-1.1-0.4-1.5
			c0,0,0,0,0,0c0,0,0-0.1-0.1-0.1c-0.9-1.2-2.2-2.2-3.8-3.1c0-0.1-2-0.9-4.7-1.6c-0.2-0.1-0.4-0.1-0.5-0.1c-1.8-0.5-4.6-1-7.3-1
			c-0.9,0-1.8,0.1-2.5,0.2c-8.2,1.3-14.6,5.1-18.7,11c-3.4-5.9-9.1-12.7-15.3-12.7c-0.1,0-0.3,0-0.4,0c-0.3,0-0.6,0-1,0.1
			c-1.2,0.2-2.3,0.6-3.3,1.3c-7.6,5.1-5.4,14.1-3.5,22c0.5,2.1,1,4.1,1.3,6c0.4,2.3,0.3,5.1,0.2,7.7c-0.2,5.3-0.4,10.8,2.8,14
			c1.6,1.7,4,2.5,7,2.5c6,0,9.9-3,12.3-6.5c0-0.3,0.1-0.6,0.2-0.9c0.3,0,0.6,0,0.6,0c3.3,0,8.3-0.4,14.2-2.1
			c-9.3,13.8-26.1,24-40.6,24.4c-0.3,0-0.6,0-0.9,0c-5,0-11.8-1.3-15.7-7.7c-4.7-7.7-11.4-10.4-16-10.4c-1,0-2,0.1-2.8,0.4
			c-4.4,1.2-7,4.8-7.1,10c-0.1,4.3,3.1,9.3,8.8,13.8c6.4,5.2,17.8,10.7,30.2,10.7l0.4,0c3,0,5.9-0.4,8.7-1.1
			c25.2-6.2,47.8-26.9,53.8-49.3c13.6-10.1,17.8-29.6,18.9-44.3c0.5-6.8,0.4-13.9-0.2-21.1c-0.4-4.4-1-8.8-1.7-13
			c-1-5.1-2.2-9.7-3.5-13.4c-0.9-2.5-2.8-6.4-3.8-8.5C397.7,74.1,399.9,68.2,400.7,64.9z M293.6,100.5c-1.8,1.9-4.1,3-6.2,3
			c-0.5,0-1.1-0.1-1.6-0.3c-0.1,0-0.1,0-0.2-0.1c-1-0.4-1.9-1.4-2.3-3.2c-0.4-2.1,1-4.2,1.8-5.2c2.3-2.9,5.9-4.7,7.9-4.7
			c0.3,0,0.5,0,0.7,0.1c1.1,0.4,2,1.6,2.3,3.1C296.5,95.7,295.7,98.4,293.6,100.5z M339.3,85.8c1.4-0.4,2.9-0.6,4.5-0.6
			c4.8,0,10.1,1.6,13.7,3.1c-2.2,0.9-4.8,2.1-8.1,3.7c-8.7,4.2-20.5,9.9-25,7.2c-0.4-0.2-0.5-0.4-0.5-1
			C324.4,94.7,332,87.9,339.3,85.8z M318.8,83.9c2.2,1.1,4.7,1.7,7,2l-0.1,2.3c0,0.2-0.2,0.3-0.3,0.4l-8.5,1.7
			c-0.2,0-0.4-0.1-0.5-0.2l-1.5-2.3C316.4,86.6,317.8,85.3,318.8,83.9z M346.5,181.2l-0.1,0.3c0,0.1-0.1,0.6-0.4,1.4
			c-0.1,0.2-0.1,0.4-0.2,0.6l0,0c-0.1,0.3-0.2,0.6-0.3,0.9l-0.2,0.4l-0.2,0.3c-0.1,0.2-0.2,0.4-0.3,0.5l-0.2,0.3
			c-0.1,0.2-0.3,0.4-0.4,0.7l-0.1,0.2c-0.2,0.3-0.4,0.6-0.6,0.9l-0.1,0.1c-0.2,0.3-0.4,0.5-0.7,0.7l-0.2,0.2
			c-0.2,0.2-0.4,0.4-0.6,0.6l-0.2,0.2c-0.3,0.2-0.6,0.4-0.9,0.6l-0.1,0.1c-0.3,0.2-0.7,0.4-1.1,0.6l-0.3,0.1c-0.3,0.1-0.6,0.2-1,0.3
			l-0.4,0.1c-0.3,0.1-0.6,0.1-1,0.2l-0.4,0.1c-0.5,0.1-1,0.1-1.5,0.1c-1.9,0-3.2-0.4-4-1.3c-1.9-2-1.8-6.6-1.6-11.1
			c0.1-2.9,0.2-5.8-0.2-8.5c-0.3-2-0.8-4.2-1.3-6.3c-2-8.6-3-14.4,1.8-17.6c0.8-0.5,1.6-0.8,2.4-0.8c5.5,0,12.8,10.9,14.3,16.4
			c0.2,0.6,0.3,1.2,0.5,1.8l0,0.2c0.1,0.6,0.3,1.1,0.4,1.6C348.6,172.2,348,176.3,346.5,181.2z M326.3,222.4c-2.6,0.6-5.4,1-8.2,1
			c-11.3,0-21.7-5.1-27.6-9.8c-4.6-3.7-7.3-7.6-7.2-10.5c0.1-3.3,1.5-5.4,4.1-6.1c0.6-0.2,1.2-0.2,1.9-0.2c3.4,0,8.6,2.2,12.5,8.5
			c3.8,6.2,10.6,9.6,19.3,9.6c0.3,0,0.6,0,0.9,0c17.4-0.5,37.4-13.7,46.5-30.6c2.4-1,4.8-2.2,7.2-3.6
			C368.4,199.9,348.3,217,326.3,222.4z"/>
		<path class="st24" d="M347,164.5l0-0.2c-0.1-0.6-0.3-1.2-0.5-1.8c-1.5-5.5-8.8-16.4-14.3-16.4c-0.9,0-1.6,0.3-2.4,0.8
			c-4.9,3.2-3.9,9.1-1.8,17.6c0.5,2.1,1,4.3,1.3,6.3c0.4,2.7,0.3,5.6,0.2,8.5c-0.1,4.5-0.3,9.1,1.6,11.1c0.8,0.9,2.2,1.3,4,1.3
			c0.5,0,1,0,1.5-0.1l0.4-0.1c0.3-0.1,0.7-0.1,1-0.2l0.4-0.1c0.3-0.1,0.6-0.2,1-0.3l0.3-0.1c0.4-0.2,0.8-0.4,1.1-0.6l0.1-0.1
			c0.3-0.2,0.6-0.4,0.9-0.6l0.2-0.2c0.2-0.2,0.4-0.4,0.6-0.6l0.2-0.2c0.2-0.2,0.4-0.5,0.7-0.7l0.1-0.1c0.2-0.3,0.4-0.6,0.6-0.9
			l0.1-0.2c0.1-0.2,0.3-0.4,0.4-0.7l0.2-0.3c0.1-0.2,0.2-0.4,0.3-0.5l0.2-0.3l0.2-0.4c0.1-0.3,0.2-0.6,0.3-0.9l0,0
			c0.1-0.2,0.1-0.4,0.2-0.6c0.2-0.8,0.3-1.3,0.4-1.4l0.1-0.3c1.5-4.9,2.2-9,0.9-15C347.2,165.6,347.1,165.1,347,164.5z"/>
		<path class="st24" d="M293.7,90.1c-0.2-0.1-0.4-0.1-0.7-0.1c-2,0-5.5,1.8-7.9,4.7c-0.9,1.1-2.2,3.1-1.8,5.2
			c0.4,1.9,1.3,2.8,2.3,3.2c0.1,0,0.1,0,0.2,0.1c0.5,0.2,1.1,0.3,1.6,0.3c2,0,4.4-1.1,6.2-3c2-2.1,2.9-4.8,2.4-7.3
			C295.7,91.7,294.8,90.5,293.7,90.1z"/>
		<path class="st24" d="M324.4,99.2c4.5,2.7,16.3-3,25-7.2c3.3-1.6,5.9-2.9,8.1-3.7c-3.7-1.4-8.9-3.1-13.7-3.1
			c-1.6,0-3.1,0.2-4.5,0.6c-7.2,2.1-14.9,8.9-15.4,12.4C323.8,98.8,324,99,324.4,99.2z"/>
	</g>
	<g>
		<path class="st11" d="M262.2,301.4c-1.6-0.4-2.7-1.4-3.5-2.8c-0.8-1.4-0.9-2.9-0.5-4.5c0.5-1.6,1.4-2.7,2.8-3.5
			c1.4-0.8,2.9-0.9,4.4-0.5s2.7,1.4,3.5,2.8c0.8,1.4,0.9,2.9,0.5,4.5c-0.5,1.6-1.4,2.7-2.8,3.5C265.3,301.7,263.8,301.9,262.2,301.4
			z"/>
		<path class="st11" d="M269.3,317c-1.5-0.6-2.6-1.7-3.2-3.2c-0.6-1.5-0.6-3,0-4.5c0.6-1.5,1.7-2.6,3.2-3.2c1.5-0.6,3-0.6,4.5,0
			c1.5,0.6,2.6,1.7,3.2,3.2c0.6,1.5,0.6,3,0,4.5c-0.6,1.5-1.7,2.6-3.2,3.2C272.3,317.6,270.8,317.6,269.3,317z"/>
		<path class="st11" d="M274.4,333.2c-1.4-0.8-2.3-2-2.8-3.5c-0.4-1.6-0.3-3,0.5-4.5c0.8-1.4,2-2.3,3.5-2.8c1.6-0.4,3-0.3,4.4,0.5
			c1.4,0.8,2.3,2,2.8,3.5c0.4,1.6,0.3,3-0.5,4.5c-0.8,1.4-2,2.3-3.5,2.8C277.3,334.2,275.8,334,274.4,333.2z"/>
		<path class="st11" d="M277.3,350c-1.3-1-2-2.3-2.3-3.9c-0.2-1.6,0.2-3.1,1.2-4.3c1-1.3,2.3-2,3.9-2.2c1.6-0.2,3,0.2,4.3,1.1
			c1.3,1,2,2.3,2.3,3.9c0.2,1.6-0.2,3.1-1.1,4.3c-1,1.3-2.3,2-3.9,2.2C280.1,351.4,278.6,351,277.3,350z"/>
		<path class="st11" d="M277.6,367c-1.1-1.2-1.7-2.6-1.6-4.2c0-1.6,0.7-3,1.8-4.1c1.2-1.1,2.6-1.6,4.2-1.6c1.6,0,3,0.6,4.1,1.8
			s1.6,2.6,1.6,4.2c0,1.6-0.7,3-1.8,4.1c-1.2,1.1-2.6,1.6-4.2,1.6C280.1,368.8,278.7,368.2,277.6,367z"/>
		<path class="st11" d="M281,374.8c-1.6-0.3-3,0-4.4,0.8c-1.4,0.9-2.2,2.1-2.5,3.7c-0.3,1.5,0,2.9,0.8,4.2c3.5-1.5,6.9-3.3,10.4-5.4
			c-0.1-0.3-0.3-0.6-0.5-0.9C283.8,376,282.6,375.2,281,374.8z"/>
	</g>
</g>
</svg>
