<?xml version="1.0" encoding="utf-8"?>
<!-- Generator: Adobe Illustrator 26.5.0, SVG Export Plug-In . SVG Version: 6.00 Build 0)  -->
<svg version="1.1" id="レイヤー_1" xmlns="http://www.w3.org/2000/svg" xmlns:xlink="http://www.w3.org/1999/xlink" x="0px"
	 y="0px" viewBox="0 0 408.9 498.1" style="enable-background:new 0 0 408.9 498.1;" xml:space="preserve">
<style type="text/css">
	.st0{fill:#0A262B;}
	.st1{fill:#AA0707;}
	.st2{fill:#CC0A0A;}
	.st3{fill-rule:evenodd;clip-rule:evenodd;fill:#FFD100;}
	.st4{fill-rule:evenodd;clip-rule:evenodd;fill:#FC568D;}
	.st5{fill:#FCBED0;}
	.st6{fill-rule:evenodd;clip-rule:evenodd;fill:#0A262B;}
	.st7{fill:#E09C24;}
	.st8{fill:#BDA57C;}
	.st9{fill:#E56D00;}
	.st10{fill:#FF8D00;}
	.st11{fill:#FFBF48;}
	.st12{fill:#CCA0AF;}
	.st13{opacity:0.45;fill:#B95F09;}
	.st14{fill:#CE7809;}
	.st15{fill-rule:evenodd;clip-rule:evenodd;fill:#FFBF48;}
	.st16{fill:#FC568D;}
	.st17{fill:none;}
	.st18{fill-rule:evenodd;clip-rule:evenodd;fill:#D1825C;}
	.st19{fill-rule:evenodd;clip-rule:evenodd;fill:#EFEFEF;}
	.st20{fill:#FFFFFF;}
	.st21{fill-rule:evenodd;clip-rule:evenodd;fill:#357A45;}
	.st22{fill-rule:evenodd;clip-rule:evenodd;fill:#FCBED0;}
	.st23{fill:#357A45;}
	.st24{fill:#BCA9FF;}
	.st25{fill:#7D40F4;}
	.st26{fill:#9677D8;}
</style>
<path class="st0" d="M143.2,498.1c-30.9,0-58.9-13.9-74.8-26.9c-14.1-11.5-22-24.4-21.6-35.4c0.4-13.4,7.6-23.1,19.1-26.1
	c2.2-0.6,4.6-0.9,7.1-0.9c12,0,29,7,40.7,26.6c8.7,14.6,24.5,17.7,36.1,17.7c0.5,0,1,0,1.5,0c24.8-0.5,52.6-12.7,75.1-32.8
	c-2-1.8-7.8-7.4-13.9-14.3c-5.6,7.1-15.1,14.7-30.3,14.7c-8,0-14.3-2.4-18.9-7c-2.3-2.4-4.1-5.3-5.3-8.8c-0.1,0-0.7-0.1-0.7-0.1
	c-24.9-2.2-48.5-11-68.7-25.7c-0.5,1.9-1.3,3.7-2.3,5.3c-3,4.6-8.1,7.2-14.3,7.2c-2.1,0-4.5-0.3-6.9-0.9
	C39.3,384.5,5.3,347,0.8,325.4c-2.1-10.2-0.1-19.6,5.6-26.7c5.1-6.3,12.9-9.9,21.2-9.9c1.5,0,3,0.1,4.5,0.3
	c-3.3-12.2-4.5-25.2-3.2-38.1c2.1-21.6,10.7-42.5,24.4-58.9c-0.8-6,1.4-12.4,6.2-18.1c2.3-2.7,4.9-5.1,7.8-7.1
	c-7.4-0.6-11.5-3.2-13.8-5.4c-3.1-3.1-4.3-7.3-3.1-11.2c1.1-3.9,4.3-6.7,8.5-7.7c5-1.1,22.3-10.7,31.7-19.8
	c6.4-10,14.2-19,23.3-26.9c-10.2-24.4-8.8-32.5-6.9-36.6c5.4-11.2,11.4-17.2,17.2-22.9c1.5-1.5,2.9-2.9,4.4-4.4
	c4.8-5.1,9.6-15.3,11-18.8c0.2-0.6,0.5-1.1,0.8-1.7c0.7-1.2,7.6-11.6,19.8-11.6c6.2,0,12.2,2.7,17.6,8.1
	C189,19,192.7,22.3,204.2,24.9c2.4,0.5,6.4,1.3,10.8,2.2c9.2,1.8,22.7,4.5,34.9,7.4c0.2-0.4,0.4-0.8,0.6-1.2
	c4.4-8.6,12.4-13.6,22.1-13.9c4-2.9,9.1-4.5,14.9-4.5c0.9,0,1.8,0,2.7,0.1c5.1-3.6,12.5-5.5,22-5.5c4.4,0,7.8,0.4,8.4,0.5
	c3.5,0.5,6.6,2.6,8.1,5.8c1.6,3.2,1.5,6.9-0.3,10c-4.5,7.9-24.5,43.2-34.3,58.8c3.6,0.1,7.4,0.2,11.2,0.3c8,0.3,15.5,0.5,19.6,0.5
	c7.6,0,15.3,0,22.4-0.1c6.6,0,12.5-0.1,17.8-0.1c15.8,0,19.8,0.3,21.9,0.8c4.4,1.1,7.3,5,7.4,10.1c0.1,5.2-2.8,12.1-7.8,18.7
	c-7.9,10.4-20.1,18.6-34.4,22.8c-4.7,1.4-9.7,2.1-14.8,2.1c-4.1,0-8.4-0.5-12.9-1.4c2.6,5.5,4.9,11.2,7,16.9
	c8.2,23.1,15.1,65.3,12.4,108.5c3.7,0.5,6.4,1.1,8.2,1.7l3,0.9c1.7,0.5,2.8,2.2,2.6,4l-0.4,3.1c-0.1,1.1-3.3,26.3-13.2,53.8
	c-12.9,35.6-30.6,57.6-52.8,65.5c-20.7,48.6-71.3,89.8-126.6,102.9C157.9,497.2,150.7,498.1,143.2,498.1z"/>
<polyline class="st0" points="91.3,169 92.5,168 96.3,171.7 93.8,173 91.3,169 "/>
<path class="st0" d="M319.9,235.1c-14,0-26.6-6.2-33.9-11.9c-7.2-5.7-11-12.3-10.9-18.4c0.2-7.6,4.5-13.5,11.3-15.3
	c1.4-0.4,2.8-0.6,4.3-0.6c6.2,0,15,3.5,20.9,13.2c2,3.3,5.7,5,11,5c0.3,0,0.5,0,0.8,0c4.7-0.1,9.9-1.5,14.8-3.9c-0.4,0-0.9,0-1.3,0
	c-5.7,0-9.1-2.3-11-4.3c-4.8-5-4.6-12-4.4-18.2c0.1-2.5,0.2-5-0.1-6.8c-0.3-1.6-0.7-3.5-1.2-5.6c-1.4-6-3.3-13.6-0.6-20.2
	c-1.6-3.6-3.2-7.1-4.9-10.4c-5.8-10.5-9.6-21.6-12.1-30.4c-0.3,0.3-0.5,0.6-0.8,0.9c-3.6,3.6-8.2,5.7-12.7,5.8
	c-6.7,0-12-4.4-13.3-11c-0.9-4.3,0.5-8.9,3.7-12.9c2.4-2.9,5.6-5.3,9-6.8c0.1-1.4,0.4-2.7,0.8-4.1c0-0.1,0.1-0.3,0.1-0.4
	c0.6-2.1,2.2-5.6,3.5-7.4l0,0c10.9-17.6,31.3-28.1,54.5-28.1c0.5,0,1.1,0,1.6,0c3.4,0.1,6.9,0.5,10.3,1.2c0.4,0.1,0.8,0.2,1.2,0.3
	c0.5,0.1,1,0.2,1.4,0.4c3,0.8,6,1.9,8.8,3.2c2.8-1.4,5.6-2.7,7.7-3.4c4.7-1.7,8.9-2.6,12.7-2.6c1.2,0,2.4,0.1,3.7,0.3
	c0.1,0,0.4,0.1,0.5,0.1c0.8,0.2,1.4,0.3,2,0.5c2,0.6,3.8,1.5,5.4,2.8c1.4,1.1,2.6,2.6,3.6,4.5c2.4,4.5,3.2,10.9,1.9,16.7
	c-0.8,3.4-2.8,9.1-8.1,13.2c0.7,1.6,1.4,3.1,1.8,4.3c1.4,3.9,2.7,8.9,3.7,14.3c0.8,4.4,1.4,8.9,1.8,13.6c0.6,7.6,0.7,15,0.2,22.1
	c-1.1,15.3-5.5,35.7-19.7,47.4c-7.2,23.6-31.1,45.1-57.6,51.7c-3.2,0.8-6.6,1.2-10.1,1.3C320.3,235.1,319.9,235.1,319.9,235.1z"/>
<path class="st1" d="M175.3,292.8c10.2,0,19.8,7.9,27.3,17.4c3.6-0.5,6.7-2.7,13.9-8.1c4.3-3.2,9.6-7.2,17-12.2
	c14.8-10,40.5-9.3,57.9-7.3c0.5-4.7,0.8-9.4,0.8-14.2c0-13.3-2.1-26.3-6.3-38.8c-19.2-17.2-32.4-27.7-51.4-31.6
	c-5.6-1.1-11.6-1.2-17.7-0.6l-28.4,5.8c0,0,0-0.2-0.1-0.5c-8.2,1.8-15.3,3.1-21.1,2.4c-10.5-1.1-18.8-6.6-21.2-14.1
	c-1.7-5.3-1.2-13.7,10.5-24c3.7-3.3,8.1-6.2,12.8-8.6c0,0-0.1-0.1-0.1-0.1c1.1-0.8,2.2-1.4,3.4-2.1c-8.9-0.1-17.7-1.9-26.1-6.4
	c-9.6,13.3-31.5,23.4-43.4,23.9c-2.6,0.6-5.2,1.3-7.7,2.1c0.2,0.6,0.4,1.3,0.5,1.9c1.5,7.2-1,15-6.8,20.7c-5,5-11.3,7.8-17.2,7.8
	c-4.7,0-8.6-1.8-11.4-4.9c-1.2,1.5-2.4,3.1-3.6,4.8c-0.4,0.5-0.7,1-1.1,1.6c-0.3,0.5-0.7,1-1,1.6c-5,7.8-9,16.4-11.6,25.7
	c-1.7,5.8-2.9,11.8-3.5,18c-1.7,17.6,1.4,34.4,8.3,48.5c-0.2-0.4-0.4-0.9-0.6-1.3c0,0,0,0.1,0.1,0.1c0.1,0.3,0.3,0.5,0.4,0.8
	c0.4,0.6,0.9,1.3,1.4,1.8c0,0-0.1,0-0.1,0.1c11.5,11.9,28.2,44.7,32.9,55.2c0.2-0.1,1.2,2.9,1.4,3.4c19.8,18.3,45.5,30.3,73.9,32.9
	c0.6,0.1,1.3,0.1,1.9,0.2c0,0,0,0,0.1,0c-0.4-4.9-0.2-10.2-0.1-15.4c0.2-6.2,0.4-12.7-0.4-18c-0.7-4.4-1.8-9-3-14
	c-4.4-18.5-9.4-39.4,8.2-51.1C167.8,293.9,171.5,292.8,175.3,292.8z"/>
<g>
	<path class="st2" d="M214.8,197.8l-26.2,5.3c0,0,0-0.2-0.1-0.5c-8.2,1.8-15.3,3.1-21.1,2.4c-2.8-0.3-5.4-0.9-7.7-1.7
		c-0.5-0.2-0.9-0.3-1.4-0.5c-6.2-2.5-10.8-6.7-12.4-12c-1.7-5.3-1.2-13.7,10.5-24c0.2-0.1,0.4-0.3,0.5-0.4
		c-6.9-2.3-14.2-3.8-21.8-4.4c-0.6-0.1-1.2,0-1.8,0.1c-10.1,6.8-22.2,11.3-30,11.6c-2.6,0.6-5.2,1.3-7.7,2.1
		c0.2,0.6,0.4,1.3,0.5,1.9c1.5,7.2-1,15-6.8,20.7c-5,5-11.3,7.8-17.2,7.8c-1.8,0-3.5-0.3-5-0.8c0,0,0,0,0,0
		c-2.5-0.8-4.6-2.2-6.3-4.2c-1.2,1.5-2.4,3.1-3.6,4.8c-0.4,0.5-0.7,1-1.1,1.6c-0.3,0.5-0.7,1-1,1.6c-5,7.8-9,16.4-11.6,25.7
		c-1.7,5.8-2.9,11.8-3.5,18c-1.5,14.9,0.6,29.3,5.4,41.9c0.7,1.8,1.4,3.6,2.2,5.3c0,0,0,0,0,0.1c0.1,0.3,0.3,0.5,0.4,0.8
		c0.4,0.6,0.9,1.3,1.4,1.8c0,0-0.1,0-0.1,0.1c7.7,7.9,17.7,25.1,24.9,38.8c0.3,0.3,0.7,0.7,1.1,1c36.1,34,75.6,23.3,83.7,21.1
		c0,0-2.6-13.7-3.3-16.7l0-0.1c-4.4-18.5-9.4-39.4,8.2-51.1c3.4-2.3,7.1-3.4,10.9-3.4c2.6,0,5.2,0.5,7.7,1.5
		c7.4,2.6,14.2,8.8,19.9,16c0.1,0,0.1,0.1,0.2,0.1c0,0,0,0,0,0c3.5-0.5,6.6-2.7,13.8-8.1c2.7-2,5.8-4.3,9.5-7c0,0,0,0,0,0
		c5.2-10.8,8.6-22.1,8.6-35.3C234.8,237.4,227.4,214.3,214.8,197.8z"/>
	<path class="st2" d="M48.3,301.5c-0.2-0.4-0.4-0.9-0.6-1.3c0,0,0,0,0,0C47.9,300.6,48.1,301.1,48.3,301.5z"/>
</g>
<path class="st3" d="M209.9,345.1l-0.1-0.4c-0.3-1.4-0.7-2.8-1.1-4.2c-3.5-12.8-20.4-38.1-33.3-38.1c-2,0-3.8,0.6-5.6,1.8
	c-11.3,7.5-9,21.1-4.2,41c1.2,4.9,2.4,10,3.1,14.7c1,6.2,0.7,13.1,0.5,19.7c-0.3,10.4-0.7,21.1,3.8,25.7c2,2,5,3,9.3,3
	c1.2,0,2.4-0.1,3.6-0.2c0.3,0,0.7-0.1,1-0.2c0.8-0.1,1.6-0.3,2.3-0.5c0.3-0.1,0.7-0.2,1-0.3c0.8-0.2,1.5-0.5,2.2-0.8
	c0.2-0.1,0.4-0.2,0.6-0.3c0.9-0.4,1.8-0.9,2.6-1.4l0.2-0.2c0.7-0.5,1.4-0.9,2-1.5c0.2-0.2,0.4-0.3,0.6-0.5c0.5-0.4,1-0.9,1.5-1.4
	l0.5-0.5c0.5-0.6,1-1.1,1.5-1.7l0.2-0.2c0.5-0.7,1-1.3,1.5-2l0.3-0.5c0.3-0.5,0.6-1,0.9-1.5c0.1-0.2,0.3-0.5,0.4-0.7
	c0.2-0.4,0.4-0.8,0.6-1.2c0.1-0.3,0.3-0.5,0.4-0.8c0.2-0.4,0.3-0.7,0.4-1c0.3-0.7,0.6-1.4,0.8-2.1l0-0.1c0.2-0.5,0.3-0.9,0.4-1.3
	c0.5-1.8,0.8-3,0.8-3.2c0-0.2,0.1-0.4,0.2-0.6c3.6-11.3,5-20.8,2.1-34.9C210.5,347.7,210.2,346.4,209.9,345.1"/>
<path class="st4" d="M61.3,154.2c-0.3,0.1-0.4,0.2-0.4,0.2c0,0,0.2,0.4,1,0.9c1.5,1,7.4,3.7,23.4-0.5c-0.5-3.7-0.3-8.3,1.3-13.8
	C77.2,147.4,66.6,153,61.3,154.2"/>
<path class="st5" d="M93,156.8c0.2,0.7,0.4,1.3,0.7,1.9c1.8,4.2,4.9,6.8,7.2,7.8c4.5,2,33.2-7.9,41.6-23.1c0.5-0.9,1.3-1.5,2.2-1.7
	c1-0.2,2-0.1,2.8,0.4c4.6,2.8,9.3,4.7,14.1,5.8c0,0,0,0,0,0c14.4,3.3,29.4-0.1,43.1-4.3c-3.2-12.1-3.2-19.4-0.1-21.7
	c0.7-0.5,2.7-1.6,5.5,0.2c4.3,2.8,33.1,20.4,33.4,20.5l1.4,0.9l-0.1,1.6c0,0.2-0.1,3.2-1,6.9c0.2,0.1,0.3,0.1,0.5,0.2
	c0.6,0.2,1.1,0.4,1.7,0.6c0.9,0.3,1.9,0.6,2.8,1c0.9,0.4,1.6,1.1,2,1.9c0.4,0.8,0.4,1.8,0.1,2.8c-0.7,1.8-2.8,2.7-4.6,2
	c-3.4-1.3-6.9-2.4-10.5-3.3c-0.2,0-0.4-0.1-0.6-0.1c-1.6-0.4-3.2-0.7-4.8-0.9c-0.3,0-0.6-0.1-0.9-0.1c-1.5-0.2-3.1-0.4-4.7-0.6
	c-0.3,0-0.6-0.1-0.9-0.1c-1.7-0.2-3.5-0.3-5.2-0.3c-0.1,0-0.2,0-0.3,0c-1.9-0.1-3.8-0.1-5.7,0c-0.1,0-0.3,0-0.4,0
	c-1.4,0-2.8,0.1-4.2,0.2l-3,6.2l15.3,6.9l-7,13.6l6.2,8.3c3.8-0.2,7.5-0.2,11.2,0.1c0.1,0,0.1,0,0.2,0c0.8,0.1,1.7,0.2,2.5,0.3
	c0.2,0,0.5,0.1,0.7,0.1c0.7,0.1,1.5,0.2,2.2,0.4c23.1,4.8,38.5,18.6,61.7,39.6l2.8,2.6c0.4,0.3,0.7,0.7,0.8,1.2
	c0.6,1.3,0.4,2.8-0.6,3.9c-0.7,0.8-1.7,1.2-2.7,1.2c-0.8,0-1.6-0.3-2.3-0.8c0.1,0.3,0.1,0.6,0.2,0.9c0.3,1.5,0.6,2.9,0.9,4.2
	c0.2,1.1,0.4,2.3,0.6,3.4c0.1,0.9,0.3,1.7,0.4,2.5c0.7,5.1,1.2,10.2,1.3,15.4c4.9,0.2,20.3,1,33.4,2.2c2.9-40.6-2.8-82.2-11.6-107.3
	c-2-5.7-4.2-11-6.7-16.2c-2.4-5.1-5.1-10-7.9-14.6c-8.6-4.2-18.2-10.3-28.8-19.4l-0.9-0.7c-6.6-5.5-9-9.3-9.7-11.9c0,0,0-0.1,0-0.1
	c-2.6,0.1-6.9-0.7-14-2.1c-5.2-1-11.6-2.2-19.5-3.5c-18.4-3-53-4.5-63.5-3.3c-4,0.5-6.6,2.1-8.8,3.5c-2.2,1.4-4.5,2.8-7.4,2.4
	c-2-0.3-3.1-1.1-3.9-1.7c-0.7-0.6-1.1-0.8-2.4-0.7c-4.4,0.2-19.1,7.7-22.8,10.5c-0.2,0.2-0.4,0.3-0.7,0.4c-1.3,1-2.6,2.1-3.8,3.2
	c-0.3,0.2-0.5,0.5-0.8,0.7c-0.8,0.7-1.5,1.4-2.3,2.1c-0.2,0.2-0.4,0.3-0.5,0.5c-0.8,0.8-1.7,1.6-2.5,2.4c0,0-0.1,0.1-0.1,0.1
	c-5.7,5.7-10.7,12-15,18.9C93,140.4,90.8,149.6,93,156.8z"/>
<path class="st6" d="M139.2,124.4c-5.7,4.3-4,9.5,2.4,10.3c6.4,0.8,6.9,1.2,12.7-3.2c6.4-4.8,7.2-12.7,0-11.9
	C147.2,120.5,142.4,122,139.2,124.4"/>
<path class="st6" d="M122.5,127.6c0,4-3.2,7.2-7.2,7.2c-4,0-7.2-3.2-7.2-7.2c0-4,3.2-7.2,7.2-7.2
	C119.3,120.5,122.5,123.7,122.5,127.6"/>
<path class="st6" d="M205.3,107.7c0,4-3.2,7.2-7.2,7.2c-4,0-7.2-3.2-7.2-7.2s3.2-7.2,7.2-7.2C202.1,100.6,205.3,103.8,205.3,107.7"
	/>
<path class="st7" d="M343.8,275.9c-0.7-0.1-1.6-0.2-2.4-0.3c-11.5-1.6-31.1-2.7-41.3-3.2l-1,10.4c0,0.2-0.1,0.5-0.2,0.7
	c6.1,0.9,10.3,1.8,10.8,1.9c2,0.4,3.3,2.4,2.8,4.4c-0.4,2-2.4,3.3-4.4,2.8c-0.5-0.1-49.6-10.7-70.4,3.3c-7.2,4.9-12.5,8.8-16.7,12
	c-5.7,4.3-9.7,7.2-13.7,8.7c2.2,3.3,4.1,6.7,5.7,9.8c0.2-0.4,3.8,7.8,3.6,8.1c0.4,1.2,0.8,2.3,1.1,3.3c6.1,21,4.7,33.8,0,48.5
	c-0.4,2.1-1.1,4.5-2.1,7.1c6,7.6,13,14.6,16.5,17.9c7.5-5.7,29.7-21.5,51.5-27.1c42.4-10.9,57.8-83.8,61.5-105.3
	c0.1-0.7,0.2-1.3,0.3-1.9c0-0.3,0.1-0.5,0.1-0.8C345.2,276.2,344.5,276.1,343.8,275.9z"/>
<path class="st8" d="M178.4,290.6L178.4,290.6L178.4,290.6z"/>
<path class="st3" d="M185.1,179.1c-6.5-3.4-13.2-6.4-19.8-9.7c-1.3,1-2.6,2-3.8,3c-6.9,6-9.8,11.9-8.4,16.4
	c1.5,4.7,7.6,8.4,15.2,9.1c5.7,0.6,14.4-1.3,23.5-3.4c4.2-0.9,8.6-1.9,13.1-2.7C199.1,186.8,192.2,182.8,185.1,179.1z"/>
<path class="st9" d="M198.1,44.5c-15-3.3-21.9-8.5-32-18.3c3.2,8.7,7.3,20.8,7.9,25.1c1.6,11.1-8.2,19-14.2,21.9l-4.4,2.1l-4-2.7
	c-1.2-0.8-11.3-7.8-10-18.7c0.5-4,1.9-8.7,3.5-12.9c-1.4,1.9-2.8,3.7-4.4,5.4c-1.6,1.7-3.2,3.3-4.8,4.8c-5.1,5-9.2,9.1-13.1,16.8
	c0.1,3.1,2.7,11.1,6.2,19.9c9.1-5.5,15.7-8.4,19.6-8.6c1.2,0,2.2,0,3.3,0.1c2.1,0.3,3.6,0.9,4.6,1.3c2.2-1.4,5.7-3.5,12-4.2
	c13.8-1.6,35.4-0.6,64.1,3.1c3.1,0.4,6,0.8,8.8,1.2c2.9-6.5,7.1-16,11-24.5c-14.6-3.9-34.2-7.7-42.7-9.4
	C204.5,45.8,200.7,45.1,198.1,44.5z"/>
<path class="st10" d="M319.2,21.9C319.2,21.9,319.2,21.9,319.2,21.9c-0.4,0-17.2-2.2-23.8,4c-0.6,0.5-1.1,1.2-1.5,1.8
	c0,0-2-0.6-4.8-0.8c-3.7-0.2-8.6,0.3-11.8,4c-0.2,0.2-0.4,0.5-0.6,0.7c0,0-2.5-0.6-5.7-0.2c-3.6,0.5-8.1,2.3-10.9,7.9
	c-1,2-2.5,5.2-4.2,8.8c-19.3-5.2-45.3-9.7-53.8-11.6c-1.2-0.3-2.3-0.6-3.4-0.8c0,0-0.1,0-0.1,0c-1-0.3-2.1-0.6-3-0.9
	c0,0-0.1,0-0.1,0c-1-0.3-1.9-0.6-2.8-1c0,0,0,0-0.1,0c-0.8-0.3-1.6-0.7-2.3-1c-0.2-0.1-0.3-0.2-0.5-0.2c-0.7-0.3-1.3-0.7-2-1
	c-0.1-0.1-0.2-0.1-0.3-0.2c-0.7-0.4-1.4-0.9-2.1-1.3c-0.2-0.1-0.4-0.3-0.6-0.4c-0.5-0.3-1-0.7-1.5-1c-0.3-0.2-0.5-0.4-0.8-0.6
	c-0.5-0.4-1-0.8-1.5-1.2c-0.2-0.1-0.3-0.3-0.5-0.4c-0.4-0.3-0.7-0.6-1.1-0.9c-0.3-0.2-0.5-0.5-0.8-0.7c-0.4-0.4-0.9-0.8-1.4-1.2
	c-0.2-0.2-0.5-0.4-0.7-0.6c-0.5-0.5-1-1-1.6-1.5c-0.1-0.1-0.2-0.2-0.3-0.3c-1.3-1.2-2.6-2.5-4.1-4c-0.4-0.4-0.8-0.7-1.2-1.1
	c-0.7-0.6-1.4-1.1-2.1-1.6c0,0-0.1-0.1-0.1-0.1c-0.2-0.1-0.3-0.2-0.5-0.3c-0.2-0.1-0.4-0.3-0.6-0.4c-0.1,0-0.1-0.1-0.2-0.1
	c-0.3-0.2-0.6-0.3-0.9-0.4c0,0,0,0,0,0c-9.3-4.2-15.4,5.6-15.4,5.6s-5.8,14.4-13.1,22.2c-7.4,7.8-13.9,12.4-19.8,24.6
	c-0.2,0.5-0.3,1.1-0.4,1.8c0,0.2,0,0.4,0,0.6c0,0.2,0,0.4,0,0.7c0,0.1,0,0.3,0,0.4c0.5,6.8,5.5,19.6,8.5,26.7
	c1.5-0.9,3.3-1.9,5.2-2.9c0.3-0.1,0.7-0.3,1-0.5c6-3.1,13-6,16.6-6.2c1.3-0.1,2.3,0.1,3.1,0.3c1.3,0.4,2.2,1,2.8,1.5
	c0.6,0.4,0.8,0.6,1.3,0.6c0.9,0.1,1.9-0.5,3.7-1.6c2.5-1.5,5.8-3.7,11.1-4.3c10.9-1.3,45.7,0.1,65,3.3c8,1.3,14.4,2.6,19.6,3.6
	c6.4,1.2,11.4,2.2,13.1,2c0.2,0,0.4,0,0.6,0c0,0,0.2,0,0.5,0c-0.1,0.1-0.2,0.3-0.3,0.4c0.2-0.2,0.3-0.4,0.5-0.6
	c1.6-1,4.6-1.7,8.6-1.9c0,0,0.1,0,0.1,0c0.3-0.2,0.6-0.4,1-0.6c0.1-0.1,0.2-0.1,0.2-0.2c0.3-0.2,0.5-0.4,0.8-0.6
	c0.1-0.1,0.3-0.2,0.4-0.4c0.2-0.2,0.4-0.4,0.6-0.5c0.2-0.2,0.4-0.4,0.6-0.7c0.1-0.1,0.2-0.2,0.3-0.3
	C286.7,79.3,319.2,21.9,319.2,21.9C319.2,21.9,319.2,21.9,319.2,21.9z M149.8,54.9c1-8.9,8.4-23.1,8.4-23.1s6.5,14.8,7.4,20.8
	c1.2,7.9-9.5,13-9.5,13S149.1,60.8,149.8,54.9z M241.2,80.7c-2.8-0.4-5.7-0.8-8.8-1.2c-28.7-3.7-50.3-4.7-64.1-3.1
	c-6.3,0.7-9.8,2.9-12,4.2c-1-0.5-2.6-1.1-4.6-1.3c-1-0.1-2.1-0.2-3.3-0.1c-3.9,0.2-10.5,3-19.6,8.6c-3.5-8.8-6-16.9-6.2-19.9
	c3.9-7.7,7.9-11.7,13.1-16.8c1.6-1.5,3.2-3.1,4.8-4.8c1.5-1.6,3-3.4,4.4-5.4c-1.6,4.3-3,8.9-3.5,12.9c-1.2,10.8,8.9,17.9,10,18.7
	l4,2.7l4.4-2.1c6-2.9,15.8-10.7,14.2-21.9c-0.6-4.3-4.7-16.4-7.9-25.1c10.2,9.8,17,15,32,18.3c2.6,0.6,6.4,1.3,11.3,2.3
	c8.5,1.7,28.1,5.5,42.7,9.4C248.3,64.7,244.1,74.2,241.2,80.7z"/>
<path class="st11" d="M156.1,65.5c0,0,10.6-5.1,9.5-13c-0.9-6-7.4-20.8-7.4-20.8s-7.3,14.2-8.4,23.1
	C149.1,60.8,156.1,65.5,156.1,65.5z"/>
<path class="st10" d="M271,31.5c-3.6,0.5-8.1,2.3-10.9,7.9c-1.7,3.4-4.7,9.8-7.9,16.8c2.9,0.8,5.6,1.6,8,2.3L271,31.5z"/>
<path class="st9" d="M264.8,62.1L277.3,31c-0.2,0.2-0.4,0.5-0.6,0.7c0,0-2.5-0.6-5.7-0.2l-10.5,26.3c-0.5,1.2,0.1,2.6,1.3,3.1
	L264.8,62.1z"/>
<path class="st9" d="M279.3,62.8l16.1-37c-0.6,0.5-1.1,1.2-1.5,1.8c0,0-2-0.6-4.8-0.8l-13.8,31.9c-0.5,1.1,0,2.3,1.1,2.8L279.3,62.8
	z"/>
<path class="st12" d="M230.3,87.7C230.3,87.8,230.3,87.8,230.3,87.7c2.5,0.3,5,0.6,7.4,1c0,0,0,0,0,0
	C235.3,88.4,232.8,88.1,230.3,87.7"/>
<path class="st13" d="M248.5,46.3c-0.3,0.7-1.7,3.8-3.6,8c-3.3,7.3-8,18-11.2,25.3c-2,4.6-3.4,7.8-3.4,8c2.5,0.3,5,0.6,7.4,1
	c0,0,0,0,0,0c0.3-0.6,1.6-3.6,3.5-7.9c2.9-6.5,7.1-16,11-24.5c1.3-2.8,2.5-5.5,3.7-8C253.5,47.6,251,47,248.5,46.3z"/>
<path class="st14" d="M255.9,48.2c-1.1,2.5-2.4,5.2-3.7,8c-3.9,8.5-8.1,18-11,24.5c-1.9,4.3-3.2,7.3-3.5,7.9
	C238.3,87.3,254.7,50.7,255.9,48.2C255.9,48.2,255.9,48.2,255.9,48.2"/>
<circle class="st15" cx="185.8" cy="58.7" r="6.5"/>
<path class="st15" d="M141.5,65.8c0.3,2.8-1.3,5.4-3.6,5.7s-4.5-1.7-4.8-4.5c-0.3-2.8,1.3-5.4,3.6-5.7C139,61,141.2,63,141.5,65.8z"
	/>
<circle class="st15" cx="205.4" cy="61.5" r="5.6"/>
<circle class="st15" cx="221.2" cy="64.3" r="4.7"/>
<circle class="st15" cx="235.2" cy="67.1" r="3.7"/>
<path class="st9" d="M237.8,296c-2.6,1.7-4.9,3.4-7.1,4.9c1.3,22.9,16.9,70.3,31.6,91.7c6.9-3.4,14.2-6.5,21.5-8.4
	c1-0.3,2-0.6,3-0.9c-12.3-13.4-30.7-72.2-32-93.3C248.3,291,242.4,292.9,237.8,296z"/>
<path class="st11" d="M249.3,297c0,3.2-2.5,5.8-5.7,5.8c-3.2,0-5.8-2.5-5.8-5.7c0-3.2,2.5-5.8,5.7-5.8
	C246.7,291.2,249.3,293.8,249.3,297z"/>
<path class="st11" d="M250.5,309c0.5,3.2-1.6,6.1-4.8,6.7c-3.2,0.5-6.1-1.6-6.6-4.8c-0.5-3.2,1.6-6.1,4.8-6.6
	C247,303.7,249.9,305.9,250.5,309z"/>
<path class="st11" d="M253.1,321.1c0.8,3.1-1,6.3-4.1,7.1c-3.1,0.8-6.3-1-7.1-4.1c-0.8-3.1,1-6.3,4.1-7.1
	C249.1,316.2,252.3,318,253.1,321.1z"/>
<path class="st11" d="M256.7,333.1c1,3-0.6,6.3-3.6,7.3c-3,1-6.3-0.6-7.3-3.6c-1-3,0.6-6.3,3.6-7.3
	C252.4,328.4,255.7,330.1,256.7,333.1z"/>
<path class="st11" d="M260.9,344.6c1.2,3-0.3,6.3-3.2,7.5c-3,1.2-6.3-0.3-7.5-3.2s0.3-6.3,3.2-7.5
	C256.4,340.2,259.7,341.7,260.9,344.6z"/>
<path class="st11" d="M265.7,355.9c1.3,2.9,0,6.3-2.9,7.7c-2.9,1.3-6.3,0-7.7-2.9c-1.3-2.9,0-6.3,2.9-7.7
	C261,351.7,264.4,353,265.7,355.9z"/>
<path class="st11" d="M271,366.9c1.5,2.9,0.3,6.3-2.5,7.8c-2.8,1.5-6.3,0.3-7.8-2.5c-1.5-2.9-0.3-6.3,2.5-7.8
	C266.1,362.9,269.6,364.1,271,366.9z"/>
<path class="st11" d="M277,377.8c1.6,2.8,0.7,6.3-2.1,7.9c-2.8,1.6-6.3,0.7-7.9-2.1c-1.6-2.8-0.7-6.3,2.1-7.9
	C271.8,374.1,275.4,375,277,377.8z"/>
<path class="st16" d="M151.5,464.9c-21.5,0.4-38.2-7.7-47.2-23c-10.2-17.1-25.7-23.4-35.7-20.8c-6.8,1.7-10.6,7.4-10.9,15.9
	c-0.2,7.5,6.3,17.4,17.6,26.6c20.3,16.6,55,29.9,87,22.3c51.2-12.1,97.5-49.6,117.5-93c-8.2,2.8-16.4,6.9-23.5,11
	C232.1,438.7,189.2,464.2,151.5,464.9z"/>
<path class="st17" d="M61.3,154.2c-0.3,0.1-0.4,0.2-0.4,0.2c0,0,0.2,0.4,1,0.9c1.5,1,7.4,3.7,23.4-0.5c-0.5-3.7-0.3-8.3,1.3-13.8
	C77.2,147.4,66.6,153,61.3,154.2z"/>
<path class="st0" d="M297.7,285c0.3,0,0.5,0.1,0.7,0.1c0-0.3,0.1-0.6,0.1-0.9C298.3,284.6,298.1,284.8,297.7,285z"/>
<g>
	<path class="st7" d="M166,283.6c-1.6,4.1,0.1,8.8,3.9,10.5c0.1,0,0.2,0,0.2,0.1c2.4-4.7,4.4-9.8,6-15c-0.1,0-0.1-0.1-0.2-0.1
		C172.1,277.4,167.6,279.5,166,283.6z"/>
	<path class="st7" d="M179.5,262.8c-4.1-0.8-8.2,2.1-9.1,6.4c-0.9,4.3,1.5,8.6,5.7,9.4c0.1,0,0.2,0,0.3,0c1.5-5.1,2.7-10.4,3.5-15.8
		C179.7,262.9,179.6,262.9,179.5,262.8z"/>
	<path class="st7" d="M172.4,254.4c-0.2,4.4,2.9,8,7.2,8c0.1,0,0.2,0,0.3,0c0.3-2.3,0.6-4.7,0.7-7.1c0.2-3,0.2-6,0.2-8.9
		c-0.1,0-0.2,0-0.4,0C176.1,246.4,172.6,250,172.4,254.4z"/>
	<path class="st7" d="M171.9,239.7c0.5,4.3,4.2,7.2,8.4,6.4c0.1,0,0.2-0.1,0.4-0.1c-0.2-5.4-0.8-10.6-1.7-15.6c-0.2,0-0.3,0-0.5,0
		C174.4,231.3,171.4,235.4,171.9,239.7z"/>
	<path class="st7" d="M169.1,225.7c1.2,4,5.4,6.1,9.4,4.5c0.1-0.1,0.3-0.1,0.4-0.2c-1-5.1-2.5-10-4.3-14.6c-0.2,0.1-0.3,0.1-0.5,0.1
		C170.1,217.1,167.9,221.7,169.1,225.7z"/>
	<path class="st7" d="M164,212.7c1.8,3.6,6.3,4.8,10,2.5c0.1-0.1,0.3-0.2,0.4-0.3c-1.9-4.7-4.2-9-6.8-13c-0.1,0.1-0.2,0.1-0.4,0.2
		C163.6,204.4,162.1,209.1,164,212.7z"/>
	<g>
		<path class="st17" d="M170.4,269.3c1-4.4,5-7.2,9.1-6.4c0.1,0,0.2,0.1,0.3,0.1c0-0.2,0-0.3,0.1-0.5c-0.1,0-0.2,0-0.3,0
			c-4.3,0-7.4-3.7-7.2-8c0.2-4.4,3.8-8,8-8c0.1,0,0.2,0,0.4,0c0-0.2,0-0.3,0-0.4c-0.1,0-0.2,0.1-0.4,0.1c-4.2,0.8-8-2.1-8.4-6.4
			c-0.5-4.3,2.5-8.4,6.6-9.2c0.2,0,0.3,0,0.5,0c0-0.2-0.1-0.3-0.1-0.5c-0.1,0.1-0.3,0.2-0.4,0.2c-4,1.6-8.2-0.5-9.4-4.5
			c-1.2-4,1-8.6,5-10.2c0.2-0.1,0.3-0.1,0.5-0.1c-0.1-0.2-0.1-0.3-0.2-0.5c-0.1,0.1-0.2,0.2-0.4,0.3c-3.7,2.3-8.2,1.1-10-2.5
			c-1.8-3.6-0.4-8.4,3.2-10.7c0.1-0.1,0.2-0.1,0.4-0.2c-0.1-0.1-0.2-0.3-0.2-0.4c-0.1,0.1-0.2,0.2-0.3,0.3
			c-3.3,2.9-7.8,2.7-10.3-0.3c-2.4-3.1-1.8-7.9,1.4-10.8c0.1-0.1,0.2-0.1,0.3-0.2c-0.1-0.1-0.2-0.2-0.3-0.3
			c-0.1,0.1-0.1,0.2-0.2,0.3c-2.7,3.4-7.2,4.2-10.1,1.8c-2.9-2.4-3.1-7.1-0.5-10.5c0,0,0.1-0.1,0.1-0.1c-0.1-0.1-0.2-0.1-0.3-0.2
			c0,0,0,0.1-0.1,0.1c-2,3.8-6.4,5.5-9.6,3.8c-3.3-1.7-4.4-6-2.4-9.8c-0.1,0-0.2-0.1-0.3-0.1c-1.3,4-5.2,6.5-8.8,5.6
			c-3.5-0.8-5.3-4.6-4.1-8.5c-0.1,0-0.2,0-0.3,0c-0.6,4-4,7.1-7.6,7.1c-3.6,0-6-3.1-5.7-7c-0.6,0.1-1.2,0.2-1.9,0.3
			c0.2,3.8-2.5,7.5-6,8.3c-3.5,0.8-6.5-1.4-6.9-5c-0.1,0-0.2,0.1-0.3,0.1c0.8,3.5-1.1,7.5-4.4,9.1c-3.3,1.6-6.6,0.1-7.7-3.1
			c-0.1,0.1-0.2,0.1-0.3,0.2c1.4,3.2,0.2,7.3-2.8,9.5c-2.9,2.2-6.5,1.6-8.2-1.3c-0.1,0.1-0.1,0.1-0.2,0.2c1.9,2.7,1.4,6.9-1.1,9.6
			c-2.6,2.7-6.3,2.9-8.4,0.5c-0.1,0.1-0.1,0.2-0.2,0.3c2.4,2.2,2.6,6.4,0.5,9.5c-2.2,3.2-5.9,4.1-8.4,2.1c0,0.1-0.1,0.1-0.1,0.2
			c2.8,1.6,3.7,5.6,2,9.1c-1.7,3.6-5.4,5.2-8.2,3.7c0,0.1-0.1,0.2-0.1,0.3c3.1,0.9,4.7,4.7,3.6,8.4c-1.1,3.8-4.6,6.1-7.7,5.2
			c0,0-0.1,0-0.1-0.1c0,0.1-0.1,0.2-0.1,0.4c0,0,0.1,0,0.1,0c3.3,0.3,5.4,3.6,4.9,7.5c-0.6,3.9-3.7,6.8-7,6.5c-0.1,0-0.2,0-0.3-0.1
			c0,0.1,0,0.3,0,0.4c0.1,0,0.2-0.1,0.3-0.1c3.3-0.4,6,2.5,6,6.4c0,3.9-2.7,7.4-6.1,7.7c-0.1,0-0.2,0-0.3,0c0,0.2,0,0.3,0,0.5
			c0.1,0,0.2-0.1,0.3-0.1c3.3-1,6.4,1.3,7,5.1c0.6,3.9-1.6,7.8-5,8.7c-0.1,0-0.3,0-0.4,0.1c0,0.2,0.1,0.3,0.1,0.5
			c0.1-0.1,0.2-0.2,0.3-0.2c3.2-1.7,6.7,0,7.8,3.6c1.2,3.7-0.5,8-3.7,9.6c-0.1,0.1-0.3,0.1-0.4,0.1c0.1,0.2,0.1,0.3,0.2,0.5
			c0.1-0.1,0.2-0.2,0.3-0.3c3-2.3,6.7-1.4,8.5,2c1.8,3.4,0.8,8-2.2,10.2c-0.1,0.1-0.3,0.2-0.4,0.2c0.1,0.1,0.2,0.3,0.2,0.4
			c0.1-0.1,0.2-0.3,0.3-0.4c2.6-2.9,6.6-2.8,8.9,0.1c2.3,3,2.1,7.7-0.6,10.6c-0.1,0.1-0.2,0.2-0.4,0.3c0.1,0.1,0.2,0.2,0.4,0.4
			c0.1-0.1,0.1-0.3,0.2-0.4c2.2-3.4,6.2-4.2,9-1.8c2.8,2.4,3.4,7.1,1.2,10.6c-0.1,0.1-0.2,0.2-0.3,0.3c0.1,0.1,0.3,0.2,0.4,0.3
			c0-0.1,0.1-0.3,0.1-0.4c1.6-3.9,5.5-5.5,8.7-3.8c3.3,1.7,4.7,6.3,3.1,10.2c0,0.1-0.1,0.2-0.1,0.3c0.1,0.1,0.3,0.1,0.4,0.2
			c0-0.1,0-0.2,0-0.3c0.9-4.2,4.5-6.8,8.1-5.9c3.6,0.9,5.9,5.1,5,9.3c0,0.1,0,0.1-0.1,0.2c0.1,0,0.2,0,0.3,0c0,0,0-0.1,0-0.1
			c0.1-4.4,3.2-7.8,6.9-7.8c3.8,0,6.9,3.5,6.8,7.9c0,0.1,0,0.2,0,0.3c0.1,0,0.3,0,0.4-0.1c0,0,0-0.1,0-0.1c-0.7-4.3,1.9-8.4,5.6-9.3
			c3.8-0.8,7.5,2,8.2,6.3c0,0,0,0.1,0,0.1c0.1,0,0.2-0.1,0.4-0.1c0,0,0-0.1,0-0.1c-1.5-4.1,0.3-8.8,3.9-10.5
			c3.7-1.7,7.9,0.1,9.5,4.2c0,0,0,0.1,0,0.1c0.1-0.1,0.2-0.1,0.4-0.2c0,0,0-0.1-0.1-0.1c-2.3-3.7-1.4-8.7,2-11.2
			c3.3-2.5,7.9-1.7,10.2,2c0,0,0,0.1,0.1,0.1c0.1-0.1,0.2-0.2,0.3-0.3c0,0-0.1-0.1-0.1-0.1c-2.9-3.1-2.9-8.2,0-11.4
			c2.9-3.2,7.6-3.4,10.6-0.2c0,0,0.1,0.1,0.1,0.2c0.1-0.1,0.2-0.2,0.3-0.3c-0.1,0-0.1-0.1-0.2-0.1c-3.5-2.5-4.3-7.5-2-11.2
			c2.3-3.8,7-4.9,10.5-2.5c0.1,0.1,0.1,0.1,0.2,0.2c0.1-0.1,0.1-0.3,0.2-0.4c-0.1,0-0.2,0-0.2-0.1c-3.9-1.7-5.6-6.4-3.9-10.5
			c1.7-4.1,6.1-6.2,10-4.6c0.1,0,0.1,0.1,0.2,0.1c0-0.1,0.1-0.3,0.1-0.4c-0.1,0-0.2,0-0.3,0C171.9,277.8,169.4,273.6,170.4,269.3z"
			/>
		<path class="st7" d="M100.4,181.2c3.5-0.8,6.1-4.5,6-8.3c-4.4,0.7-8.7,1.8-12.9,3.3C94,179.9,97,182.1,100.4,181.2z"/>
		<path class="st7" d="M88.8,185.4c3.3-1.6,5.2-5.6,4.4-9.1c-4.2,1.6-8.3,3.6-12.1,6C82.2,185.6,85.6,187,88.8,185.4z"/>
		<path class="st7" d="M78,192c2.9-2.2,4.1-6.3,2.8-9.5c-3.8,2.4-7.5,5.1-11,8.2C71.5,193.6,75.1,194.2,78,192z"/>
		<path class="st7" d="M68.5,200.5c2.5-2.7,3-6.9,1.1-9.6C66.2,194,63,197.3,60,201C62.2,203.4,65.9,203.2,68.5,200.5z"/>
		<path class="st7" d="M60.3,210.8c2.1-3.1,1.9-7.3-0.5-9.5c-2.9,3.6-5.6,7.5-8,11.6C54.4,214.8,58.1,213.9,60.3,210.8z"/>
		<path class="st7" d="M53.8,222.2c1.6-3.5,0.8-7.5-2-9.1c-2.3,4.1-4.4,8.3-6.2,12.8C48.4,227.4,52.1,225.8,53.8,222.2z"/>
		<path class="st7" d="M49,234.6c1.1-3.8-0.4-7.5-3.6-8.4c-1.7,4.4-3.1,8.9-4.2,13.6c0,0,0.1,0,0.1,0.1
			C44.4,240.7,47.9,238.4,49,234.6z"/>
		<path class="st7" d="M46.1,247.6c0.6-3.9-1.6-7.3-4.9-7.5c0,0-0.1,0-0.1,0c-1,4.2-1.7,8.6-2.2,13c0,0.3,0,0.7-0.1,1
			c0.1,0,0.2,0,0.3,0.1C42.4,254.4,45.5,251.5,46.1,247.6z"/>
		<path class="st7" d="M45.1,260.8c0-3.9-2.6-6.8-6-6.4c-0.1,0-0.2,0-0.3,0.1c-0.4,4.8-0.4,9.5-0.2,14.1c0.1,0,0.2,0,0.3,0
			C42.4,268.2,45.1,264.8,45.1,260.8z"/>
		<path class="st7" d="M46,274c-0.6-3.8-3.7-6.1-7-5.1c-0.1,0-0.2,0.1-0.3,0.1c0.3,4.7,1,9.3,2,13.8c0.1,0,0.3,0,0.4-0.1
			C44.4,281.7,46.6,277.8,46,274z"/>
		<path class="st7" d="M48.9,286.6c-1.2-3.6-4.6-5.3-7.8-3.6c-0.1,0.1-0.2,0.2-0.3,0.2c1,4.6,2.4,9,4.1,13.1
			c0.1-0.1,0.3-0.1,0.4-0.1C48.5,294.6,50.1,290.3,48.9,286.6z"/>
		<path class="st7" d="M53.9,298.5c-1.7-3.3-5.5-4.3-8.5-2c-0.1,0.1-0.2,0.2-0.3,0.3c1.8,4.3,3.8,8.3,6.2,12.1
			c0.1-0.1,0.3-0.1,0.4-0.2C54.6,306.4,55.6,301.9,53.9,298.5z"/>
		<path class="st7" d="M60.7,309.1c-2.3-2.9-6.2-3-8.9-0.1c-0.1,0.1-0.2,0.3-0.3,0.4c2.4,3.8,5.2,7.4,8.2,10.6
			c0.1-0.1,0.2-0.2,0.4-0.3C62.7,316.8,63,312,60.7,309.1z"/>
		<path class="st7" d="M69.3,318.1c-2.8-2.4-6.8-1.6-9,1.8c-0.1,0.1-0.1,0.3-0.2,0.4c3.1,3.3,6.5,6.2,10.1,8.7
			c0.1-0.1,0.2-0.2,0.3-0.3C72.7,325.3,72.1,320.5,69.3,318.1z"/>
		<path class="st7" d="M79.5,325c-3.2-1.7-7.1,0-8.7,3.8c-0.1,0.1-0.1,0.3-0.1,0.4c3.7,2.5,7.6,4.6,11.8,6.2c0-0.1,0.1-0.2,0.1-0.3
			C84.1,331.3,82.8,326.7,79.5,325z"/>
		<path class="st7" d="M90.9,329.4c-3.6-0.9-7.2,1.7-8.1,5.9c0,0.1,0,0.2,0,0.3c4.1,1.6,8.5,2.7,13,3.3c0-0.1,0-0.1,0.1-0.2
			C96.8,334.5,94.5,330.4,90.9,329.4z"/>
		<path class="st7" d="M103.1,331.1c-3.8,0-6.9,3.5-6.9,7.8c0,0,0,0.1,0,0.1c0.7,0.1,1.4,0.2,2.1,0.3c3.9,0.4,7.8,0.3,11.6,0
			c0-0.1,0-0.2,0-0.3C110,334.6,106.9,331.1,103.1,331.1z"/>
		<path class="st7" d="M115.9,329.8c-3.8,0.8-6.3,4.9-5.6,9.3c0,0,0,0.1,0,0.1c4.7-0.5,9.4-1.5,13.9-3c0,0,0-0.1,0-0.1
			C123.5,331.7,119.8,328.9,115.9,329.8z"/>
		<path class="st7" d="M128.4,325.5c-3.6,1.7-5.4,6.4-3.9,10.5c0,0,0,0.1,0,0.1c4.6-1.6,9.1-3.7,13.3-6.2c0,0,0-0.1,0-0.1
			C136.3,325.6,132.1,323.7,128.4,325.5z"/>
		<path class="st7" d="M140.1,318.3c-3.3,2.5-4.2,7.5-2,11.2c0,0,0,0.1,0.1,0.1c4.3-2.6,8.4-5.7,12.2-9.1c0,0,0-0.1-0.1-0.1
			C148,316.7,143.5,315.8,140.1,318.3z"/>
		<path class="st7" d="M150.5,308.7c-2.9,3.2-2.9,8.3,0,11.4c0,0,0.1,0.1,0.1,0.1c3.8-3.5,7.3-7.4,10.5-11.6c0,0-0.1-0.1-0.1-0.2
			C158.2,305.3,153.4,305.4,150.5,308.7z"/>
		<path class="st7" d="M159.2,296.9c-2.3,3.7-1.4,8.7,2,11.2c0.1,0,0.1,0.1,0.2,0.1c3.2-4.2,6-8.8,8.4-13.6
			c-0.1-0.1-0.1-0.1-0.2-0.2C166.2,292,161.6,293.1,159.2,296.9z"/>
		<path class="st7" d="M156.8,201.5c2.4,3.1,7,3.3,10.3,0.3c0.1-0.1,0.2-0.2,0.3-0.3c-2.7-4-5.6-7.7-8.9-11
			c-0.1,0.1-0.2,0.1-0.3,0.2C154.9,193.6,154.3,198.4,156.8,201.5z"/>
		<path class="st7" d="M147.8,192.2c2.9,2.4,7.5,1.7,10.1-1.8c0.1-0.1,0.1-0.2,0.2-0.3c-3.3-3.3-6.9-6.1-10.7-8.6
			c0,0-0.1,0.1-0.1,0.1C144.6,185.1,144.9,189.8,147.8,192.2z"/>
		<path class="st7" d="M137.4,185.4c3.3,1.7,7.6,0,9.6-3.8c0,0,0-0.1,0.1-0.1c-3.8-2.4-7.8-4.4-12.1-5.8
			C133,179.3,134.1,183.7,137.4,185.4z"/>
		<path class="st7" d="M125.9,181.1c3.5,0.9,7.5-1.6,8.8-5.6c-4.1-1.4-8.5-2.4-12.9-2.9C120.6,176.5,122.4,180.3,125.9,181.1z"/>
		<path class="st7" d="M113.9,179.7c3.6,0,7-3.1,7.6-7.1c-3.1-0.3-6.3-0.4-9.6-0.2c-1.2,0.1-2.4,0.2-3.6,0.3
			C107.9,176.5,110.4,179.7,113.9,179.7z"/>
	</g>
</g>
<path class="st18" d="M104.2,331.3c-5.6-0.1-10.6-3.4-13.7-9.1c-1.7-3-3.6-8.2-3.7-15.9c-6.4,6.6-12.2,7.7-15.2,7.7
	c-7.6,0-13.6-6.1-14.8-14.8c-0.9-6.5,0.9-14.6,6.9-22.4c-5.5-0.1-10.1-2-13.4-5.5c-3.3-3.5-5.1-8.5-4.9-13.8
	c0.4-9.5,7.2-19.6,19.9-21.2c-5.4-7-6.4-14.6-5.1-20.9c1.8-8.4,8.1-14.7,15.4-15.5c2.9-0.3,8.6,0.1,14.4,5.8
	c0.6-7.2,2.7-12.1,4.5-15.1c3.4-5.6,8.3-9.1,13.6-9.8c5.4-0.7,10.4,1.8,13.6,6.7c1.8,2.7,3.8,7.4,4,14.8c6.6-7.1,12.8-8.8,16-9.1
	c8.4-0.9,15.5,4.6,17.2,13.4c1.3,6.7-0.5,15.3-7.3,23.9c6.4-0.1,12,1.7,16.1,5.3c4.2,3.7,6.7,9.2,6.7,15.1c0,10.7-8.2,22-23.4,23.2
	c6.7,8.1,8.3,16.8,6.8,23.9c-1.9,9.5-9.4,16.2-18,16.2c-3.4,0-9.8-1.1-16.4-8.1c-0.5,7.9-2.8,13.1-4.8,16.2
	C115,328.2,109.7,331.4,104.2,331.3z"/>
<path class="st19" d="M116.4,227.2c22.2-59.3-36.5-52-18.8,1.4c-17.7-53.4-57.8-3.4-13.4,16.2c-44.4-19.6-47.5,46.5-0.7,21.8
	C36.7,291.3,74,340.7,96,281.8c-22.1,58.9,39.3,60.5,19.1-0.5c20.2,61,68.2,7.3,14.2-16.6c54,23.8,54.4-51.2,0.5-22.6
	C183.7,213.5,138.6,168,116.4,227.2z"/>
<path class="st7" d="M106.3,249c-4.4,0.3-9.6-8.9-9.4-16.5c0.1-4.3,5.3-18.2,10.5-30.6c4.7,11.5,9.4,24.7,9.3,29.1
	C116.5,238.7,110.8,248.7,106.3,249z"/>
<path class="st7" d="M98,252.7c-4.4,0.3-10-2-12.9-5.2c-2.6-2.9-7.2-15.7-10.8-27.4c10.6,3.6,22.2,8.3,24.9,11.1
	c2.2,2.4,4.1,6.6,4.8,10.8c0.6,3.9,0.1,7.2-1.3,8.9C101.5,252.2,99.5,252.6,98,252.7z"/>
<path class="st7" d="M85.6,266.6c-3.8,0.2-15.4-4.6-25.5-9.4c10.4-6,22.3-12.1,26.1-12.3c6.8-0.5,15.1,5,15,10
	C101.1,259.8,92.5,266.3,85.6,266.6z"/>
<path class="st7" d="M72.1,293.6c4.5-12.7,9.9-26.3,12.7-29.5c3.1-3.6,8.8-6.5,13.2-6.7c1.5-0.1,3.5,0.1,4.6,1.4
	c1.4,1.5,1.7,4.8,0.9,8.8c-0.9,4.3-3,8.9-5.4,11.6C95.3,282.3,83.1,288.5,72.1,293.6z"/>
<path class="st7" d="M105,308.9c-4.8-12.6-9.3-26.4-9.2-30.8c0.2-7.8,5.9-17.7,10.3-18c4.5-0.2,9.9,9.2,9.7,17.2
	C115.7,281.8,110.4,296.1,105,308.9z"/>
<path class="st7" d="M140.7,291.9c-12-4.7-24.6-10.3-27.4-13.4c-2.3-2.6-4.3-7-5-11.3c-0.6-4-0.2-7.3,1.3-9c1.2-1.4,3.3-1.8,4.8-1.9
	c4.6-0.3,10.5,2.1,13.7,5.5C131,264.9,136.3,278.8,140.7,291.9z"/>
<path class="st7" d="M127,264.6c-7.3,0.3-15.9-5.4-15.8-10.4c0.1-5,9-11.7,16.2-12.2c4.1-0.3,17.1,4.5,28.9,9.6
	C144.3,258.1,131.2,264.4,127,264.6z"/>
<path class="st7" d="M114.5,251.7c-1.5,0.1-3.5-0.1-4.7-1.3c-1.4-1.5-1.7-4.8-0.9-8.8c0.9-4.3,3-8.8,5.4-11.6
	c2.9-3.3,15.5-10.2,27.4-16c-4.7,13.2-10.3,27.4-13.3,30.7C125.1,248.4,119.1,251.5,114.5,251.7z"/>
<path class="st7" d="M119.8,267.5c1.3,3.8-0.5,10.7-4.9,12.7c-4.4,2-9.6-1.5-10.9-5.2c-1.2-3.7,2.3-20.4,2.3-20.4
	S118.5,263.7,119.8,267.5z"/>
<path class="st7" d="M124.8,252.3c3.4,1.4,6.5,7.4,4.5,12.3c-2,4.9-8.3,6.8-11.7,5.3c-3.3-1.5-11.4-15.3-11.4-15.3
	S121.4,250.8,124.8,252.3z"/>
<path class="st7" d="M118.8,238.5c3.5-1.7,9.6-0.3,11.3,4.4c1.7,4.7-1.9,10.9-5.4,12.6c-3.5,1.7-18.4-1-18.4-1
	S115.3,240.2,118.8,238.5z"/>
<path class="st7" d="M105.6,234.4c1.5-3.7,7-7.6,11.2-5.9c4.2,1.7,5.5,8.4,4,12.2c-1.5,3.8-14.5,13.8-14.5,13.8
	S104.1,238.2,105.6,234.4z"/>
<path class="st7" d="M93.1,242c-1.2-3.6,0.6-10.2,4.8-12.4c4.2-2.2,9.4,1,10.6,4.6c1.2,3.6-2.2,20.3-2.2,20.3S94.3,245.6,93.1,242z"
	/>
<path class="st7" d="M88.2,256.7c-3.1-1.4-5.9-7.1-4-11.8c1.9-4.7,7.8-6.6,11-5.3c3.2,1.4,11.1,14.8,11.1,14.8
	S91.4,258.1,88.2,256.7z"/>
<path class="st7" d="M93.8,270.3c-3.3,1.6-9.1,0-10.6-4.6c-1.5-4.6,1.9-10.5,5.2-12.2c3.3-1.6,17.8,0.9,17.8,0.9
	S97.1,268.7,93.8,270.3z"/>
<path class="st7" d="M106.8,274.9c-1.5,3.8-7,7.5-11.1,5.5c-4.1-1.9-5.3-8.6-3.8-12.3c1.5-3.7,14.3-13.6,14.3-13.6
	S108.4,271.1,106.8,274.9z"/>
<path class="st20" d="M108,259.8c4.4,3.6,8.6,7.5,9.1,8.9c0.8,2.3-0.4,7.3-3.3,8.6c-2.8,1.3-6.5-1.3-7.3-3.6
	C106.1,272.3,106.9,266.1,108,259.8z"/>
<path class="st20" d="M110.9,256.6c5.7-1.2,11.3-1.9,12.6-1.4c0.9,0.4,2.1,1.6,2.8,3.4c0.7,1.7,0.8,3.5,0.3,4.9
	c-0.7,1.7-2.2,2.6-3.1,3c-1.9,0.9-3.8,0.9-4.8,0.5C117.5,266.3,114.1,261.6,110.9,256.6z"/>
<path class="st20" d="M119.7,241.3c2.1-1,6.5-0.1,7.6,2.9c1.1,3-1.5,7.4-3.7,8.4c-1.4,0.6-7,0.2-12.6-0.5
	C114.6,246.9,118.4,242.1,119.7,241.3z"/>
<path class="st20" d="M111.7,231.9c0.8-0.4,2.4-1,3.9-0.4c1.2,0.5,2.1,1.8,2.6,3.5c0.5,1.9,0.4,3.7,0,4.7c-0.7,1.5-5.1,5.6-9.8,9.5
	c-0.6-6.1-0.9-12.2-0.3-13.7C108.5,234.4,109.8,232.8,111.7,231.9z"/>
<path class="st20" d="M98.8,232.4c2.7-1.4,6.3,1,7.1,3.2c0.4,1.4-0.3,7.5-1.4,13.7c-4.3-3.5-8.3-7.2-8.8-8.6
	C94.9,238.5,96.1,233.7,98.8,232.4z"/>
<path class="st20" d="M89.5,243.1c1.8-0.9,3.6-0.9,4.5-0.5c1.2,0.6,4.5,5.1,7.5,10c-5.5,1.1-10.9,1.9-12.2,1.4
	c-0.8-0.4-1.9-1.5-2.6-3.2c-0.6-1.6-0.7-3.3-0.2-4.6C87.2,244.4,88.7,243.5,89.5,243.1z"/>
<path class="st20" d="M89.3,256.4c1.3-0.6,6.6-0.2,12.1,0.5c-3.5,5.1-7.2,9.9-8.5,10.6c-2,1-6.2,0-7.1-3
	C84.8,261.6,87.3,257.4,89.3,256.4z"/>
<path class="st20" d="M104,259.9c0.6,6.2,0.8,12.3,0.3,13.8c-0.4,1.1-1.8,2.6-3.6,3.5c-0.8,0.4-2.4,0.9-3.8,0.3
	c-1.1-0.5-2.1-1.9-2.5-3.7c-0.5-1.9-0.3-3.7,0.1-4.7C95,267.8,99.4,263.8,104,259.9z"/>
<path class="st7" d="M99.1,258c-1.4-4.2,0.6-9.2,4.5-11.2c3.9-1.9,8.3-0.1,9.8,4.2c1.5,4.3-0.6,9.4-4.6,11.3
	C104.8,264.2,100.5,262.3,99.1,258z"/>
<path class="st2" d="M101.3,257.6c-1.3-2.9-0.2-6.7,2.5-8.4c2.7-1.7,6-0.8,7.4,2.1c1.4,2.9,0.2,6.7-2.5,8.5
	C105.9,261.6,102.6,260.6,101.3,257.6z"/>
<path class="st21" d="M93.2,234c-0.1,2.6-2,4.9-4.3,5c-2.3,0.2-4.1-1.8-4-4.4c0.1-2.6,2-4.8,4.3-5C91.4,229.4,93.2,231.4,93.2,234z"
	/>
<path class="st21" d="M111.2,224.6c-0.1,2.6-2,4.9-4.4,5.1c-2.4,0.2-4.2-1.8-4.2-4.4c0.1-2.6,2-4.9,4.4-5.1
	C109.4,220,111.2,222,111.2,224.6z"/>
<path class="st21" d="M84.1,255.1c-0.1,2.6-2,4.9-4.3,5c-2.3,0.1-4.1-1.9-4-4.5c0.1-2.6,2-4.8,4.3-5
	C82.4,250.4,84.2,252.4,84.1,255.1z"/>
<path class="st21" d="M92,275.4c-0.1,2.7-2,4.9-4.4,5c-2.3,0.1-4.2-2-4.1-4.7c0.1-2.7,2-4.9,4.3-5C90.2,270.7,92,272.7,92,275.4z"/>
<path class="st21" d="M121.9,231.8c0,2.7,1.9,4.7,4.4,4.5c2.5-0.2,4.5-2.5,4.6-5.2c0-2.7-1.9-4.7-4.4-4.5
	C124,226.8,121.9,229.1,121.9,231.8z"/>
<path class="st21" d="M130.6,252.3c0,2.7,2,4.8,4.5,4.7c2.5-0.1,4.6-2.5,4.7-5.2c0-2.7-2-4.8-4.5-4.7
	C132.7,247.3,130.7,249.6,130.6,252.3z"/>
<path class="st21" d="M121.2,274.3c0,2.7,1.9,4.9,4.4,4.8c2.5-0.1,4.6-2.4,4.6-5.2c0-2.8-2-4.9-4.5-4.8
	C123.3,269.2,121.3,271.5,121.2,274.3z"/>
<path class="st21" d="M109.9,284.6c-0.1,2.7-2.1,5-4.5,5.1c-2.4,0.1-4.3-2.1-4.3-4.8c0.1-2.7,2.1-5,4.5-5.1
	C108.1,279.7,110,281.8,109.9,284.6z"/>
<path class="st22" d="M64.2,192.2c1.1,5.8,5,7.1,8,7.1c4,0,8.6-2.1,12.2-5.8c4-4,5.8-9.3,4.8-14.2c-0.6-3-2.3-5.3-4.4-6.2
	c-0.4-0.1-0.8-0.2-1.4-0.2c-3.9,0-10.9,3.5-15.5,9.1C66.1,184,63.4,188,64.2,192.2"/>
<path class="st22" d="M209.9,345.1l-0.1-0.4c-0.3-1.4-0.7-2.8-1.1-4.2c-3.5-12.8-20.4-38.1-33.3-38.1c-2,0-3.8,0.6-5.6,1.8
	c-11.3,7.5-9,21.1-4.2,41c1.2,4.9,2.4,10,3.1,14.7c1,6.2,0.7,13.1,0.5,19.7c-0.3,10.4-0.7,21.1,3.8,25.7c2,2,5,3,9.3,3
	c1.2,0,2.4-0.1,3.6-0.2c0.3,0,0.7-0.1,1-0.2c0.8-0.1,1.6-0.3,2.3-0.5c0.3-0.1,0.7-0.2,1-0.3c0.8-0.2,1.5-0.5,2.2-0.8
	c0.2-0.1,0.4-0.2,0.6-0.3c0.9-0.4,1.8-0.9,2.6-1.4l0.2-0.2c0.7-0.5,1.4-0.9,2-1.5c0.2-0.2,0.4-0.3,0.6-0.5c0.5-0.4,1-0.9,1.5-1.4
	l0.5-0.5c0.5-0.6,1-1.1,1.5-1.7l0.2-0.2c0.5-0.7,1-1.3,1.5-2l0.3-0.5c0.3-0.5,0.6-1,0.9-1.5c0.1-0.2,0.3-0.5,0.4-0.7
	c0.2-0.4,0.4-0.8,0.6-1.2c0.1-0.3,0.3-0.5,0.4-0.8c0.2-0.4,0.3-0.7,0.4-1c0.3-0.7,0.6-1.4,0.8-2.1l0-0.1c0.2-0.5,0.3-0.9,0.4-1.3
	c0.5-1.8,0.8-3,0.8-3.2c0-0.2,0.1-0.4,0.2-0.6c3.6-11.3,5-20.8,2.1-34.9C210.5,347.7,210.2,346.4,209.9,345.1"/>
<path class="st22" d="M14.9,306.5c-3.6,4.4-4.8,10.7-3.4,17.6c3.6,17.6,35,51.8,56.2,56.9c1.6,0.4,3.1,0.6,4.4,0.6
	c3.3,0,4.5-1.3,5.2-2.3c2.6-4,1.1-12.6-0.9-17.3c-5.9-13.4-24.5-48.6-33.9-55.9c-4.7-3.6-9.8-5.6-14.8-5.6
	C22.5,300.6,18,302.7,14.9,306.5"/>
<path class="st7" d="M188.2,174.9c2.3,5.6,3.8,13.5,4.8,19.4c6.4-1.4,13.2-2.9,20-3.8l-4.2-5.6l-2.1-2.8l1.6-3.1l4.3-8.3l-9.9-4.4
	l-5.3-2.4l2.5-5.2l1.5-3.1c-7.6,1-14.9,3-21.7,5.7C182.9,165.2,186.2,170,188.2,174.9z"/>
<path class="st0" d="M168.2,198c-7.6-0.8-13.7-4.5-15.2-9.1c-1.5-4.5,1.5-10.4,8.4-16.4c3.8-3.3,8.2-6.2,13-8.6
	c-2.6-3-4.7-5.1-5-5.4c-4.7,2.5-9,5.3-12.8,8.6c-11.7,10.3-12.2,18.7-10.5,24c2.4,7.5,10.7,13,21.2,14.1c5.7,0.6,12.9-0.7,21.1-2.4
	c-0.1-1-0.5-3.7-1-7.1C180,197.2,173,198.5,168.2,198z"/>
<path class="st5" d="M174.5,163.8c-4.8,2.4-9.2,5.3-13,8.6c-6.9,6-9.8,11.9-8.4,16.4c1.5,4.7,7.6,8.4,15.2,9.1
	c4.8,0.5,11.7-0.8,19.3-2.4c-0.9-5.7-2.4-13.3-4.5-18.5C181.1,172.2,177.5,167.3,174.5,163.8z"/>
<path class="st4" d="M324.8,97.2c-14.3,0-34.7-0.1-47.3-1.1c-1.1-0.1-2.1-0.1-2.7,0c0.9,1.5,3.2,4.2,6.9,7.2l0.9,0.8
	c24.9,21.2,43.6,25.6,54.9,25.6h0c4,0,8-0.6,11.6-1.7c17.5-5.2,28.2-16.1,32.4-24.4c1.6-3.1,1.9-5.2,1.9-6.2
	c-2.4-0.2-8.6-0.4-18.4-0.4c-5.3,0-11.2,0-17.6,0.1C340.3,97.2,332.5,97.2,324.8,97.2"/>
<path class="st17" d="M175.4,302.3c-2,0-3.8,0.6-5.6,1.8c-11.3,7.5-9,21.1-4.2,41c1.2,4.9,2.4,10,3.1,14.7c1,6.2,0.7,13.1,0.5,19.7
	c-0.3,10.4-0.7,21.1,3.8,25.7c2,2,5,3,9.3,3c13.8,0,20.6-9.2,23.8-16.1c0.2-0.4,0.3-0.7,0.5-1c0,0,0,0,0,0c0.1-0.3,0.3-0.7,0.4-1
	c0,0,0,0,0,0c0.1-0.3,0.2-0.6,0.3-0.9c0,0,0-0.1,0-0.1c0.1-0.3,0.2-0.5,0.3-0.8c0,0,0-0.1,0-0.1c0.1-0.2,0.2-0.5,0.2-0.7
	c0,0,0-0.1,0-0.1c0.1-0.2,0.1-0.4,0.2-0.6c0-0.1,0-0.1,0-0.1c0.1-0.2,0.1-0.4,0.1-0.5c0,0,0-0.1,0-0.1c0-0.2,0.1-0.3,0.1-0.5
	c0.1-0.6,0.2-1,0.2-1.1c0-0.2,0.1-0.4,0.2-0.6c4.3-13.5,5.5-24.4,0-43.3C205.1,327.7,188.3,302.3,175.4,302.3z"/>
<path class="st17" d="M61.3,154.2c-0.3,0.1-0.4,0.2-0.4,0.2c0,0,0.2,0.4,1,0.9c1.5,1,7.4,3.7,23.4-0.5c-0.5-3.7-0.3-8.3,1.3-13.8
	C77.2,147.4,66.6,153,61.3,154.2z"/>
<path class="st17" d="M211.7,147.8c0.1,0,0.2,0,0.3,0c0.3,0,0.6,0,0.8-0.1c8.7-0.2,17.3,0.7,25.5,2.7c0.4-1.5,0.6-3,0.7-4
	c-5.7-3.5-25.5-15.6-31.1-19.2C207.7,129.8,208.1,135.9,211.7,147.8C211.7,147.7,211.7,147.7,211.7,147.8z"/>
<path class="st17" d="M61.3,154.2c-0.3,0.1-0.4,0.2-0.4,0.2c0,0,0.2,0.4,1,0.9c1.5,1,7.4,3.7,23.4-0.5c-0.5-3.7-0.3-8.3,1.3-13.8
	C77.2,147.4,66.6,153,61.3,154.2z"/>
<path class="st17" d="M175.4,302.3c-2,0-3.8,0.6-5.6,1.8c-11.3,7.5-9,21.1-4.2,41c1.2,4.9,2.4,10,3.1,14.7c1,6.2,0.7,13.1,0.5,19.7
	c-0.3,10.4-0.7,21.1,3.8,25.7c2,2,5,3,9.3,3c13.8,0,20.6-9.2,23.8-16.1c0.2-0.4,0.3-0.7,0.5-1c0,0,0,0,0,0c0.1-0.3,0.3-0.7,0.4-1
	c0,0,0,0,0,0c0.1-0.3,0.2-0.6,0.3-0.9c0,0,0-0.1,0-0.1c0.1-0.3,0.2-0.5,0.3-0.8c0,0,0-0.1,0-0.1c0.1-0.2,0.2-0.5,0.2-0.7
	c0,0,0-0.1,0-0.1c0.1-0.2,0.1-0.4,0.2-0.6c0-0.1,0-0.1,0-0.1c0.1-0.2,0.1-0.4,0.1-0.5c0,0,0-0.1,0-0.1c0-0.2,0.1-0.3,0.1-0.5
	c0.1-0.6,0.2-1,0.2-1.1c0-0.2,0.1-0.4,0.2-0.6c4.3-13.5,5.5-24.4,0-43.3C205.1,327.7,188.3,302.3,175.4,302.3z"/>
<path class="st17" d="M150.8,86.3c1.3,0.4,2.2,1,2.8,1.5c0.6,0.4,0.8,0.6,1.3,0.6c0.9,0.1,1.9-0.5,3.7-1.6c2.5-1.5,5.8-3.7,11.1-4.3
	c10.9-1.3,45.7,0.1,65,3.3c8,1.3,14.4,2.6,19.6,3.6c6.4,1.2,11.4,2.2,13.1,2c0.2,0,0.4,0,0.6,0c0,0,0.2,0,0.5,0
	c-0.1,0.1-0.2,0.3-0.3,0.4c0.2-0.2,0.3-0.4,0.5-0.6c1.6-1,4.6-1.7,8.6-1.9c1.5-0.9,2.9-1.9,4-3.3c5.4-6.6,37.9-64,37.9-64
	s-17.2-2.2-23.9,4c-0.6,0.5-1.1,1.2-1.5,1.8c0,0-2-0.6-4.8-0.8c-3.7-0.2-8.6,0.3-11.8,4c-0.2,0.2-0.4,0.5-0.6,0.7
	c0,0-2.5-0.6-5.7-0.2c-3.6,0.5-8.1,2.3-10.9,7.9c-1,2-2.5,5.2-4.2,8.8c-19.3-5.2-45.3-9.7-53.8-11.6c-14.1-3.1-19.2-7.4-31.5-19.6
	c-12.3-12.2-20.9,1.6-20.9,1.6s-5.7,14.4-13.1,22.2c-7.4,7.8-13.9,12.4-19.8,24.6c-2.1,4.4,4.4,21.2,8,29.9c0.1,0.1,0.1,0.2,0.2,0.3
	c0,0,0,0,0,0c0,0,0,0,0,0c6.2-3.7,17.8-9.4,22.8-9.6C148.9,85.9,149.9,86,150.8,86.3z"/>
<path class="st17" d="M268,92c0,0.1-0.1,0.1-0.1,0.2c0,0,0,0,0,0C268,92.2,268,92.1,268,92z"/>
<path class="st17" d="M211.7,147.8c0.1,0,0.2,0,0.3,0c0.3,0,0.6,0,0.8-0.1c8.7-0.2,17.3,0.7,25.5,2.7c0.4-1.5,0.6-3,0.7-4
	c-5.7-3.5-25.5-15.6-31.1-19.2C207.7,129.8,208.1,135.9,211.7,147.8C211.7,147.7,211.7,147.7,211.7,147.8z"/>
<path class="st0" d="M123.9,96.1c0.3-0.2,0.6-0.4,1-0.6c0,0,0,0,0,0C124.5,95.7,124.2,95.9,123.9,96.1z"/>
<path class="st0" d="M124.7,95.2c0,0.1,0.1,0.2,0.1,0.3c0,0,0,0,0,0C124.8,95.4,124.8,95.3,124.7,95.2z"/>
<polygon class="st0" points="336.9,147.7 336.9,147.7 336.9,147.7 "/>
<path class="st17" d="M84.8,173.1c-0.4-0.1-0.8-0.2-1.4-0.2c-3.9,0-10.9,3.5-15.5,9.1c-1.7,2-4.4,6.1-3.7,10.2c1.1,5.8,5,7.1,8,7.1
	c4,0,8.6-2.1,12.2-5.8c4-4,5.8-9.3,4.8-14.2C88.6,176.2,86.9,173.9,84.8,173.1z"/>
<path class="st17" d="M211.7,147.8c0.1,0,0.2,0,0.3,0c0.3,0,0.6,0,0.8-0.1c8.7-0.2,17.3,0.7,25.5,2.7c0.4-1.5,0.6-3,0.7-4
	c-5.7-3.5-25.5-15.6-31.1-19.2C207.7,129.8,208.1,135.9,211.7,147.8C211.7,147.7,211.7,147.7,211.7,147.8z"/>
<path class="st17" d="M61.3,154.2c-0.3,0.1-0.4,0.2-0.4,0.2c0,0,0.2,0.4,1,0.9c1.5,1,7.4,3.7,23.4-0.5c-0.5-3.7-0.3-8.3,1.3-13.8
	C77.2,147.4,66.6,153,61.3,154.2z"/>
<path class="st17" d="M14.9,306.5c-3.6,4.4-4.8,10.7-3.4,17.6c3.6,17.6,35,51.8,56.2,56.9c1.6,0.4,3.1,0.6,4.4,0.6
	c3.3,0,4.5-1.3,5.2-2.3c2.6-4,1.1-12.6-0.9-17.3c-5.9-13.4-24.5-48.6-33.9-55.9c-4.7-3.6-9.8-5.6-14.8-5.6
	C22.5,300.6,18,302.7,14.9,306.5z"/>
<path class="st17" d="M275.9,97.6c1.2,1.5,3.1,3.5,5.7,5.7l0.9,0.8c24.9,21.2,43.6,25.6,54.9,25.6h0c4,0,8-0.6,11.6-1.7
	c14.1-4.2,23.8-12.1,29.3-19.4c1.2-1.7,2.3-3.3,3-4.9c1.6-3.1,1.9-5.2,1.9-6.2c-2.4-0.2-8.6-0.4-18.4-0.4c-5.3,0-11.2,0-17.6,0.1
	c-7.2,0-14.9,0.1-22.6,0.1c-14.2,0-34.4-0.1-47.1-1.1c-0.7,0.3-1.4,0.6-2.1,0.8C275.6,97.2,275.8,97.4,275.9,97.6z"/>
<path class="st17" d="M267.9,92.2c0-0.1,0.1-0.1,0.1-0.2C268,92.1,267.9,92.2,267.9,92.2C267.9,92.2,267.9,92.2,267.9,92.2
	C267.9,92.2,267.9,92.2,267.9,92.2C267.9,92.2,267.9,92.2,267.9,92.2z"/>
<path class="st17" d="M131,92.1c6-3.1,13-6,16.6-6.2c1.3-0.1,2.3,0.1,3.1,0.3c1.3,0.4,2.2,1,2.8,1.5c0.6,0.4,0.8,0.6,1.3,0.6
	c0.9,0.1,1.9-0.5,3.7-1.6c2.5-1.5,5.8-3.7,11.1-4.3c10.9-1.3,45.7,0.1,65,3.3c8,1.3,14.4,2.6,19.6,3.6c6.4,1.2,11.4,2.2,13.1,2
	c0.2,0,0.4,0,0.6,0c0,0,0.2,0,0.5,0c-0.1,0.1-0.2,0.3-0.3,0.4c0.2-0.2,0.3-0.4,0.5-0.6c1.6-1,4.6-1.7,8.6-1.9c0,0,0.1,0,0.1,0
	c1.5-0.9,2.9-1.9,4-3.2c5.4-6.6,37.9-64,37.9-64s0,0,0,0c0,0,0,0,0,0s-17.2-2.2-23.9,4c-0.6,0.5-1.1,1.2-1.5,1.8c0,0-2-0.6-4.8-0.8
	c-3.7-0.2-8.6,0.3-11.8,4c-0.2,0.2-0.4,0.5-0.6,0.7c0,0-2.5-0.6-5.7-0.2c-3.6,0.5-8.1,2.3-10.9,7.9c-1,2-2.5,5.2-4.2,8.8
	c-19.3-5.2-45.3-9.7-53.8-11.6c-9.7-2.2-15.1-4.9-21.5-10.3c-2.9-2.5-6.1-5.5-9.9-9.3c-0.4-0.4-0.8-0.7-1.2-1.1
	c-11.7-10.3-19.8,2.7-19.8,2.7s-5.7,14.4-13.1,22.2c-7.4,7.8-13.9,12.4-19.8,24.6c-0.1,0.2-0.1,0.4-0.2,0.6c0,0,0,0.1,0,0.1
	c-0.1,0.2-0.1,0.5-0.1,0.7c0,0,0,0,0,0c-0.6,5.8,5,20.5,8.4,28.4c0,0,0,0,0,0c0,0,0,0,0,0c0.1,0,0.1,0.1,0.1,0.2c0,0,0,0,0,0
	c0,0,0,0,0,0c0,0,0,0,0,0c0,0,0,0,0,0c0,0,0,0,0,0c1.5-0.9,3.3-1.9,5.2-2.9C130.4,92.5,130.7,92.3,131,92.1z"/>
<path class="st17" d="M174.5,163.8c-4.8,2.4-9.2,5.3-13,8.6c-6.9,6-9.8,11.9-8.4,16.4c1.5,4.7,7.6,8.4,15.2,9.1
	c4.8,0.5,11.7-0.8,19.3-2.4c-0.9-5.7-2.4-13.3-4.5-18.5C181.1,172.2,177.5,167.3,174.5,163.8z"/>
<path class="st17" d="M151.5,464.9c-21.5,0.4-38.2-7.7-47.2-23c-10.2-17.1-25.7-23.4-35.7-20.8c-6.8,1.7-10.6,7.4-10.9,15.9
	c-0.2,7.5,6.3,17.4,17.6,26.6c20.3,16.6,55,29.9,87,22.3c51-12.1,97.2-49.4,117.3-92.6c-8.4,2.9-16.8,7.2-23.9,11.4
	C231.4,439.1,188.9,464.2,151.5,464.9z"/>
<path class="st17" d="M299.1,282.9c0,0.2-0.1,0.5-0.2,0.7c6.1,0.9,10.3,1.8,10.8,1.9c2,0.4,3.3,2.4,2.8,4.4c-0.4,2-2.4,3.3-4.4,2.8
	c-0.5-0.1-49.6-10.7-70.4,3.3c-7.2,4.9-12.5,8.8-16.7,12c-5.7,4.3-9.7,7.2-13.7,8.7c2.2,3.3,4.1,6.7,5.7,9.8
	c0.2-0.4,3.8,7.8,3.6,8.1c0.4,1.2,0.8,2.3,1.1,3.3c6.1,21,4.7,33.8,0,48.5c-0.4,2.1-1.1,4.5-2.1,7.1c6,7.6,13,14.6,16.5,17.9
	c7.5-5.7,29.7-21.5,51.5-27.1c44.4-11.4,59.2-90.7,61.9-108c-10.2-1.9-34-3.3-45.7-3.8L299.1,282.9z"/>
<path class="st17" d="M206.8,182.2l1.6-3.1l4.3-8.3l-9.9-4.4l-5.3-2.4l2.5-5.2l1.5-3.1c-7.6,1-15,3-21.7,5.7c3,3.8,6.4,8.6,8.4,13.5
	c2.3,5.6,3.8,13.5,4.8,19.4c6.4-1.4,13.2-2.9,20-3.8l-4.2-5.6L206.8,182.2z"/>
<path class="st17" d="M175.4,302.3c-2,0-3.8,0.6-5.6,1.8c-11.3,7.5-9,21.1-4.2,41c1.2,4.9,2.4,10,3.1,14.7c1,6.2,0.7,13.1,0.5,19.7
	c-0.3,10.4-0.7,21.1,3.8,25.7c2,2,5,3,9.3,3c13.8,0,20.6-9.2,23.8-16.1c0.2-0.4,0.3-0.7,0.5-1c0,0,0,0,0,0c0.1-0.3,0.3-0.7,0.4-1
	c0,0,0,0,0,0c0.1-0.3,0.2-0.6,0.3-0.9c0,0,0-0.1,0-0.1c0.1-0.3,0.2-0.5,0.3-0.8c0,0,0-0.1,0-0.1c0.1-0.2,0.2-0.5,0.2-0.7
	c0,0,0-0.1,0-0.1c0.1-0.2,0.1-0.4,0.2-0.6c0-0.1,0-0.1,0-0.1c0.1-0.2,0.1-0.4,0.1-0.5c0,0,0-0.1,0-0.1c0-0.2,0.1-0.3,0.1-0.5
	c0.1-0.6,0.2-1,0.2-1.1c0-0.2,0.1-0.4,0.2-0.6c4.3-13.5,5.5-24.4,0-43.3C205.1,327.7,188.3,302.3,175.4,302.3z"/>
<path class="st0" d="M124.8,95.5C124.8,95.5,124.8,95.5,124.8,95.5C124.8,95.5,124.8,95.5,124.8,95.5
	C124.8,95.5,124.8,95.5,124.8,95.5z"/>
<path class="st0" d="M124.8,95.5C124.8,95.5,124.8,95.5,124.8,95.5c-0.3,0.2-0.7,0.4-1,0.6C124.2,95.9,124.5,95.7,124.8,95.5
	C124.8,95.5,124.8,95.5,124.8,95.5C124.8,95.5,124.8,95.5,124.8,95.5C124.8,95.5,124.8,95.5,124.8,95.5z"/>
<path class="st0" d="M267.5,93c0.1-0.3,0.3-0.6,0.4-0.8c0,0,0,0,0,0c-0.2,0.3-0.4,0.6-0.5,1c-0.2,0.6-0.7,1.8-0.1,3.8
	c0.1,0,0.1,0,0.2,0C266.8,94.9,267.3,93.7,267.5,93z"/>
<path class="st0" d="M276.7,96.1c0.1,0,0.3-0.1,0.5-0.1c-1-0.1-1.8-0.1-2.4,0c0.2,0.3,0.4,0.6,0.7,1c0.7-0.2,1.4-0.5,2.1-0.8
	c-0.1,0-0.2,0-0.3,0C277.2,96.2,276.9,96.2,276.7,96.1z"/>
<polygon class="st0" points="124.8,95.5 124.8,95.5 124.8,95.5 124.8,95.5 "/>
<path class="st0" d="M124.7,95.2C124.7,95.3,124.7,95.3,124.7,95.2c0.1,0.1,0.1,0.2,0.1,0.2C124.8,95.4,124.8,95.2,124.7,95.2
	C124.7,95.2,124.7,95.2,124.7,95.2z"/>
<path class="st0" d="M386.1,90.6c-1.7-0.4-5.9-0.7-21-0.7c-5.3,0-11.2,0-17.6,0.1c-7.2,0-14.9,0.1-22.6,0.1c-7.3,0-25.9-0.8-37.6-1
	c6.8-9.4,34.7-58.5,37.9-64.2c1.1-2,1.2-4.4,0.2-6.5c-1-2.1-3-3.5-5.3-3.8c-0.4,0-3.6-0.5-8-0.5c-9.4,0-16.4,1.9-20.9,5.6
	c-1.3-0.2-2.5-0.2-3.8-0.2c-5.4,0-10.1,1.6-13.6,4.5c-0.2,0-0.4,0-0.7,0c-8.5,0-15.6,4.3-19.4,11.8c-0.2,0.5-0.5,1-0.8,1.6l-1.1,2.2
	c-12.9-3.2-27.7-6.1-37.6-8.1c-4.4-0.9-8.5-1.7-10.9-2.2c-12.5-2.8-16.7-6.5-28.2-17.8c-4.7-4.6-9.8-7-15-7c-10.2,0-16,8.9-16.6,9.9
	c-0.2,0.3-0.4,0.7-0.6,1.1c-0.1,0.1-5.4,13.3-11.7,20c-1.5,1.6-3,3-4.5,4.5c-5.9,5.8-11.4,11.2-16.5,21.9c-2.6,5.4,0.1,17.5,8,36
	c0,0-0.1,0-0.1,0.1c-9.7,8-18,17.4-24.8,28.1c-9.5,9.3-27.7,19.7-33.8,21.1c-2.8,0.6-5,2.5-5.7,5.1c-0.8,2.6,0.1,5.4,2.2,7.6
	c1.9,2,6,4.4,14.1,4.4c4.4,0,9.9-0.7,16.9-2.6c1.7,4,4.3,6.9,7,9c-0.3,0.1-0.6,0.2-0.9,0.3c-1.5-2-3.5-3.6-5.7-4.5
	c-1.2-0.5-2.6-0.7-4.1-0.7c-6.6,0-15.4,4.9-21.1,11.7c-4.3,5.2-6.2,10.9-5.2,16.1c0.1,0.3,0.1,0.5,0.2,0.8c-0.3,0.3-0.6,0.5-0.7,0.7
	c-13.4,15.9-21.9,36.3-24,57.4c-1.4,14.8,0.3,29.6,5.1,43.1c-3.3-1.3-6.7-2-10.1-2c-7.2,0-13.9,3.1-18.3,8.5
	c-5,6.1-6.7,14.5-4.8,23.6c4.2,20.2,37.3,56.6,61.5,62.4c2.2,0.5,4.2,0.8,6,0.8c6.3,0,9.5-3,11.2-5.5c1.9-2.9,2.6-6.5,2.5-10.1
	c20.6,16.4,45.7,26.6,71.9,28.9c0.4,0,0.9,0.1,1.3,0.1c0.2,0,0.4,0,0.6,0c0.4,0,0.8-0.1,1.2-0.1c1,3.8,2.6,7.2,5.2,9.9
	c3.8,3.9,9.2,5.9,16.2,5.9c13.9,0,23.1-7,28.7-15.1c0.1-0.9,0.4-1.7,0.8-2.6c8.4,10.1,17.5,18.5,17.9,18.9l2.3,2.1
	c-22.9,21.7-53.2,36.1-80.5,36.6c-13.2,0.3-31.1-2.9-40.9-19.5c-12-20.1-31-27.3-43.7-24c-10,2.6-15.9,10.8-16.3,22.6
	c-0.3,9.8,7.1,21.6,20.2,32.4c17.3,14.1,44.6,26.1,72.5,26.1c6.9,0,13.9-0.7,20.7-2.4c55.2-13.1,105.1-54.7,124.6-102.3
	c21.8-7,39.3-28.4,52-63.8c9.7-27,12.9-51.9,13-53l0.4-3.1l-3-0.9c-2.4-0.7-6.3-1.4-11.1-2c3.2-43.8-3.6-86.8-12-110.5
	c-3-8.6-6.6-16.5-10.6-24c8,2.7,14.7,3.5,20,3.5h0c4.7,0,9.3-0.7,13.7-2c15.8-4.7,26.3-13.3,32.5-21.5c4.9-6.4,7.1-12.5,7-16.3
	C390.6,93.8,388.8,91.3,386.1,90.6z M85.2,154.7c-16,4.3-21.9,1.5-23.4,0.5c-0.8-0.5-1-0.9-1-0.9c0,0,0.1-0.1,0.4-0.2
	c5.4-1.2,15.9-6.8,25.3-13.3C84.9,146.4,84.7,151,85.2,154.7z M116.3,66.8C116.3,66.8,116.3,66.8,116.3,66.8c0-0.3,0.1-0.5,0.1-0.8
	c0,0,0-0.1,0-0.1c0.1-0.2,0.1-0.4,0.2-0.6c5.9-12.2,12.4-16.8,19.8-24.6c7.4-7.8,13.1-22.2,13.1-22.2s8-12.9,19.8-2.7
	c0.4,0.3,0.8,0.7,1.2,1.1c3.9,3.8,7,6.8,9.9,9.3c6.4,5.4,11.9,8.1,21.5,10.3c8.6,1.9,34.5,6.5,53.8,11.6c1.7-3.7,3.2-6.8,4.2-8.8
	c2.8-5.6,7.3-7.4,10.9-7.9c3.2-0.4,5.7,0.2,5.7,0.2c0.2-0.3,0.4-0.5,0.6-0.7c3.2-3.7,8.1-4.3,11.8-4c2.8,0.2,4.8,0.8,4.8,0.8
	c0.4-0.7,0.9-1.3,1.5-1.8c6.7-6.2,23.9-4,23.9-4s0,0,0,0c0,0,0,0,0,0s-32.5,57.4-37.9,64c-1.1,1.3-2.5,2.4-4,3.2c0,0-0.1,0-0.1,0
	c-4,0.2-7,0.9-8.6,1.9c-0.2,0.2-0.4,0.4-0.5,0.6c0.1-0.1,0.2-0.3,0.3-0.4c-0.3,0-0.4,0-0.5,0c-0.2,0-0.4,0-0.6,0
	c-1.7,0.2-6.7-0.8-13.1-2c-5.2-1-11.7-2.3-19.6-3.6c-19.3-3.2-54.1-4.6-65-3.3c-5.3,0.6-8.6,2.7-11.1,4.3c-1.8,1.1-2.8,1.7-3.7,1.6
	c-0.5-0.1-0.7-0.2-1.3-0.6c-0.6-0.5-1.5-1.1-2.8-1.5c-0.8-0.2-1.9-0.4-3.1-0.3c-3.6,0.1-10.6,3.1-16.6,6.2c-0.3,0.2-0.6,0.4-1,0.5
	c-1.9,1-3.7,2-5.2,2.9c0,0,0,0,0,0c-0.3,0.2-0.7,0.4-1,0.6c0.3-0.2,0.6-0.4,1-0.6c0,0,0,0,0,0c0,0,0,0,0,0c0,0,0,0,0,0c0,0,0,0,0,0
	c0,0,0,0,0,0c0-0.1,0-0.1-0.1-0.2c0,0,0,0,0-0.1c0,0,0,0,0,0C121.4,87.3,115.7,72.6,116.3,66.8z M67.8,181.9
	c4.7-5.6,11.7-9.1,15.5-9.1c0.6,0,1,0.1,1.4,0.2c2.1,0.9,3.8,3.2,4.4,6.2c1,4.9-0.8,10.2-4.8,14.2c-3.6,3.6-8.2,5.8-12.2,5.8
	c-3.1,0-6.9-1.2-8-7.1C63.4,188,66.1,184,67.8,181.9z M77.2,379.3c-0.6,1-1.9,2.3-5.2,2.3c-1.3,0-2.7-0.2-4.4-0.6
	c-21.2-5.1-52.6-39.3-56.2-56.9c-1.4-6.9-0.2-13.2,3.4-17.6c3.1-3.8,7.6-5.9,12.8-5.9c4.9,0,10,1.9,14.8,5.6
	c9.4,7.2,28,42.4,33.9,55.9c0.1,0.2,1.2,3.6,1.3,3.7C78.8,370.4,79.2,376.2,77.2,379.3z M159.6,394.7c-0.6,0-1.3-0.1-1.9-0.2
	c-28.4-2.6-54.1-14.6-73.9-32.9c-0.2-0.5-1.2-3.5-1.4-3.4C77.7,347.7,61,314.9,49.5,303c0,0,0.1,0,0.1-0.1c-0.5-0.6-1-1.2-1.4-1.8
	c-0.2-0.3-0.3-0.5-0.4-0.8c0,0,0-0.1-0.1-0.1c0.2,0.5,0.4,0.9,0.6,1.3c-6.8-14-10-30.9-8.3-48.5c0.6-6.2,1.8-12.2,3.5-18
	c2.7-9.3,6.7-17.9,11.6-25.7c0.3-0.5,0.7-1,1-1.6c0.4-0.5,0.7-1,1.1-1.6c1.2-1.6,2.3-3.2,3.6-4.8c2.7,3.1,6.7,4.9,11.4,4.9
	c6,0,12.2-2.9,17.2-7.8c5.7-5.7,8.3-13.5,6.8-20.7c-0.1-0.7-0.3-1.3-0.5-1.9c2.5-0.9,5.1-1.6,7.7-2.1c11.9-0.5,33.9-10.6,43.4-23.9
	c8.5,4.5,17.2,6.3,26.1,6.4c-1.2,0.6-2.4,1.3-3.4,2.1c0,0,0,0,0.1,0.1c-4.7,2.5-9,5.3-12.8,8.6c-11.7,10.3-12.2,18.7-10.5,24
	c2.4,7.5,10.7,13,21.2,14.1c5.7,0.6,12.9-0.7,21.1-2.4c0,0.3,0.1,0.5,0.1,0.5l28.4-5.8c6.1-0.6,12.2-0.6,17.7,0.6
	c19,3.9,32.2,14.5,51.4,31.6c4.2,12.5,6.3,25.5,6.3,38.8c0,4.8-0.3,9.5-0.8,14.2c-17.4-2-43.1-2.7-57.9,7.3c-7.4,5-12.7,9-17,12.2
	c-7.3,5.5-10.4,7.7-13.9,8.1c-7.5-9.5-17.1-17.4-27.3-17.4c-3.9,0-7.5,1.1-10.9,3.4c-17.7,11.8-12.6,32.7-8.2,51.1
	c1.2,4.9,2.3,9.6,3,14c0.8,5.3,0.6,11.7,0.4,18C159.4,384.5,159.2,389.8,159.6,394.7C159.6,394.7,159.6,394.7,159.6,394.7z
	 M202.7,166.4l9.9,4.4l-4.3,8.3l-1.6,3.1l2.1,2.8l4.2,5.6c-6.8,0.9-13.6,2.3-20,3.8c-1-5.9-2.6-13.8-4.8-19.4
	c-2-4.9-5.4-9.8-8.4-13.5c6.7-2.8,14.1-4.7,21.7-5.7l-1.5,3.1l-2.5,5.2L202.7,166.4z M183,177c2.1,5.3,3.6,12.9,4.5,18.5
	c-7.6,1.6-14.5,2.9-19.3,2.4c-7.6-0.8-13.7-4.5-15.2-9.1c-1.5-4.5,1.5-10.4,8.4-16.4c3.8-3.3,8.2-6.2,13-8.6
	C177.5,167.3,181.1,172.2,183,177z M208.7,383.8c-0.1,0.2-0.1,0.4-0.2,0.6c0,0.1-0.1,0.5-0.2,1.1c0,0.1-0.1,0.3-0.1,0.5
	c0,0,0,0.1,0,0.1c0,0.2-0.1,0.3-0.1,0.5c0,0,0,0.1,0,0.1c-0.1,0.2-0.1,0.4-0.2,0.6c0,0,0,0.1,0,0.1c-0.1,0.2-0.1,0.5-0.2,0.7
	c0,0,0,0.1,0,0.1c-0.1,0.3-0.2,0.5-0.3,0.8c0,0,0,0.1,0,0.1c-0.1,0.3-0.2,0.6-0.3,0.9c0,0,0,0,0,0c-0.1,0.3-0.3,0.6-0.4,1
	c0,0,0,0,0,0c-0.1,0.3-0.3,0.7-0.5,1c-3.2,7-10,16.1-23.8,16.1c-4.3,0-7.4-1-9.3-3c-4.5-4.6-4.1-15.3-3.8-25.7
	c0.2-6.7,0.5-13.6-0.5-19.7c-0.7-4.7-1.9-9.8-3.1-14.7c-4.8-19.9-7-33.5,4.2-41c1.8-1.2,3.7-1.8,5.6-1.8c12.9,0,29.7,25.4,33.3,38.1
	C214.2,359.4,212.9,370.3,208.7,383.8z M162.3,485.9c-32,7.6-66.7-5.7-87-22.3C64,454.4,57.5,444.5,57.7,437
	c0.3-8.5,4.1-14.1,10.9-15.9c10.1-2.6,25.6,3.7,35.7,20.8c9,15.2,25.7,23.3,47.2,23c37.4-0.7,79.8-25.8,104.1-60.1
	c7.2-4.2,15.5-8.5,23.9-11.4C259.5,436.6,213.3,473.9,162.3,485.9z M345.8,276.3c-2.7,17.2-17.6,96.6-61.9,108
	c-21.8,5.6-44,21.5-51.5,27.1c-3.5-3.4-10.5-10.4-16.5-17.9c1-2.5,1.7-5,2.1-7.1c4.6-14.8,6.1-27.5,0-48.5c-0.3-1-0.6-2.1-1.1-3.3
	c0.2-0.3-3.4-8.5-3.6-8.1c-1.6-3.1-3.5-6.5-5.7-9.8c4.1-1.4,8-4.3,13.7-8.7c4.2-3.2,9.4-7.1,16.7-12c20.8-14,69.9-3.4,70.4-3.3
	c2,0.4,4-0.8,4.4-2.8c0.4-2-0.8-4-2.8-4.4c-0.6-0.1-4.7-1-10.8-1.9c0.1-0.2,0.1-0.4,0.2-0.7l1-10.4
	C311.8,273,335.6,274.4,345.8,276.3z M321.2,159.8c8.9,25.1,14.6,66.7,11.6,107.3c-13.1-1.2-28.6-2-33.4-2.2c0-0.1,0-0.3,0-0.5
	c-0.2-5.9-0.7-10.5-1-12.8c-0.5-3.8-1.2-8.2-2.4-13.1c0.7,0.6,1.5,0.8,2.3,0.8c1,0,2-0.4,2.7-1.2c1.3-1.5,1.2-3.7-0.3-5.1l-2.8-2.6
	c-23.2-21-38.6-34.9-61.7-39.6c-5.4-1.1-11-1.3-16.7-0.9l-6.2-8.3l7-13.6l-15.3-6.9l3-6.2c13.1-0.9,26.4,0.7,38.1,5.3
	c1.8,0.7,3.9-0.2,4.6-2c0.7-1.8-0.2-3.9-2-4.6c-1.6-0.6-3.3-1.2-5-1.8c0.9-3.6,1-6.7,1-6.9l0.1-1.6l-1.4-0.9
	c-0.3-0.2-29.1-17.8-33.4-20.5c-2.7-1.8-4.7-0.7-5.5-0.2c-3.1,2.3-3.1,9.6,0.1,21.7c-18.3,5.6-38.8,9.8-57.2-1.5
	c-0.8-0.5-1.8-0.7-2.8-0.4c-0.9,0.2-1.7,0.9-2.2,1.7c-8.3,15.2-37,25.1-41.6,23.1c-2.7-1.2-6.3-4.4-7.9-9.7
	c-2.2-7.2,0-16.4,6.3-26.5c6.1-9.6,13.5-18.1,22-25.4c0.1-0.1,0.2-0.2,0.4-0.3c0.8-0.7,1.7-1.4,2.5-2.1c0.3-0.1,0.6-0.2,0.8-0.4
	c3.7-2.9,18.3-10.3,22.8-10.5c1.3,0,1.6,0.2,2.4,0.7c0.8,0.6,1.9,1.5,3.9,1.7c2.9,0.4,5.2-1.1,7.4-2.4c2.2-1.4,4.8-3,8.8-3.5
	c10.5-1.2,45.1,0.2,63.5,3.3c7.9,1.3,14.3,2.5,19.5,3.5c7.1,1.4,11.3,2.2,14,2.1c-0.5-1.9-0.1-3.1,0.1-3.8c0.1-0.4,0.3-0.7,0.5-1
	c0,0,0,0,0,0c0-0.1,0.1-0.1,0.1-0.2c0,0.1-0.1,0.1-0.1,0.2c0,0,0,0,0,0c-0.2,0.3-0.3,0.5-0.4,0.8c-0.2,0.6-0.7,1.9-0.1,3.9
	c-0.1,0-0.1,0-0.2,0c0.1,0.5,0.4,1.1,0.7,1.8c1.2,2.5,3.7,5.8,9,10.2l0.9,0.7c10.6,9,20.2,15.2,28.8,19.4
	C312.3,138.2,317.2,148.5,321.2,159.8z M207.9,127.3c5.6,3.6,25.5,15.7,31.1,19.2c-0.1,1-0.3,2.5-0.7,4c-8.2-2-16.9-2.9-25.5-2.7
	c-0.3,0-0.5,0.1-0.8,0.1c-0.1,0-0.2,0-0.3,0c0,0,0-0.1,0-0.1C208.1,135.9,207.7,129.8,207.9,127.3z M381.5,103.7
	c-0.8,1.6-1.8,3.2-3,4.9c-5.4,7.3-15.1,15.2-29.3,19.4c-3.7,1.1-7.6,1.7-11.6,1.7h0c-11.3,0-30-4.5-54.9-25.6l-0.9-0.8
	c-2.6-2.2-4.5-4.2-5.7-5.7c-0.2-0.2-0.3-0.4-0.4-0.6c-0.3-0.4-0.5-0.7-0.7-1c0.6,0,1.4,0,2.4,0c-0.2,0-0.3,0.1-0.5,0.1
	c0.2,0,0.5,0,0.7,0c0.1,0,0.2,0,0.3,0c12.7,1,32.9,1.1,47.1,1.1c7.7,0,15.4,0,22.6-0.1c6.4,0,12.3-0.1,17.6-0.1
	c9.9,0,16,0.1,18.4,0.4C383.4,98.5,383,100.6,381.5,103.7z"/>
<path class="st9" d="M185.3,159.4c-1.9,0.6-3.7,1.3-5.5,2c3,3.8,6.4,8.6,8.4,13.5c2.3,5.6,3.8,13.5,4.8,19.4
	c1.8-0.4,3.6-0.8,5.4-1.2c-1-6.2-2.7-14.9-5-20.8C191.5,167.8,188.3,163.1,185.3,159.4z"/>
<path class="st9" d="M243.6,381.1l-13-7.5l3.7-14.9l-11.2-8.2l3.7-14.2l-9.3-7.5l2.6-20.1c-5.2,3.9-8.9,6.5-12.7,7.9
	c2.2,3.3,4.1,6.7,5.7,9.8c0.2-0.4,3.8,7.8,3.6,8.1c0.4,1.2,0.8,2.3,1.1,3.3c6.1,21,4.7,33.8,0,48.5c-0.4,2.1-1.1,4.5-2.1,7.1
	c6,7.6,13,14.6,16.5,17.9c3.6-2.7,10.6-7.8,19.4-13l-13.8-6.1L243.6,381.1z"/>
<path class="st20" d="M211.7,147.8c0.1,0,0.2,0,0.3,0c0.3,0,0.6,0,0.8-0.1c8.7-0.2,17.3,0.7,25.5,2.7c0.4-1.5,0.6-3,0.7-4
	c-5.7-3.5-25.5-15.6-31.1-19.2C207.7,129.8,208.1,135.9,211.7,147.8C211.7,147.7,211.7,147.7,211.7,147.8z"/>
<path class="st20" d="M318.6,91.7l8.5-1.7c0.2,0,0.3-0.2,0.3-0.4l0.1-2.3c-2.3-0.4-4.8-1-7-2c-1,1.4-2.4,2.7-3.9,3.9l1.5,2.3
	C318.2,91.6,318.4,91.7,318.6,91.7z"/>
<g>
	<path class="st23" d="M179.5,204.4c-3.5,0.6-6.8,0.9-9.7,0.8c7.9,13.8,12.1,30.9,10.9,50c-0.9,13.9-4.5,26.8-10.1,38.2
		c1.6-0.4,3.2-0.6,4.8-0.6c2.5,0,4.9,0.5,7.3,1.3c5-11.4,8.2-24,8.8-37.1C192.5,237.9,188.1,219.5,179.5,204.4z"/>
	<path class="st23" d="M152.1,318.8c-14.8,14.3-33.9,22.1-53.7,20.3c-12.9-1.2-24.3-6.4-33.6-14.5c1,1.6,1.9,3.3,2.9,4.9
		c11.9,10.5,26.4,16.4,42,16.7c1.8,0,3.6,0,5.4-0.1c13.8-0.8,26.7-6,38-14.3C152.3,327.4,151.9,323,152.1,318.8z"/>
	<path class="st23" d="M146.6,180.9c0.6-1.8,1.5-3.7,2.9-5.7c-8.4-4.2-17.5-6.6-26.9-6.9c-3.6,1.7-7.1,3-10.4,3.9
		C124.6,171.5,136.4,174.7,146.6,180.9z"/>
</g>
<g>
	<path class="st24" d="M333.9,143.6c6.2,0,12,6.8,15.4,12.8c4.2-6,10.6-9.8,18.8-11.1c0.8-0.1,1.6-0.2,2.6-0.2c2.7,0,5.5,0.6,7.3,1
		c0.1,0,0.3,0.1,0.5,0.1c2.7,0.7,4.7,1.5,4.7,1.6c1.6,0.9,2.9,1.9,3.8,3.1c0,0,0,0.1,0.1,0.1c0,0,0,0,0,0c0.3,0.4,0.5,1,0.4,1.5
		c0,0,0,0,0,0c0,0,0,0,0,0c-0.1,0.5-0.3,1-0.8,1.4c-0.4,0.3-0.8,0.4-1.3,0.4c-0.6,0-1.2-0.3-1.6-0.8c-1.6-2.1-5.1-3.6-9.2-4.2
		c-1.2-0.2-2.3-0.2-3.4-0.2c-0.9,0-1.7,0-2.6,0.1c-4.3,0.5-12.1,2.5-17,11c-0.1,0.1-0.1,0.2-0.2,0.3c0.2,0.5,0.4,1,0.4,1
		c0.2,0.5,0.4,1,0.5,1.4c1.7,5.7,2,10,1.6,13.9c-0.3,2.4-0.8,4.7-1.6,7.1c-0.1,0.6-0.3,1.3-0.5,2c6.3-0.3,17.1-2.2,28.4-10.1
		c11.9-8.4,16.2-25.2,17.6-38.9c0.6-6.2,0.7-11.8,0.6-15.7c-0.2-8.9-1.4-18-3.2-25.7c-0.7-2.8-1.4-5.4-2.2-7.6c-1.1-3-2.4-6-4.1-9
		c-0.6-0.2-1.1-0.7-1.2-1.4c-0.1-0.3-0.1-0.5,0-0.8c0.1-0.8,0.7-1.4,1.5-1.6c7.1-1.7,9.4-7.1,10-10.2c0.1-0.6,0.2-1.3,0.3-1.9
		c0.5-4.4-0.8-8.5-2.4-9.8c-1.4-1.1-3.4-1.7-5.8-1.7c-9.6,0-23.4,9.2-23.5,9.3c-0.3,0.2-0.7,0.4-1.2,0.4c-0.1,0-0.3,0-0.4,0
		c-1.1-0.2-1.7-1.3-1.5-2.3c0,0,0,0,0,0c0,0,0,0,0,0c0.1-0.4,0.4-0.9,2-2c-5.5-2.6-11.5-4-17.7-4.1c-0.5,0-0.9,0-1.4,0
		c-19.9,0-37.3,8.9-46.5,23.8c-0.3,0.5-0.6,1-0.8,1.5c0,0.1-0.1,0.1-0.1,0.2c-0.2,0.4-0.4,0.8-0.6,1.2c-0.1,0.1-0.1,0.3-0.2,0.4
		c-0.1,0.3-0.2,0.6-0.3,0.9c-0.1,0.2-0.1,0.4-0.2,0.5c-0.1,0.2-0.1,0.5-0.2,0.7c-0.1,0.2-0.1,0.4-0.2,0.6c0,0.2-0.1,0.4-0.1,0.5
		c0,0.2-0.1,0.5-0.1,0.7c0,0.1,0,0.1,0,0.2c-0.1,0.7-0.1,1.3,0,1.9c0,0.2,0.1,0.4,0.1,0.6c0,0,0,0,0,0.1c0,0.2,0.1,0.4,0.2,0.7
		c0.1,0.5,0.3,0.9,0.6,1.3c0.8,1.3,1.8,2.1,2.7,2.5h0c0.1,0,0.2,0,0.3,0c1.4,0,4.1-0.8,7-2.2c0,0,0,0,0,0c1.5-0.7,3-1.6,4.4-2.6
		c1-0.7,1.9-1.5,2.7-2.3c0,0,0,0,0.1-0.1c0.4-0.4,0.7-0.7,1-1.1c0-0.1,0.1-0.1,0.1-0.2c0.3-0.4,0.6-0.8,0.8-1.3
		c0.3-0.5,0.7-0.9,1.3-1c0.2,0,0.4-0.1,0.5-0.1c0.1,0,0.1,0,0.2,0c0.1,0,0.3,0,0.4,0.1c0,0,0,0,0.1,0c0.2,0,0.3,0.1,0.5,0.2
		c0.4,0.3,0.9,0.5,1.3,0.7c0.1,0.1,0.2,0.1,0.3,0.2c0.4,0.2,0.8,0.4,1.3,0.5c0.6,0.2,1.2,0.5,1.9,0.6c0.1,0,0.2,0,0.3,0.1
		c1.7,0.4,3.5,0.7,5.4,0.7c4.9,0,9.8-1.4,14.4-2.9c0.2-0.1,0.4-0.1,0.6-0.1c0.1,0,0.2,0,0.2,0c0.2,0,0.3,0,0.5,0.1c0,0,0,0,0,0
		c0,0,0,0,0.1,0c0.1,0,0.3,0.1,0.4,0.2c0,0,0.1,0,0.1,0.1c0.1,0.1,0.2,0.2,0.3,0.3c0,0,0,0,0,0c0,0,0,0,0,0c0.1,0.1,0.1,0.2,0.2,0.3
		c0,0.1,0.1,0.2,0.1,0.2c0.1,0.2,0.1,0.4,0.1,0.7c0,0.1,0,0.3,0,0.4c4.7,0.5,9.4,2,12.7,3.3c2.7,1.1,4.4,2,4.6,2.1l2.9,1.5
		c12.2,0,15.8,0.3,17.3,0.7c2.8,0.7,4.5,3.2,4.6,6.6c0.1,3.8-2.1,9.9-7,16.3c-6.2,8.2-16.8,16.8-32.5,21.5c-4.4,1.3-9,2-13.7,2h0
		c-4.9,0-11.1-0.8-18.4-3c0.2,0.4,0.4,0.8,0.5,1.1c0,0,0,0,0,0c2.2,4.2,4.2,8.7,6.1,13.3c0.6-0.8,1.3-1.6,2.1-2.4
		c0.3-0.3,0.7-0.5,1-0.8c1.2-0.8,2.4-1.2,3.7-1.4c0,0,0.1,0,0.1,0c0.3-0.1,0.6-0.1,1-0.1C333.6,143.6,333.8,143.6,333.9,143.6z
		 M307.5,77.9c-1.7,0-3-1.3-3-3c0-0.2,0-0.4,0.1-0.6c0.3-1.4,1.5-2.4,2.9-2.4c1.7,0,3,1.3,3,3c0,0.2,0,0.4-0.1,0.6
		C310.1,76.8,309,77.8,307.5,77.9z M320.9,77c-1.5,1.2-1.7,1.1-3.3,0.9c-1.7-0.2-2.1-1.6-0.7-2.7c0.8-0.6,2.1-1.1,3.9-1.3
		C322.7,73.6,322.5,75.7,320.9,77z M342,69.2c-1.7,0-3-1.3-3-3c0-1.7,1.3-3,3-3c1.7,0,3,1.3,3,3C345,67.8,343.7,69.2,342,69.2z
		 M376.2,67.6c-0.5-0.2-0.9-0.6-1-1.1c0-0.1,0-0.2,0-0.4c0,0,0-0.1,0-0.1c0,0,0,0,0,0c0,0,0,0,0,0c0.1-0.4,2.2-9.9,17.1-10.7
		c0.8,0,1.4,0.6,1.5,1.3c0,0,0,0,0,0c0,0,0,0,0,0c0,0,0,0,0,0.1c0.3,0.1,0.6,0.3,0.9,0.4c3.1,1.7,1.4,14.1-6,14.6
		C382.2,72.2,377.6,70.1,376.2,67.6z"/>
	<path class="st25" d="M323.6,216.8c-0.3,0-0.6,0-0.9,0c-8.7,0-15.6-3.4-19.4-9.7c-3.8-6.3-9.1-8.5-12.5-8.5c-0.7,0-1.3,0.1-1.9,0.2
		c-2.6,0.7-4,2.9-4.1,6.2c-0.1,2.9,2.6,6.9,7.3,10.6c5.9,4.8,16.3,9.8,27.7,9.8c2.9,0,5.6-0.3,8.3-1c22.1-5.5,42.3-22.6,49.6-42
		c-2.4,1.4-4.8,2.6-7.2,3.6C361.2,203.1,341.1,216.3,323.6,216.8z"/>
	<path class="st26" d="M375.8,65.3c1.3-5,11.3-12.6,18.9-8.2c3.1,1.7,1.4,14.1-6,14.6C380.1,72.4,374.9,68.5,375.8,65.3z"/>
	<path class="st17" d="M323.6,216.8c-0.3,0-0.6,0-0.9,0c-8.7,0-15.6-3.4-19.4-9.7c-3.8-6.3-9.1-8.5-12.5-8.5c-0.7,0-1.3,0.1-1.9,0.2
		c-2.6,0.7-4,2.9-4.1,6.2c-0.1,2.9,2.6,6.9,7.3,10.6c5.9,4.8,16.3,9.8,27.7,9.8c2.9,0,5.6-0.3,8.3-1c22.1-5.5,42.3-22.6,49.6-42
		c-2.4,1.4-4.8,2.6-7.2,3.6C361.2,203.1,341.1,216.3,323.6,216.8z"/>
	<path class="st17" d="M318.6,91.7l8.5-1.7c0.2,0,0.3-0.2,0.3-0.4l0.1-2.3c-2.3-0.4-4.8-1-7-2c-1,1.4-2.4,2.7-3.9,3.9l1.5,2.3
		C318.2,91.6,318.4,91.7,318.6,91.7z"/>
	<path class="st0" d="M392.2,55.3c-14.9,0.8-17,10.3-17.1,10.7c0,0,0,0,0,0c0,0,0,0,0,0c0,0,0,0.1,0,0.1c0,0.1,0,0.3,0,0.4
		c0.1,0.5,0.5,0.9,1,1.1c0,0,0.1,0,0.1,0c0.1,0,0.2,0,0.3,0c0.6,0,1.2-0.4,1.4-1.1c0.1-0.3,1.9-7.8,14.5-8.5c0.8,0,1.3-0.7,1.3-1.4
		c0,0,0,0,0-0.1c0,0,0,0,0,0c0,0,0,0,0,0C393.7,55.9,393,55.3,392.2,55.3z"/>
	<path class="st0" d="M316.9,75.1c-0.6,0.4-0.8,0.9-0.9,1.3c-0.1,0.7,0.5,1.3,1.5,1.4c1.7,0.2,1.8,0.3,3.3-0.9
		c0.8-0.6,1.3-1.5,1.3-2.1c0-0.7-0.4-1.1-1.3-1C318.9,74.1,317.7,74.5,316.9,75.1z"/>
	<path class="st0" d="M339,65.6c0,0.2-0.1,0.4-0.1,0.6c0,1.7,1.4,3,3,3c1.5,0,2.6-1.1,2.9-2.4c0-0.2,0.1-0.4,0.1-0.6
		c0-1.7-1.4-3-3-3C340.4,63.2,339.3,64.3,339,65.6z"/>
	<path class="st0" d="M304.5,74.3c0,0.2-0.1,0.4-0.1,0.6c0,1.7,1.4,3,3,3c1.5,0,2.6-1.1,2.9-2.4c0-0.2,0.1-0.4,0.1-0.6
		c0-1.7-1.4-3-3-3C305.9,71.9,304.7,72.9,304.5,74.3z"/>
	<path class="st0" d="M402.7,66.1c1-4.6,0.4-9.6-1.4-13c-0.6-1.1-1.3-2-2.1-2.7c-1-0.8-2.3-1.4-3.6-1.8c-0.5-0.2-1-0.2-1.5-0.3
		c-0.1,0-0.2-0.1-0.3-0.1c-0.9-0.2-1.8-0.3-2.8-0.3c-3.1,0-6.7,0.8-10.8,2.2c-2.5,0.9-6.4,2.7-9.6,4.4c-3.2-1.7-6.7-3.1-10.3-4.1
		c-0.4-0.1-0.9-0.2-1.3-0.3c-0.4-0.1-0.7-0.2-1.1-0.3c-3-0.6-6.1-1-9.2-1.1c-0.5,0-1,0-1.5,0c-21.2,0-39.9,9.6-49.8,25.5
		c-0.4,0.4-2.7,5-3,6.5l0,0c-0.6,2.1-0.8,4.2-0.5,6c0,0.2,0.1,0.5,0.2,0.8c-3.3,0.2-7.7,2.7-10.4,6.1c-2.2,2.7-3.1,5.6-2.6,8.3
		c0.8,4.1,3.8,6.6,7.8,6.5c3.1,0,6.3-1.5,8.8-4.1c2.5-2.6,3.8-6,3.6-9.2c0.2,0,0.3,0,0.5,0c3.1,0,7.6-1.6,11.7-4.1l1.7,2.5
		c0.2,0.3,0.5,0.7,0.8,1l0.3,0.4c0.3,0.3,0.7,0.5,1.1,0.5l0.2,0l0.5-0.1c0.3,0,0.9-0.1,1.2-0.2l4.9-1c-1.3,1.7-2.1,3.3-2.3,4.8
		c-0.3,2,0.5,3.7,2.2,4.7c1.4,0.8,3.1,1.2,5,1.2c6.5,0,15.5-4.3,23.7-8.3c5-2.4,10.2-4.9,12-4.8l8.4,0.4l-7.4-3.9
		c-0.5-0.2-8.8-4.5-17.3-5.4c0,0,0,0,0,0c0-0.1,0-0.3,0-0.4c0-0.2,0-0.4-0.1-0.7c0-0.1-0.1-0.2-0.1-0.2c-0.1-0.1-0.1-0.2-0.2-0.3
		c0,0,0,0,0,0c0,0,0,0,0,0c-0.1-0.1-0.2-0.2-0.3-0.3c0,0-0.1,0-0.1-0.1c-0.1-0.1-0.2-0.1-0.4-0.2c0,0,0,0-0.1,0c0,0,0,0,0,0
		c0,0-0.1,0-0.1,0c0,0-0.1,0-0.1,0c-0.1,0-0.2,0-0.2,0c-0.1,0-0.2,0-0.2,0c-0.2,0-0.4,0-0.6,0.1c-4.6,1.5-9.5,2.9-14.4,2.9
		c-1.9,0-3.7-0.2-5.4-0.7c-0.1,0-0.2,0-0.3-0.1c-0.6-0.2-1.3-0.4-1.9-0.6c-0.4-0.2-0.8-0.3-1.3-0.5c-0.1-0.1-0.2-0.1-0.3-0.2
		c-0.4-0.2-0.9-0.5-1.3-0.7c-0.1-0.1-0.3-0.1-0.5-0.2c0,0,0,0-0.1,0c0,0,0,0,0,0c0,0,0,0,0,0c-0.1,0-0.2-0.1-0.4-0.1
		c-0.1,0-0.1,0-0.2,0c-0.2,0-0.4,0-0.5,0.1c-0.5,0.1-1,0.5-1.3,1c-0.2,0.4-0.5,0.8-0.8,1.3c0,0.1-0.1,0.1-0.1,0.2
		c-0.3,0.4-0.6,0.8-1,1.1c0,0,0,0-0.1,0.1c-0.4,0.4-0.9,0.9-1.4,1.3c-0.3,0.2-0.5,0.4-0.8,0.6c-0.2,0.2-0.5,0.3-0.7,0.5
		c-1.4,0.9-2.8,1.8-4.3,2.5c0,0,0,0,0,0c-2.9,1.4-5.6,2.2-7,2.2c-0.1,0-0.2,0-0.3,0c0,0,0,0,0,0c-0.8-0.4-1.9-1.2-2.7-2.5
		c-0.2-0.4-0.4-0.8-0.6-1.3c-0.1-0.2-0.1-0.4-0.2-0.7c0,0,0,0,0-0.1c0-0.1,0-0.1,0-0.2c-0.1-0.3-0.1-0.6-0.1-0.9c0-0.1,0-0.1,0-0.2
		c0-0.4,0-0.8,0-1.2c0-0.1,0-0.1,0-0.2c0-0.2,0.1-0.5,0.1-0.7c0-0.2,0.1-0.4,0.1-0.5c0-0.2,0.1-0.4,0.2-0.6c0.1-0.2,0.1-0.5,0.2-0.7
		c0.1-0.2,0.1-0.4,0.2-0.5c0.1-0.3,0.2-0.6,0.3-0.9c0.1-0.1,0.1-0.3,0.2-0.4c0.2-0.4,0.4-0.8,0.6-1.2c0-0.1,0.1-0.1,0.1-0.2
		c0.3-0.5,0.5-1,0.8-1.5C310,61.9,327.4,53,347.3,53c0.5,0,0.9,0,1.4,0c6.2,0.1,12.2,1.5,17.7,4.1c-1.6,1.1-1.9,1.6-2,2c0,0,0,0,0,0
		c0,0,0,0,0,0c-0.2,1.1,0.5,2.1,1.5,2.3c0.1,0,0.3,0,0.4,0c0.4,0,0.9-0.1,1.2-0.4c0.1-0.1,13.9-9.3,23.5-9.3c2.4,0,4.4,0.6,5.8,1.7
		c1.7,1.3,2.9,5.4,2.4,9.8c-0.1,0.6-0.2,1.2-0.3,1.9c-0.7,3.1-2.9,8.5-10,10.2c-0.8,0.2-1.4,0.8-1.5,1.6c0,0.3,0,0.5,0,0.8
		c0.2,0.6,0.6,1.2,1.2,1.4c1.6,3,3,6,4.1,9c0.8,2.2,1.6,4.8,2.2,7.6c1.9,7.7,3,16.8,3.2,25.7c0.1,3.9,0.1,9.4-0.6,15.7
		c-1.4,13.7-5.6,30.5-17.6,38.9c-11.3,7.9-22,9.8-28.4,10.1c0.2-0.7,0.4-1.4,0.5-2c0.8-2.4,1.3-4.7,1.6-7.1c0.4-4,0.1-8.3-1.6-13.9
		c-0.1-0.4-0.3-0.9-0.5-1.4c0,0-0.1-0.5-0.4-1c0.1-0.1,0.1-0.2,0.2-0.3c4.8-8.4,12.7-10.5,17-11c0.8-0.1,1.7-0.1,2.6-0.1
		c1.1,0,2.3,0.1,3.4,0.2c4.2,0.6,7.6,2.1,9.2,4.2c0.4,0.5,1,0.8,1.6,0.8c0.5,0,0.9-0.2,1.3-0.4c0.4-0.3,0.7-0.8,0.8-1.4c0,0,0,0,0,0
		c0,0,0,0,0,0c0.1-0.5-0.1-1.1-0.4-1.5c0,0,0,0,0,0c0,0,0-0.1-0.1-0.1c-0.9-1.2-2.2-2.2-3.8-3.1c0-0.1-2-0.9-4.7-1.6
		c-0.2-0.1-0.4-0.1-0.5-0.1c-1.9-0.5-4.6-1-7.3-1c-0.9,0-1.8,0.1-2.6,0.2c-8.2,1.3-14.7,5.1-18.8,11.1c-3.4-6-9.1-12.8-15.4-12.8
		c-0.1,0-0.3,0-0.4,0c-0.3,0-0.6,0-1,0.1c-1.2,0.2-2.3,0.6-3.3,1.3c-7.6,5.1-5.5,14.1-3.6,22.1c0.5,2.1,1,4.2,1.3,6
		c0.4,2.3,0.3,5.1,0.2,7.8c-0.2,5.3-0.4,10.9,2.8,14.1c1.6,1.7,4,2.6,7,2.6c6,0,10-3,12.4-6.5c0-0.3,0.1-0.6,0.2-0.9
		c0.3,0,0.6,0,0.6,0c3.3,0,8.3-0.4,14.2-2.1c-9.3,13.9-26.3,24.1-40.8,24.6c-0.3,0-0.6,0-0.9,0c-5.1,0-11.9-1.3-15.8-7.7
		c-4.7-7.7-11.4-10.5-16.1-10.5c-1,0-2,0.1-2.9,0.4c-4.4,1.2-7,4.8-7.1,10c-0.1,4.3,3.1,9.3,8.8,13.9c6.5,5.2,17.9,10.7,30.4,10.7
		l0.4,0c3,0,6-0.4,8.8-1.1c25.4-6.3,48.1-27.1,54.1-49.5c13.7-10.1,17.9-29.8,19-44.5c0.5-6.8,0.4-14-0.2-21.2
		c-0.4-4.4-1-8.8-1.8-13c-1-5.1-2.2-9.8-3.5-13.4c-0.9-2.5-2.8-6.5-3.8-8.5C399.7,75.4,402,69.4,402.7,66.1z M295.1,101.9
		c-1.8,1.9-4.1,3-6.2,3c-0.5,0-1.1-0.1-1.6-0.3c-0.1,0-0.1,0-0.2-0.1c-1-0.4-1.9-1.4-2.3-3.2c-0.4-2.1,1-4.2,1.8-5.3
		c2.4-2.9,5.9-4.7,7.9-4.7c0.3,0,0.5,0,0.7,0.1c1.1,0.4,2,1.6,2.3,3.1C298.1,97.1,297.2,99.8,295.1,101.9z M341,87.1
		c1.4-0.4,2.9-0.6,4.5-0.6c4.8,0,10.1,1.6,13.8,3.1c-2.2,0.9-4.8,2.2-8.1,3.8c-8.7,4.2-20.6,9.9-25.1,7.2c-0.4-0.2-0.5-0.4-0.5-1
		C326,96.1,333.7,89.3,341,87.1z M320.4,85.2c2.2,1.1,4.8,1.7,7,2l-0.1,2.3c0,0.2-0.2,0.3-0.3,0.4l-8.5,1.7c-0.2,0-0.4-0.1-0.5-0.2
		l-1.5-2.3C318.1,87.9,319.4,86.6,320.4,85.2z M348.2,183l-0.1,0.3c0,0.1-0.1,0.6-0.4,1.4c-0.1,0.2-0.1,0.4-0.2,0.6l0,0
		c-0.1,0.3-0.2,0.6-0.3,0.9l-0.2,0.4l-0.2,0.3c-0.1,0.2-0.2,0.4-0.3,0.5l-0.2,0.3c-0.1,0.2-0.3,0.4-0.4,0.7l-0.1,0.2
		c-0.2,0.3-0.4,0.6-0.6,0.9l-0.1,0.1c-0.2,0.3-0.4,0.5-0.7,0.7l-0.2,0.2c-0.2,0.2-0.4,0.4-0.7,0.6l-0.2,0.2
		c-0.3,0.2-0.6,0.4-0.9,0.6l-0.1,0.1c-0.4,0.2-0.7,0.4-1.1,0.6l-0.3,0.1c-0.3,0.1-0.6,0.2-1,0.3l-0.4,0.1c-0.3,0.1-0.7,0.2-1,0.2
		l-0.4,0.1c-0.5,0.1-1,0.1-1.5,0.1c-1.9,0-3.2-0.4-4-1.3c-1.9-2-1.8-6.6-1.6-11.1c0.1-2.9,0.2-5.9-0.2-8.5c-0.3-2.1-0.8-4.3-1.4-6.4
		c-2.1-8.6-3-14.5,1.8-17.7c0.8-0.5,1.6-0.8,2.4-0.8c5.6,0,12.9,11,14.4,16.5c0.2,0.6,0.3,1.2,0.5,1.8l0,0.2
		c0.1,0.6,0.3,1.1,0.4,1.7C350.4,174,349.8,178.1,348.2,183z M328,224.5c-2.6,0.6-5.4,1-8.3,1c-11.4,0-21.8-5.1-27.7-9.8
		c-4.6-3.7-7.3-7.7-7.3-10.6c0.1-3.3,1.5-5.5,4.1-6.2c0.6-0.2,1.2-0.2,1.9-0.2c3.4,0,8.7,2.2,12.5,8.5c3.8,6.2,10.7,9.7,19.4,9.7
		c0.3,0,0.6,0,0.9,0c17.5-0.5,37.6-13.7,46.8-30.8c2.4-1,4.9-2.2,7.2-3.6C370.3,201.8,350.1,219,328,224.5z"/>
	<path class="st24" d="M348.8,166.2l0-0.2c-0.1-0.6-0.3-1.2-0.5-1.8c-1.5-5.5-8.8-16.5-14.4-16.5c-0.9,0-1.7,0.3-2.4,0.8
		c-4.9,3.3-3.9,9.1-1.8,17.7c0.5,2.1,1,4.3,1.4,6.4c0.4,2.7,0.3,5.7,0.2,8.5c-0.1,4.5-0.3,9.1,1.6,11.1c0.8,0.9,2.2,1.3,4,1.3
		c0.5,0,1,0,1.5-0.1l0.4-0.1c0.3-0.1,0.7-0.1,1-0.2l0.4-0.1c0.3-0.1,0.7-0.2,1-0.3l0.3-0.1c0.4-0.2,0.8-0.4,1.1-0.6l0.1-0.1
		c0.3-0.2,0.6-0.4,0.9-0.6l0.2-0.2c0.2-0.2,0.4-0.4,0.7-0.6l0.2-0.2c0.2-0.2,0.5-0.5,0.7-0.7l0.1-0.1c0.2-0.3,0.4-0.6,0.6-0.9
		l0.1-0.2c0.1-0.2,0.3-0.4,0.4-0.7l0.2-0.3c0.1-0.2,0.2-0.4,0.3-0.5l0.2-0.3l0.2-0.4c0.1-0.3,0.2-0.6,0.3-0.9l0,0
		c0.1-0.2,0.1-0.4,0.2-0.6c0.2-0.8,0.3-1.3,0.4-1.4l0.1-0.3c1.5-4.9,2.2-9,0.9-15.1C349,167.4,348.9,166.8,348.8,166.2z"/>
	<path class="st24" d="M295.2,91.5c-0.2-0.1-0.4-0.1-0.7-0.1c-2,0-5.6,1.8-7.9,4.7c-0.9,1.1-2.2,3.1-1.8,5.3
		c0.4,1.9,1.3,2.8,2.3,3.2c0.1,0,0.1,0,0.2,0.1c0.5,0.2,1.1,0.3,1.6,0.3c2.1,0,4.4-1.1,6.2-3c2-2.1,2.9-4.8,2.4-7.3
		C297.2,93.1,296.3,91.9,295.2,91.5z"/>
	<path class="st24" d="M326,100.6c4.5,2.7,16.4-3,25.1-7.2c3.3-1.6,6-2.9,8.1-3.8c-3.7-1.4-9-3.1-13.8-3.1c-1.6,0-3.1,0.2-4.5,0.6
		c-7.3,2.1-15,8.9-15.4,12.4C325.5,100.2,325.7,100.4,326,100.6z"/>
</g>
</svg>
